G04 #@! TF.FileFunction,Profile,NP*
%FSLAX46Y46*%
G04 Gerber Fmt 4.6, Leading zero omitted, Abs format (unit mm)*
G04 Created by KiCad (PCBNEW 4.0.4-stable) date Wednesday, 02 '02e' November '02e' 2016, 22:28:03*
%MOMM*%
%LPD*%
G01*
G04 APERTURE LIST*
%ADD10C,0.100000*%
G04 APERTURE END LIST*
D10*
X2541812Y20228000D02*
X-9457745Y20228000D01*
X-9457745Y20228000D02*
X-9492890Y6852597D01*
X2506133Y6784051D02*
X2541812Y20228000D01*
X-135522Y-27288990D02*
X-297009Y-27185721D01*
X-297009Y-27185721D02*
X-457199Y-27079267D01*
X-457199Y-27079267D02*
X-614963Y-26968865D01*
X-614963Y-26968865D02*
X-769174Y-26853753D01*
X-769174Y-26853753D02*
X-844596Y-26794192D01*
X-844596Y-26794192D02*
X-918706Y-26733167D01*
X-918706Y-26733167D02*
X-991364Y-26670584D01*
X-991364Y-26670584D02*
X-1062430Y-26606346D01*
X-1062430Y-26606346D02*
X-1131762Y-26540359D01*
X-1131762Y-26540359D02*
X-1199220Y-26472526D01*
X-1199220Y-26472526D02*
X-1264661Y-26402753D01*
X-1264661Y-26402753D02*
X-1327947Y-26330945D01*
X-1327947Y-26330945D02*
X-1388951Y-26257039D01*
X-1388951Y-26257039D02*
X-1447616Y-26181106D01*
X-1447616Y-26181106D02*
X-1503898Y-26103252D01*
X-1503898Y-26103252D02*
X-1557754Y-26023582D01*
X-1557754Y-26023582D02*
X-1609143Y-25942200D01*
X-1609143Y-25942200D02*
X-1658022Y-25859211D01*
X-1658022Y-25859211D02*
X-1704348Y-25774719D01*
X-1704348Y-25774719D02*
X-1748078Y-25688831D01*
X-1748078Y-25688831D02*
X-1789170Y-25601650D01*
X-1789170Y-25601650D02*
X-1827581Y-25513281D01*
X-1827581Y-25513281D02*
X-1863269Y-25423829D01*
X-1863269Y-25423829D02*
X-1896191Y-25333400D01*
X-1896191Y-25333400D02*
X-1926304Y-25242097D01*
X-1926304Y-25242097D02*
X-1953567Y-25150026D01*
X-1953567Y-25150026D02*
X-1977935Y-25057291D01*
X-1977935Y-25057291D02*
X-1999367Y-24963998D01*
X-1999367Y-24963998D02*
X-2017861Y-24870239D01*
X-2017861Y-24870239D02*
X-2033578Y-24776061D01*
X-2033578Y-24776061D02*
X-2046717Y-24681498D01*
X-2046717Y-24681498D02*
X-2057482Y-24586584D01*
X-2057482Y-24586584D02*
X-2066072Y-24491356D01*
X-2066072Y-24491356D02*
X-2072689Y-24395846D01*
X-2072689Y-24395846D02*
X-2080811Y-24204123D01*
X-2080811Y-24204123D02*
X-2083455Y-24011690D01*
X-2083455Y-24011690D02*
X-2082231Y-23818827D01*
X-2082231Y-23818827D02*
X-1992379Y-18621893D01*
X-1992379Y-18621893D02*
X-1983077Y-18422619D01*
X-1983077Y-18422619D02*
X-1975688Y-18324994D01*
X-1975688Y-18324994D02*
X-1965796Y-18229504D01*
X-1965796Y-18229504D02*
X-1959753Y-18182745D01*
X-1959753Y-18182745D02*
X-1952895Y-18136743D01*
X-1952895Y-18136743D02*
X-1945157Y-18091572D01*
X-1945157Y-18091572D02*
X-1936476Y-18047306D01*
X-1936476Y-18047306D02*
X-1926789Y-18004020D01*
X-1926789Y-18004020D02*
X-1916033Y-17961788D01*
X-1916033Y-17961788D02*
X-1904143Y-17920685D01*
X-1904143Y-17920685D02*
X-1897754Y-17900579D01*
X-1897754Y-17900579D02*
X-1891057Y-17880784D01*
X-1891057Y-17880784D02*
X-1884045Y-17861308D01*
X-1884045Y-17861308D02*
X-1876711Y-17842160D01*
X-1876711Y-17842160D02*
X-1869046Y-17823351D01*
X-1869046Y-17823351D02*
X-1861042Y-17804888D01*
X-1861042Y-17804888D02*
X-1852691Y-17786782D01*
X-1852691Y-17786782D02*
X-1843985Y-17769042D01*
X-1843985Y-17769042D02*
X-1834917Y-17751677D01*
X-1834917Y-17751677D02*
X-1825479Y-17734696D01*
X-1825479Y-17734696D02*
X-1815662Y-17718109D01*
X-1815662Y-17718109D02*
X-1805459Y-17701925D01*
X-1805459Y-17701925D02*
X-1794861Y-17686153D01*
X-1794861Y-17686153D02*
X-1783861Y-17670802D01*
X-1783861Y-17670802D02*
X-1772452Y-17655883D01*
X-1772452Y-17655883D02*
X-1760624Y-17641403D01*
X-1760624Y-17641403D02*
X-1748370Y-17627373D01*
X-1748370Y-17627373D02*
X-1735682Y-17613802D01*
X-1735682Y-17613802D02*
X-1729173Y-17607191D01*
X-1729173Y-17607191D02*
X-1722552Y-17600698D01*
X-1722552Y-17600698D02*
X-1715819Y-17594325D01*
X-1715819Y-17594325D02*
X-1708972Y-17588072D01*
X-1708972Y-17588072D02*
X-1702011Y-17581941D01*
X-1702011Y-17581941D02*
X-1694935Y-17575933D01*
X-1694935Y-17575933D02*
X-1687742Y-17570048D01*
X-1687742Y-17570048D02*
X-1680432Y-17564289D01*
X-1680432Y-17564289D02*
X-1673004Y-17558656D01*
X-1673004Y-17558656D02*
X-1665456Y-17553151D01*
X-1665456Y-17553151D02*
X-1657787Y-17547774D01*
X-1657787Y-17547774D02*
X-1649998Y-17542527D01*
X-1649998Y-17542527D02*
X-1642085Y-17537411D01*
X-1642085Y-17537411D02*
X-1634050Y-17532426D01*
X-1634050Y-17532426D02*
X-1625890Y-17527576D01*
X-1625890Y-17527576D02*
X-1617605Y-17522859D01*
X-1617605Y-17522859D02*
X-1609194Y-17518278D01*
X-1609194Y-17518278D02*
X-1600659Y-17513831D01*
X-1600659Y-17513831D02*
X-1592000Y-17509516D01*
X-1592000Y-17509516D02*
X-1583220Y-17505331D01*
X-1583220Y-17505331D02*
X-1565301Y-17497347D01*
X-1565301Y-17497347D02*
X-1546917Y-17489865D01*
X-1546917Y-17489865D02*
X-1528079Y-17482872D01*
X-1528079Y-17482872D02*
X-1508802Y-17476354D01*
X-1508802Y-17476354D02*
X-1489097Y-17470298D01*
X-1489097Y-17470298D02*
X-1468978Y-17464690D01*
X-1468978Y-17464690D02*
X-1448458Y-17459517D01*
X-1448458Y-17459517D02*
X-1427550Y-17454766D01*
X-1427550Y-17454766D02*
X-1406267Y-17450423D01*
X-1406267Y-17450423D02*
X-1384622Y-17446476D01*
X-1384622Y-17446476D02*
X-1362627Y-17442909D01*
X-1362627Y-17442909D02*
X-1340297Y-17439710D01*
X-1340297Y-17439710D02*
X-1294682Y-17434364D01*
X-1294682Y-17434364D02*
X-1247879Y-17430328D01*
X-1247879Y-17430328D02*
X-1199993Y-17427496D01*
X-1199993Y-17427496D02*
X-1151128Y-17425760D01*
X-1151128Y-17425760D02*
X-1101388Y-17425013D01*
X-1101388Y-17425013D02*
X-999701Y-17426058D01*
X-999701Y-17426058D02*
X-371556Y-17458322D01*
X-371556Y-17458322D02*
X-271644Y-17460020D01*
X-271644Y-17460020D02*
X-222981Y-17459670D01*
X-222981Y-17459670D02*
X-175320Y-17458377D01*
X-175320Y-17458377D02*
X-128765Y-17456035D01*
X-128765Y-17456035D02*
X-83419Y-17452536D01*
X-83419Y-17452536D02*
X-39368Y-17447792D01*
X-39368Y-17447792D02*
X3380Y-17441794D01*
X3380Y-17441794D02*
X44836Y-17434550D01*
X44836Y-17434550D02*
X65084Y-17430464D01*
X65084Y-17430464D02*
X85013Y-17426070D01*
X85013Y-17426070D02*
X104625Y-17421370D01*
X104625Y-17421370D02*
X123922Y-17416364D01*
X123922Y-17416364D02*
X142904Y-17411054D01*
X142904Y-17411054D02*
X161573Y-17405442D01*
X161573Y-17405442D02*
X179931Y-17399527D01*
X179931Y-17399527D02*
X197979Y-17393312D01*
X197979Y-17393312D02*
X215718Y-17386797D01*
X215718Y-17386797D02*
X233150Y-17379984D01*
X233150Y-17379984D02*
X250277Y-17372875D01*
X250277Y-17372875D02*
X267099Y-17365469D01*
X267099Y-17365469D02*
X283618Y-17357769D01*
X283618Y-17357769D02*
X299836Y-17349775D01*
X299836Y-17349775D02*
X315754Y-17341489D01*
X315754Y-17341489D02*
X331373Y-17332912D01*
X331373Y-17332912D02*
X346696Y-17324045D01*
X346696Y-17324045D02*
X361722Y-17314889D01*
X361722Y-17314889D02*
X376454Y-17305446D01*
X376454Y-17305446D02*
X390894Y-17295717D01*
X390894Y-17295717D02*
X405042Y-17285702D01*
X405042Y-17285702D02*
X418899Y-17275404D01*
X418899Y-17275404D02*
X432469Y-17264823D01*
X432469Y-17264823D02*
X445751Y-17253960D01*
X445751Y-17253960D02*
X458747Y-17242817D01*
X458747Y-17242817D02*
X471459Y-17231395D01*
X471459Y-17231395D02*
X483889Y-17219694D01*
X483889Y-17219694D02*
X496036Y-17207717D01*
X496036Y-17207717D02*
X507904Y-17195465D01*
X507904Y-17195465D02*
X519493Y-17182938D01*
X519493Y-17182938D02*
X530805Y-17170138D01*
X530805Y-17170138D02*
X541841Y-17157066D01*
X541841Y-17157066D02*
X552603Y-17143723D01*
X552603Y-17143723D02*
X563092Y-17130110D01*
X563092Y-17130110D02*
X573310Y-17116229D01*
X573310Y-17116229D02*
X583257Y-17102080D01*
X583257Y-17102080D02*
X592936Y-17087666D01*
X592936Y-17087666D02*
X602348Y-17072987D01*
X602348Y-17072987D02*
X611494Y-17058044D01*
X611494Y-17058044D02*
X620376Y-17042838D01*
X620376Y-17042838D02*
X628994Y-17027372D01*
X628994Y-17027372D02*
X637352Y-17011645D01*
X637352Y-17011645D02*
X645449Y-16995659D01*
X645449Y-16995659D02*
X653287Y-16979416D01*
X653287Y-16979416D02*
X660869Y-16962916D01*
X660869Y-16962916D02*
X668194Y-16946160D01*
X668194Y-16946160D02*
X675265Y-16929151D01*
X675265Y-16929151D02*
X682084Y-16911888D01*
X682084Y-16911888D02*
X694967Y-16876609D01*
X694967Y-16876609D02*
X706856Y-16840333D01*
X706856Y-16840333D02*
X717762Y-16803068D01*
X717762Y-16803068D02*
X727696Y-16764825D01*
X727696Y-16764825D02*
X736670Y-16725613D01*
X736670Y-16725613D02*
X744700Y-16685447D01*
X744700Y-16685447D02*
X751822Y-16644362D01*
X751822Y-16644362D02*
X758077Y-16602400D01*
X758077Y-16602400D02*
X763507Y-16559603D01*
X763507Y-16559603D02*
X768152Y-16516009D01*
X768152Y-16516009D02*
X772054Y-16471662D01*
X772054Y-16471662D02*
X777792Y-16380871D01*
X777792Y-16380871D02*
X781050Y-16287557D01*
X781050Y-16287557D02*
X782156Y-16192048D01*
X782156Y-16192048D02*
X747256Y-15188619D01*
X747256Y-15188619D02*
X746621Y-14993768D01*
X746621Y-14993768D02*
X770713Y-14047577D01*
X770713Y-14047577D02*
X768841Y-13852496D01*
X768841Y-13852496D02*
X760690Y-13651650D01*
X760690Y-13651650D02*
X712297Y-13023354D01*
X712297Y-13023354D02*
X707024Y-12919675D01*
X707024Y-12919675D02*
X704273Y-12817613D01*
X704273Y-12817613D02*
X704046Y-12767344D01*
X704046Y-12767344D02*
X704691Y-12717664D01*
X704691Y-12717664D02*
X706289Y-12668637D01*
X706289Y-12668637D02*
X708923Y-12620323D01*
X708923Y-12620323D02*
X712671Y-12572786D01*
X712671Y-12572786D02*
X717616Y-12526086D01*
X717616Y-12526086D02*
X723837Y-12480286D01*
X723837Y-12480286D02*
X731416Y-12435448D01*
X731416Y-12435448D02*
X735740Y-12413409D01*
X735740Y-12413409D02*
X740434Y-12391633D01*
X740434Y-12391633D02*
X745507Y-12370129D01*
X745507Y-12370129D02*
X750971Y-12348904D01*
X750971Y-12348904D02*
X756834Y-12327966D01*
X756834Y-12327966D02*
X763108Y-12307322D01*
X763108Y-12307322D02*
X769801Y-12286981D01*
X769801Y-12286981D02*
X776925Y-12266950D01*
X776925Y-12266950D02*
X784490Y-12247237D01*
X784490Y-12247237D02*
X792505Y-12227849D01*
X792505Y-12227849D02*
X800981Y-12208795D01*
X800981Y-12208795D02*
X809927Y-12190081D01*
X809927Y-12190081D02*
X819354Y-12171717D01*
X819354Y-12171717D02*
X829273Y-12153709D01*
X829273Y-12153709D02*
X839692Y-12136065D01*
X839692Y-12136065D02*
X850622Y-12118793D01*
X850622Y-12118793D02*
X862070Y-12101898D01*
X862070Y-12101898D02*
X874025Y-12085371D01*
X874025Y-12085371D02*
X886474Y-12069202D01*
X886474Y-12069202D02*
X899405Y-12053380D01*
X899405Y-12053380D02*
X912802Y-12037893D01*
X912802Y-12037893D02*
X926652Y-12022731D01*
X926652Y-12022731D02*
X940943Y-12007882D01*
X940943Y-12007882D02*
X955660Y-11993336D01*
X955660Y-11993336D02*
X970790Y-11979081D01*
X970790Y-11979081D02*
X986319Y-11965106D01*
X986319Y-11965106D02*
X1002235Y-11951400D01*
X1002235Y-11951400D02*
X1018522Y-11937953D01*
X1018522Y-11937953D02*
X1035168Y-11924752D01*
X1035168Y-11924752D02*
X1052159Y-11911788D01*
X1052159Y-11911788D02*
X1087124Y-11886523D01*
X1087124Y-11886523D02*
X1123306Y-11862070D01*
X1123306Y-11862070D02*
X1160598Y-11838341D01*
X1160598Y-11838341D02*
X1198892Y-11815245D01*
X1198892Y-11815245D02*
X1238080Y-11792696D01*
X1238080Y-11792696D02*
X1318701Y-11748884D01*
X1318701Y-11748884D02*
X1655250Y-11577800D01*
X1655250Y-11577800D02*
X1738570Y-11532534D01*
X1738570Y-11532534D02*
X1779512Y-11509040D01*
X1779512Y-11509040D02*
X1819830Y-11484855D01*
X1819830Y-11484855D02*
X1859417Y-11459889D01*
X1859417Y-11459889D02*
X1898164Y-11434055D01*
X1898164Y-11434055D02*
X1935962Y-11407264D01*
X1935962Y-11407264D02*
X1972704Y-11379427D01*
X1972704Y-11379427D02*
X1990644Y-11365090D01*
X1990644Y-11365090D02*
X2008280Y-11350457D01*
X2008280Y-11350457D02*
X2025598Y-11335519D01*
X2025598Y-11335519D02*
X2042584Y-11320265D01*
X2042584Y-11320265D02*
X2059227Y-11304685D01*
X2059227Y-11304685D02*
X2075529Y-11288784D01*
X2075529Y-11288784D02*
X2091493Y-11272567D01*
X2091493Y-11272567D02*
X2107124Y-11256040D01*
X2107124Y-11256040D02*
X2122425Y-11239208D01*
X2122425Y-11239208D02*
X2137401Y-11222078D01*
X2137401Y-11222078D02*
X2152055Y-11204655D01*
X2152055Y-11204655D02*
X2166392Y-11186946D01*
X2166392Y-11186946D02*
X2180415Y-11168956D01*
X2180415Y-11168956D02*
X2194129Y-11150690D01*
X2194129Y-11150690D02*
X2220643Y-11113358D01*
X2220643Y-11113358D02*
X2245967Y-11074995D01*
X2245967Y-11074995D02*
X2270132Y-11035649D01*
X2270132Y-11035649D02*
X2293171Y-10995367D01*
X2293171Y-10995367D02*
X2315114Y-10954195D01*
X2315114Y-10954195D02*
X2335994Y-10912179D01*
X2335994Y-10912179D02*
X2355843Y-10869368D01*
X2355843Y-10869368D02*
X2374693Y-10825806D01*
X2374693Y-10825806D02*
X2392575Y-10781543D01*
X2392575Y-10781543D02*
X2409521Y-10736623D01*
X2409521Y-10736623D02*
X2425564Y-10691094D01*
X2425564Y-10691094D02*
X2440734Y-10645002D01*
X2440734Y-10645002D02*
X2455064Y-10598395D01*
X2455064Y-10598395D02*
X2468586Y-10551318D01*
X2468586Y-10551318D02*
X2481332Y-10503820D01*
X2481332Y-10503820D02*
X2504621Y-10407743D01*
X2504621Y-10407743D02*
X2525186Y-10310539D01*
X2525186Y-10310539D02*
X2543283Y-10212581D01*
X2543283Y-10212581D02*
X2559166Y-10114244D01*
X2559166Y-10114244D02*
X2585310Y-9917928D01*
X2585310Y-9917928D02*
X2673673Y-8973448D01*
X2673673Y-8973448D02*
X2685235Y-8881936D01*
X2685235Y-8881936D02*
X2698403Y-8790839D01*
X2698403Y-8790839D02*
X2713455Y-8700127D01*
X2713455Y-8700127D02*
X2730670Y-8609770D01*
X2730670Y-8609770D02*
X2750325Y-8519737D01*
X2750325Y-8519737D02*
X2772698Y-8430000D01*
X2772698Y-8430000D02*
X2797978Y-8340528D01*
X2797978Y-8340528D02*
X2825993Y-8251291D01*
X2825993Y-8251291D02*
X2856482Y-8162259D01*
X2856482Y-8162259D02*
X2889187Y-8073400D01*
X2889187Y-8073400D02*
X2960198Y-7896084D01*
X2960198Y-7896084D02*
X3359587Y-7009617D01*
X3359587Y-7009617D02*
X3434157Y-6830689D01*
X3434157Y-6830689D02*
X3504417Y-6650903D01*
X3504417Y-6650903D02*
X3570737Y-6470285D01*
X3570737Y-6470285D02*
X3633491Y-6288862D01*
X3633491Y-6288862D02*
X3749789Y-5923706D01*
X3749789Y-5923706D02*
X3856288Y-5555645D01*
X3856288Y-5555645D02*
X3955343Y-5184899D01*
X3955343Y-5184899D02*
X4046808Y-4811723D01*
X4046808Y-4811723D02*
X4129913Y-4436380D01*
X4129913Y-4436380D02*
X4203889Y-4059135D01*
X4203889Y-4059135D02*
X4268269Y-3680257D01*
X4268269Y-3680257D02*
X4323798Y-3300033D01*
X4323798Y-3300033D02*
X4371527Y-2918757D01*
X4371527Y-2918757D02*
X4412504Y-2536723D01*
X4412504Y-2536723D02*
X4477840Y-1771191D01*
X4477840Y-1771191D02*
X4525394Y-1003992D01*
X4525394Y-1003992D02*
X4581514Y531966D01*
X4581514Y531966D02*
X4624292Y3229099D01*
X4624292Y3229099D02*
X4597581Y4344955D01*
X4597581Y4344955D02*
X4597248Y4534943D01*
X4597248Y4534943D02*
X4602233Y4730176D01*
X4602233Y4730176D02*
X4607219Y4830255D01*
X4607219Y4830255D02*
X4614135Y4932240D01*
X4614135Y4932240D02*
X4623181Y5036329D01*
X4623181Y5036329D02*
X4634557Y5142719D01*
X4634557Y5142719D02*
X4728786Y5806750D01*
X4728786Y5806750D02*
X4741991Y5914957D01*
X4741991Y5914957D02*
X4752486Y6020489D01*
X4752486Y6020489D02*
X4759522Y6122606D01*
X4759522Y6122606D02*
X4761509Y6172152D01*
X4761509Y6172152D02*
X4762350Y6220567D01*
X4762350Y6220567D02*
X4761953Y6267759D01*
X4761953Y6267759D02*
X4760223Y6313635D01*
X4760223Y6313635D02*
X4758829Y6336051D01*
X4758829Y6336051D02*
X4757066Y6358103D01*
X4757066Y6358103D02*
X4754924Y6379779D01*
X4754924Y6379779D02*
X4752390Y6401069D01*
X4752390Y6401069D02*
X4749453Y6421961D01*
X4749453Y6421961D02*
X4746101Y6442443D01*
X4746101Y6442443D02*
X4742322Y6462503D01*
X4742322Y6462503D02*
X4738104Y6482131D01*
X4738104Y6482131D02*
X4733437Y6501313D01*
X4733437Y6501313D02*
X4728308Y6520040D01*
X4728308Y6520040D02*
X4722705Y6538299D01*
X4722705Y6538299D02*
X4716617Y6556079D01*
X4716617Y6556079D02*
X4713387Y6564786D01*
X4713387Y6564786D02*
X4710032Y6573369D01*
X4710032Y6573369D02*
X4706549Y6581826D01*
X4706549Y6581826D02*
X4702938Y6590156D01*
X4702938Y6590156D02*
X4699197Y6598357D01*
X4699197Y6598357D02*
X4695324Y6606429D01*
X4695324Y6606429D02*
X4691318Y6614369D01*
X4691318Y6614369D02*
X4687178Y6622176D01*
X4687178Y6622176D02*
X4682902Y6629850D01*
X4682902Y6629850D02*
X4678489Y6637387D01*
X4678489Y6637387D02*
X4673936Y6644788D01*
X4673936Y6644788D02*
X4669244Y6652049D01*
X4669244Y6652049D02*
X4664409Y6659171D01*
X4664409Y6659171D02*
X4659432Y6666152D01*
X4659432Y6666152D02*
X4654309Y6672989D01*
X4654309Y6672989D02*
X4649041Y6679682D01*
X4649041Y6679682D02*
X4643625Y6686230D01*
X4643625Y6686230D02*
X4638063Y6692633D01*
X4638063Y6692633D02*
X4632356Y6698894D01*
X4632356Y6698894D02*
X4626506Y6705012D01*
X4626506Y6705012D02*
X4620513Y6710990D01*
X4620513Y6710990D02*
X4614380Y6716829D01*
X4614380Y6716829D02*
X4608108Y6722531D01*
X4608108Y6722531D02*
X4601697Y6728096D01*
X4601697Y6728096D02*
X4595150Y6733526D01*
X4595150Y6733526D02*
X4588467Y6738822D01*
X4588467Y6738822D02*
X4581650Y6743987D01*
X4581650Y6743987D02*
X4574701Y6749020D01*
X4574701Y6749020D02*
X4567621Y6753924D01*
X4567621Y6753924D02*
X4560411Y6758699D01*
X4560411Y6758699D02*
X4553072Y6763348D01*
X4553072Y6763348D02*
X4545606Y6767871D01*
X4545606Y6767871D02*
X4538015Y6772270D01*
X4538015Y6772270D02*
X4530299Y6776546D01*
X4530299Y6776546D02*
X4522460Y6780701D01*
X4522460Y6780701D02*
X4514500Y6784735D01*
X4514500Y6784735D02*
X4498219Y6792449D01*
X4498219Y6792449D02*
X4481469Y6799699D01*
X4481469Y6799699D02*
X4464260Y6806496D01*
X4464260Y6806496D02*
X4446602Y6812850D01*
X4446602Y6812850D02*
X4428507Y6818772D01*
X4428507Y6818772D02*
X4409986Y6824273D01*
X4409986Y6824273D02*
X4391050Y6829364D01*
X4391050Y6829364D02*
X4371709Y6834056D01*
X4371709Y6834056D02*
X4351975Y6838359D01*
X4351975Y6838359D02*
X4331859Y6842285D01*
X4331859Y6842285D02*
X4311371Y6845843D01*
X4311371Y6845843D02*
X4290522Y6849045D01*
X4290522Y6849045D02*
X4247787Y6854425D01*
X4247787Y6854425D02*
X4203741Y6858510D01*
X4203741Y6858510D02*
X4158471Y6861388D01*
X4158471Y6861388D02*
X4112066Y6863143D01*
X4112066Y6863143D02*
X4064613Y6863863D01*
X4064613Y6863863D02*
X3966913Y6862545D01*
X3966913Y6862545D02*
X3866072Y6858124D01*
X3866072Y6858124D02*
X3234293Y6805201D01*
X3234293Y6805201D02*
X3029215Y6793006D01*
X3029215Y6793006D02*
X2830072Y6786674D01*
X2830072Y6786674D02*
X2506133Y6784051D01*
X-9492890Y6852597D02*
X-10224723Y6856669D01*
X-10224723Y6856669D02*
X-10598920Y6847797D01*
X-10598920Y6847797D02*
X-10780575Y6837922D01*
X-10780575Y6837922D02*
X-10869153Y6830737D01*
X-10869153Y6830737D02*
X-10955744Y6821565D01*
X-10955744Y6821565D02*
X-11039981Y6810041D01*
X-11039981Y6810041D02*
X-11081102Y6803282D01*
X-11081102Y6803282D02*
X-11121497Y6795798D01*
X-11121497Y6795798D02*
X-11161121Y6787542D01*
X-11161121Y6787542D02*
X-11199927Y6778469D01*
X-11199927Y6778469D02*
X-11237869Y6768533D01*
X-11237869Y6768533D02*
X-11274903Y6757688D01*
X-11274903Y6757688D02*
X-11310982Y6745889D01*
X-11310982Y6745889D02*
X-11328649Y6739617D01*
X-11328649Y6739617D02*
X-11346060Y6733090D01*
X-11346060Y6733090D02*
X-11363209Y6726301D01*
X-11363209Y6726301D02*
X-11380091Y6719244D01*
X-11380091Y6719244D02*
X-11396700Y6711915D01*
X-11396700Y6711915D02*
X-11413030Y6704307D01*
X-11413030Y6704307D02*
X-11429076Y6696414D01*
X-11429076Y6696414D02*
X-11444831Y6688232D01*
X-11444831Y6688232D02*
X-11460290Y6679753D01*
X-11460290Y6679753D02*
X-11475448Y6670973D01*
X-11475448Y6670973D02*
X-11490298Y6661886D01*
X-11490298Y6661886D02*
X-11504835Y6652485D01*
X-11504835Y6652485D02*
X-11519054Y6642766D01*
X-11519054Y6642766D02*
X-11532947Y6632723D01*
X-11532947Y6632723D02*
X-11546511Y6622349D01*
X-11546511Y6622349D02*
X-11559738Y6611639D01*
X-11559738Y6611639D02*
X-11572623Y6600588D01*
X-11572623Y6600588D02*
X-11585161Y6589189D01*
X-11585161Y6589189D02*
X-11597346Y6577437D01*
X-11597346Y6577437D02*
X-11609172Y6565326D01*
X-11609172Y6565326D02*
X-11620633Y6552851D01*
X-11620633Y6552851D02*
X-11631724Y6540006D01*
X-11631724Y6540006D02*
X-11642438Y6526784D01*
X-11642438Y6526784D02*
X-11652771Y6513181D01*
X-11652771Y6513181D02*
X-11662716Y6499191D01*
X-11662716Y6499191D02*
X-11672268Y6484807D01*
X-11672268Y6484807D02*
X-11681421Y6470024D01*
X-11681421Y6470024D02*
X-11690169Y6454837D01*
X-11690169Y6454837D02*
X-11698506Y6439239D01*
X-11698506Y6439239D02*
X-11706428Y6423226D01*
X-11706428Y6423226D02*
X-11713929Y6406793D01*
X-11713929Y6406793D02*
X-11721018Y6389946D01*
X-11721018Y6389946D02*
X-11727701Y6372694D01*
X-11727701Y6372694D02*
X-11733987Y6355046D01*
X-11733987Y6355046D02*
X-11739884Y6337010D01*
X-11739884Y6337010D02*
X-11745402Y6318593D01*
X-11745402Y6318593D02*
X-11750547Y6299805D01*
X-11750547Y6299805D02*
X-11755330Y6280653D01*
X-11755330Y6280653D02*
X-11759757Y6261147D01*
X-11759757Y6261147D02*
X-11763837Y6241294D01*
X-11763837Y6241294D02*
X-11767579Y6221102D01*
X-11767579Y6221102D02*
X-11770991Y6200581D01*
X-11770991Y6200581D02*
X-11776859Y6158583D01*
X-11776859Y6158583D02*
X-11781506Y6115365D01*
X-11781506Y6115365D02*
X-11785000Y6070996D01*
X-11785000Y6070996D02*
X-11787409Y6025540D01*
X-11787409Y6025540D02*
X-11788797Y5979066D01*
X-11788797Y5979066D02*
X-11789234Y5931641D01*
X-11789234Y5931641D02*
X-11787516Y5834202D01*
X-11787516Y5834202D02*
X-11782791Y5733757D01*
X-11782791Y5733757D02*
X-11766454Y5525994D01*
X-11766454Y5525994D02*
X-11700860Y4886205D01*
X-11700860Y4886205D02*
X-11686822Y4680799D01*
X-11686822Y4680799D02*
X-11678867Y4481480D01*
X-11678867Y4481480D02*
X-11675858Y4287102D01*
X-11675858Y4287102D02*
X-11698847Y2586342D01*
X-11698847Y2586342D02*
X-11657650Y275478D01*
X-11657650Y275478D02*
X-11585323Y-1259784D01*
X-11585323Y-1259784D02*
X-11528141Y-2026253D01*
X-11528141Y-2026253D02*
X-11454113Y-2791073D01*
X-11454113Y-2791073D02*
X-11360134Y-3553856D01*
X-11360134Y-3553856D02*
X-11304345Y-3934046D01*
X-11304345Y-3934046D02*
X-11241928Y-4313145D01*
X-11241928Y-4313145D02*
X-11172485Y-4690980D01*
X-11172485Y-4690980D02*
X-11096307Y-5067533D01*
X-11096307Y-5067533D02*
X-10925596Y-5816895D01*
X-10925596Y-5816895D02*
X-10831475Y-6189586D01*
X-10831475Y-6189586D02*
X-10729380Y-6560097D01*
X-10729380Y-6560097D02*
X-10616682Y-6927455D01*
X-10616682Y-6927455D02*
X-10555535Y-7109649D01*
X-10555535Y-7109649D02*
X-10215410Y-8009491D01*
X-10215410Y-8009491D02*
X-10152992Y-8191139D01*
X-10152992Y-8191139D02*
X-10124243Y-8282726D01*
X-10124243Y-8282726D02*
X-10097496Y-8374936D01*
X-10097496Y-8374936D02*
X-10073024Y-8467853D01*
X-10073024Y-8467853D02*
X-10051099Y-8561565D01*
X-10051099Y-8561565D02*
X-10031994Y-8656155D01*
X-10031994Y-8656155D02*
X-10015980Y-8751711D01*
X-10015980Y-8751711D02*
X-10003188Y-8848265D01*
X-10003188Y-8848265D02*
X-9993190Y-8945647D01*
X-9993190Y-8945647D02*
X-9953436Y-9631786D01*
X-9953436Y-9631786D02*
X-9945225Y-9727771D01*
X-9945225Y-9727771D02*
X-9934669Y-9822579D01*
X-9934669Y-9822579D02*
X-9928332Y-9869472D01*
X-9928332Y-9869472D02*
X-9921196Y-9915987D01*
X-9921196Y-9915987D02*
X-9913187Y-9962097D01*
X-9913187Y-9962097D02*
X-9904235Y-10007773D01*
X-9904235Y-10007773D02*
X-9894269Y-10052988D01*
X-9894269Y-10052988D02*
X-9883216Y-10097713D01*
X-9883216Y-10097713D02*
X-9871006Y-10141922D01*
X-9871006Y-10141922D02*
X-9857568Y-10185586D01*
X-9857568Y-10185586D02*
X-9842829Y-10228677D01*
X-9842829Y-10228677D02*
X-9826719Y-10271168D01*
X-9826719Y-10271168D02*
X-9809191Y-10313041D01*
X-9809191Y-10313041D02*
X-9790294Y-10354319D01*
X-9790294Y-10354319D02*
X-9770102Y-10395038D01*
X-9770102Y-10395038D02*
X-9748691Y-10435232D01*
X-9748691Y-10435232D02*
X-9726133Y-10474934D01*
X-9726133Y-10474934D02*
X-9702504Y-10514179D01*
X-9702504Y-10514179D02*
X-9677877Y-10553001D01*
X-9677877Y-10553001D02*
X-9652327Y-10591434D01*
X-9652327Y-10591434D02*
X-9625928Y-10629514D01*
X-9625928Y-10629514D02*
X-9598754Y-10667273D01*
X-9598754Y-10667273D02*
X-9542378Y-10741969D01*
X-9542378Y-10741969D02*
X-9119142Y-11255867D01*
X-9119142Y-11255867D02*
X-9061718Y-11331288D01*
X-9061718Y-11331288D02*
X-9006834Y-11408033D01*
X-9006834Y-11408033D02*
X-8980531Y-11446988D01*
X-8980531Y-11446988D02*
X-8955085Y-11486376D01*
X-8955085Y-11486376D02*
X-8930556Y-11526225D01*
X-8930556Y-11526225D02*
X-8906943Y-11566529D01*
X-8906943Y-11566529D02*
X-8884228Y-11607276D01*
X-8884228Y-11607276D02*
X-8862395Y-11648453D01*
X-8862395Y-11648453D02*
X-8841428Y-11690046D01*
X-8841428Y-11690046D02*
X-8821309Y-11732044D01*
X-8821309Y-11732044D02*
X-8802022Y-11774434D01*
X-8802022Y-11774434D02*
X-8783551Y-11817202D01*
X-8783551Y-11817202D02*
X-8765878Y-11860337D01*
X-8765878Y-11860337D02*
X-8748988Y-11903825D01*
X-8748988Y-11903825D02*
X-8717486Y-11991810D01*
X-8717486Y-11991810D02*
X-8688913Y-12081056D01*
X-8688913Y-12081056D02*
X-8663134Y-12171461D01*
X-8663134Y-12171461D02*
X-8640017Y-12262922D01*
X-8640017Y-12262922D02*
X-8619429Y-12355339D01*
X-8619429Y-12355339D02*
X-8601235Y-12448608D01*
X-8601235Y-12448608D02*
X-8585303Y-12542628D01*
X-8585303Y-12542628D02*
X-8571500Y-12637297D01*
X-8571500Y-12637297D02*
X-8559691Y-12732513D01*
X-8559691Y-12732513D02*
X-8549745Y-12828174D01*
X-8549745Y-12828174D02*
X-8541527Y-12924178D01*
X-8541527Y-12924178D02*
X-8529723Y-13116882D01*
X-8529723Y-13116882D02*
X-8523114Y-13310172D01*
X-8523114Y-13310172D02*
X-8506790Y-15399156D01*
X-8506790Y-15399156D02*
X-8508401Y-15593455D01*
X-8508401Y-15593455D02*
X-8514978Y-15792708D01*
X-8514978Y-15792708D02*
X-8527867Y-15998084D01*
X-8527867Y-15998084D02*
X-8585897Y-16631979D01*
X-8585897Y-16631979D02*
X-8591353Y-16733306D01*
X-8591353Y-16733306D02*
X-8593686Y-16831517D01*
X-8593686Y-16831517D02*
X-8593456Y-16879233D01*
X-8593456Y-16879233D02*
X-8592176Y-16925905D01*
X-8592176Y-16925905D02*
X-8589755Y-16971446D01*
X-8589755Y-16971446D02*
X-8586103Y-17015766D01*
X-8586103Y-17015766D02*
X-8583787Y-17037441D01*
X-8583787Y-17037441D02*
X-8581130Y-17058778D01*
X-8581130Y-17058778D02*
X-8578120Y-17079766D01*
X-8578120Y-17079766D02*
X-8574747Y-17100394D01*
X-8574747Y-17100394D02*
X-8570998Y-17120650D01*
X-8570998Y-17120650D02*
X-8566863Y-17140524D01*
X-8566863Y-17140524D02*
X-8562330Y-17160005D01*
X-8562330Y-17160005D02*
X-8557389Y-17179082D01*
X-8557389Y-17179082D02*
X-8552027Y-17197743D01*
X-8552027Y-17197743D02*
X-8546234Y-17215978D01*
X-8546234Y-17215978D02*
X-8539998Y-17233776D01*
X-8539998Y-17233776D02*
X-8533308Y-17251125D01*
X-8533308Y-17251125D02*
X-8526154Y-17268015D01*
X-8526154Y-17268015D02*
X-8522398Y-17276284D01*
X-8522398Y-17276284D02*
X-8518523Y-17284434D01*
X-8518523Y-17284434D02*
X-8514525Y-17292464D01*
X-8514525Y-17292464D02*
X-8510404Y-17300372D01*
X-8510404Y-17300372D02*
X-8506158Y-17308157D01*
X-8506158Y-17308157D02*
X-8501786Y-17315818D01*
X-8501786Y-17315818D02*
X-8497287Y-17323352D01*
X-8497287Y-17323352D02*
X-8492659Y-17330760D01*
X-8492659Y-17330760D02*
X-8487900Y-17338039D01*
X-8487900Y-17338039D02*
X-8483010Y-17345187D01*
X-8483010Y-17345187D02*
X-8477986Y-17352205D01*
X-8477986Y-17352205D02*
X-8472828Y-17359089D01*
X-8472828Y-17359089D02*
X-8467534Y-17365840D01*
X-8467534Y-17365840D02*
X-8462103Y-17372454D01*
X-8462103Y-17372454D02*
X-8456533Y-17378932D01*
X-8456533Y-17378932D02*
X-8450823Y-17385272D01*
X-8450823Y-17385272D02*
X-8444971Y-17391472D01*
X-8444971Y-17391472D02*
X-8438976Y-17397531D01*
X-8438976Y-17397531D02*
X-8432837Y-17403448D01*
X-8432837Y-17403448D02*
X-8426552Y-17409221D01*
X-8426552Y-17409221D02*
X-8420119Y-17414848D01*
X-8420119Y-17414848D02*
X-8413539Y-17420329D01*
X-8413539Y-17420329D02*
X-8406808Y-17425663D01*
X-8406808Y-17425663D02*
X-8399929Y-17430850D01*
X-8399929Y-17430850D02*
X-8392904Y-17435893D01*
X-8392904Y-17435893D02*
X-8385733Y-17440792D01*
X-8385733Y-17440792D02*
X-8378418Y-17445549D01*
X-8378418Y-17445549D02*
X-8370961Y-17450166D01*
X-8370961Y-17450166D02*
X-8363363Y-17454644D01*
X-8363363Y-17454644D02*
X-8355626Y-17458985D01*
X-8355626Y-17458985D02*
X-8347752Y-17463191D01*
X-8347752Y-17463191D02*
X-8339741Y-17467262D01*
X-8339741Y-17467262D02*
X-8331596Y-17471201D01*
X-8331596Y-17471201D02*
X-8323318Y-17475008D01*
X-8323318Y-17475008D02*
X-8314909Y-17478687D01*
X-8314909Y-17478687D02*
X-8306370Y-17482237D01*
X-8306370Y-17482237D02*
X-8288909Y-17488959D01*
X-8288909Y-17488959D02*
X-8270948Y-17495188D01*
X-8270948Y-17495188D02*
X-8252498Y-17500936D01*
X-8252498Y-17500936D02*
X-8233573Y-17506215D01*
X-8233573Y-17506215D02*
X-8214185Y-17511037D01*
X-8214185Y-17511037D02*
X-8194347Y-17515415D01*
X-8194347Y-17515415D02*
X-8174070Y-17519360D01*
X-8174070Y-17519360D02*
X-8153367Y-17522886D01*
X-8153367Y-17522886D02*
X-8132251Y-17526004D01*
X-8132251Y-17526004D02*
X-8110734Y-17528727D01*
X-8110734Y-17528727D02*
X-8088828Y-17531067D01*
X-8088828Y-17531067D02*
X-8043902Y-17534646D01*
X-8043902Y-17534646D02*
X-7997571Y-17536841D01*
X-7997571Y-17536841D02*
X-7949936Y-17537749D01*
X-7949936Y-17537749D02*
X-7901095Y-17537468D01*
X-7901095Y-17537468D02*
X-7851149Y-17536098D01*
X-7851149Y-17536098D02*
X-7748339Y-17530478D01*
X-7748339Y-17530478D02*
X-7642301Y-17521676D01*
X-7642301Y-17521676D02*
X-6982918Y-17446020D01*
X-6982918Y-17446020D02*
X-6876597Y-17436936D01*
X-6876597Y-17436936D02*
X-6773324Y-17430856D01*
X-6773324Y-17430856D02*
X-6673396Y-17428075D01*
X-6673396Y-17428075D02*
X-6624749Y-17427983D01*
X-6624749Y-17427983D02*
X-6577014Y-17428790D01*
X-6577014Y-17428790D02*
X-6530215Y-17430520D01*
X-6530215Y-17430520D02*
X-6484378Y-17433198D01*
X-6484378Y-17433198D02*
X-6439527Y-17436848D01*
X-6439527Y-17436848D02*
X-6395687Y-17441496D01*
X-6395687Y-17441496D02*
X-6352884Y-17447165D01*
X-6352884Y-17447165D02*
X-6311142Y-17453881D01*
X-6311142Y-17453881D02*
X-6270486Y-17461667D01*
X-6270486Y-17461667D02*
X-6230941Y-17470550D01*
X-6230941Y-17470550D02*
X-6211594Y-17475409D01*
X-6211594Y-17475409D02*
X-6192533Y-17480552D01*
X-6192533Y-17480552D02*
X-6173763Y-17485981D01*
X-6173763Y-17485981D02*
X-6155286Y-17491699D01*
X-6155286Y-17491699D02*
X-6137105Y-17497710D01*
X-6137105Y-17497710D02*
X-6119224Y-17504016D01*
X-6119224Y-17504016D02*
X-6101646Y-17510621D01*
X-6101646Y-17510621D02*
X-6084374Y-17517527D01*
X-6084374Y-17517527D02*
X-6067411Y-17524738D01*
X-6067411Y-17524738D02*
X-6050760Y-17532256D01*
X-6050760Y-17532256D02*
X-6034424Y-17540086D01*
X-6034424Y-17540086D02*
X-6018407Y-17548229D01*
X-6018407Y-17548229D02*
X-6002711Y-17556689D01*
X-6002711Y-17556689D02*
X-5987340Y-17565470D01*
X-5987340Y-17565470D02*
X-5972296Y-17574573D01*
X-5972296Y-17574573D02*
X-5957584Y-17584003D01*
X-5957584Y-17584003D02*
X-5943205Y-17593762D01*
X-5943205Y-17593762D02*
X-5929164Y-17603853D01*
X-5929164Y-17603853D02*
X-5915462Y-17614280D01*
X-5915462Y-17614280D02*
X-5902104Y-17625045D01*
X-5902104Y-17625045D02*
X-5889093Y-17636152D01*
X-5889093Y-17636152D02*
X-5876431Y-17647604D01*
X-5876431Y-17647604D02*
X-5864122Y-17659403D01*
X-5864122Y-17659403D02*
X-5852168Y-17671554D01*
X-5852168Y-17671554D02*
X-5840574Y-17684058D01*
X-5840574Y-17684058D02*
X-5829341Y-17696919D01*
X-5829341Y-17696919D02*
X-5818474Y-17710140D01*
X-5818474Y-17710140D02*
X-5807975Y-17723724D01*
X-5807975Y-17723724D02*
X-5797848Y-17737675D01*
X-5797848Y-17737675D02*
X-5788095Y-17751995D01*
X-5788095Y-17751995D02*
X-5778720Y-17766687D01*
X-5778720Y-17766687D02*
X-5769726Y-17781755D01*
X-5769726Y-17781755D02*
X-5761115Y-17797201D01*
X-5761115Y-17797201D02*
X-5752892Y-17813029D01*
X-5752892Y-17813029D02*
X-5745058Y-17829241D01*
X-5745058Y-17829241D02*
X-5737618Y-17845841D01*
X-5737618Y-17845841D02*
X-5730573Y-17862831D01*
X-5730573Y-17862831D02*
X-5723916Y-17880203D01*
X-5723916Y-17880203D02*
X-5717640Y-17897951D01*
X-5717640Y-17897951D02*
X-5711737Y-17916066D01*
X-5711737Y-17916066D02*
X-5706199Y-17934541D01*
X-5706199Y-17934541D02*
X-5701017Y-17953369D01*
X-5701017Y-17953369D02*
X-5696186Y-17972540D01*
X-5696186Y-17972540D02*
X-5691695Y-17992049D01*
X-5691695Y-17992049D02*
X-5687538Y-18011886D01*
X-5687538Y-18011886D02*
X-5683707Y-18032044D01*
X-5683707Y-18032044D02*
X-5676991Y-18073294D01*
X-5676991Y-18073294D02*
X-5671483Y-18115735D01*
X-5671483Y-18115735D02*
X-5667121Y-18159306D01*
X-5667121Y-18159306D02*
X-5663842Y-18203944D01*
X-5663842Y-18203944D02*
X-5661583Y-18249588D01*
X-5661583Y-18249588D02*
X-5660282Y-18296177D01*
X-5660282Y-18296177D02*
X-5659875Y-18343647D01*
X-5659875Y-18343647D02*
X-5661493Y-18440985D01*
X-5661493Y-18440985D02*
X-5665936Y-18541108D01*
X-5665936Y-18541108D02*
X-5681283Y-18747725D01*
X-5681283Y-18747725D02*
X-5742835Y-19382863D01*
X-5742835Y-19382863D02*
X-5755969Y-19587294D01*
X-5755969Y-19587294D02*
X-5763382Y-19786085D01*
X-5763382Y-19786085D02*
X-5766153Y-19980298D01*
X-5766153Y-19980298D02*
X-5753269Y-22456908D01*
X-5753269Y-22456908D02*
X-5801236Y-29552897D01*
X-5801236Y-29552897D02*
X-5799647Y-29746286D01*
X-5799647Y-29746286D02*
X-5793066Y-29942444D01*
X-5793066Y-29942444D02*
X-5780338Y-30142015D01*
X-5780338Y-30142015D02*
X-5709813Y-30854939D01*
X-5709813Y-30854939D02*
X-5703236Y-30954844D01*
X-5703236Y-30954844D02*
X-5699155Y-31053364D01*
X-5699155Y-31053364D02*
X-5698109Y-31150199D01*
X-5698109Y-31150199D02*
X-5698893Y-31197891D01*
X-5698893Y-31197891D02*
X-5700639Y-31245050D01*
X-5700639Y-31245050D02*
X-5703413Y-31291637D01*
X-5703413Y-31291637D02*
X-5707284Y-31337616D01*
X-5707284Y-31337616D02*
X-5712320Y-31382948D01*
X-5712320Y-31382948D02*
X-5718586Y-31427597D01*
X-5718586Y-31427597D02*
X-5726152Y-31471525D01*
X-5726152Y-31471525D02*
X-5735084Y-31514694D01*
X-5735084Y-31514694D02*
X-5740084Y-31535983D01*
X-5740084Y-31535983D02*
X-5745451Y-31557068D01*
X-5745451Y-31557068D02*
X-5751193Y-31577944D01*
X-5751193Y-31577944D02*
X-5757319Y-31598607D01*
X-5757319Y-31598607D02*
X-5763837Y-31619053D01*
X-5763837Y-31619053D02*
X-5770756Y-31639276D01*
X-5770756Y-31639276D02*
X-5778084Y-31659272D01*
X-5778084Y-31659272D02*
X-5785830Y-31679036D01*
X-5785830Y-31679036D02*
X-5794000Y-31698565D01*
X-5794000Y-31698565D02*
X-5802589Y-31717862D01*
X-5802589Y-31717862D02*
X-5811591Y-31736929D01*
X-5811591Y-31736929D02*
X-5821000Y-31755771D01*
X-5821000Y-31755771D02*
X-5830810Y-31774392D01*
X-5830810Y-31774392D02*
X-5841014Y-31792795D01*
X-5841014Y-31792795D02*
X-5851605Y-31810985D01*
X-5851605Y-31810985D02*
X-5862578Y-31828964D01*
X-5862578Y-31828964D02*
X-5873925Y-31846737D01*
X-5873925Y-31846737D02*
X-5885641Y-31864307D01*
X-5885641Y-31864307D02*
X-5897719Y-31881679D01*
X-5897719Y-31881679D02*
X-5910153Y-31898855D01*
X-5910153Y-31898855D02*
X-5922936Y-31915841D01*
X-5922936Y-31915841D02*
X-5936061Y-31932639D01*
X-5936061Y-31932639D02*
X-5963316Y-31965688D01*
X-5963316Y-31965688D02*
X-5991865Y-31998032D01*
X-5991865Y-31998032D02*
X-6021657Y-32029702D01*
X-6021657Y-32029702D02*
X-6052642Y-32060728D01*
X-6052642Y-32060728D02*
X-6084767Y-32091140D01*
X-6084767Y-32091140D02*
X-6117983Y-32120968D01*
X-6117983Y-32120968D02*
X-6152236Y-32150243D01*
X-6152236Y-32150243D02*
X-6187478Y-32178994D01*
X-6187478Y-32178994D02*
X-6223655Y-32207252D01*
X-6223655Y-32207252D02*
X-6260717Y-32235048D01*
X-6260717Y-32235048D02*
X-6298614Y-32262410D01*
X-6298614Y-32262410D02*
X-6376702Y-32315958D01*
X-6376702Y-32315958D02*
X-6457511Y-32368136D01*
X-6457511Y-32368136D02*
X-6540631Y-32419187D01*
X-6540631Y-32419187D02*
X-6712166Y-32518874D01*
X-6712166Y-32518874D02*
X-6888027Y-32616949D01*
X-6888027Y-32616949D02*
X-7243931Y-32808563D01*
X-7243931Y-32808563D02*
X-7333517Y-32853254D01*
X-7333517Y-32853254D02*
X-7423336Y-32895748D01*
X-7423336Y-32895748D02*
X-7513381Y-32935592D01*
X-7513381Y-32935592D02*
X-7603645Y-32972329D01*
X-7603645Y-32972329D02*
X-7648858Y-32989391D01*
X-7648858Y-32989391D02*
X-7694124Y-33005506D01*
X-7694124Y-33005506D02*
X-7739441Y-33020616D01*
X-7739441Y-33020616D02*
X-7784810Y-33034665D01*
X-7784810Y-33034665D02*
X-7830229Y-33047597D01*
X-7830229Y-33047597D02*
X-7875698Y-33059354D01*
X-7875698Y-33059354D02*
X-7921215Y-33069879D01*
X-7921215Y-33069879D02*
X-7966781Y-33079115D01*
X-7966781Y-33079115D02*
X-8012394Y-33087006D01*
X-8012394Y-33087006D02*
X-8058054Y-33093494D01*
X-8058054Y-33093494D02*
X-8103759Y-33098524D01*
X-8103759Y-33098524D02*
X-8149510Y-33102036D01*
X-8149510Y-33102036D02*
X-8172402Y-33103207D01*
X-8172402Y-33103207D02*
X-8195305Y-33103976D01*
X-8195305Y-33103976D02*
X-8218218Y-33104339D01*
X-8218218Y-33104339D02*
X-8241143Y-33104286D01*
X-8241143Y-33104286D02*
X-8264078Y-33103812D01*
X-8264078Y-33103812D02*
X-8287024Y-33102909D01*
X-8287024Y-33102909D02*
X-8309980Y-33101570D01*
X-8309980Y-33101570D02*
X-8332947Y-33099788D01*
X-8332947Y-33099788D02*
X-8355924Y-33097559D01*
X-8355924Y-33097559D02*
X-8378907Y-33094889D01*
X-8378907Y-33094889D02*
X-8401893Y-33091786D01*
X-8401893Y-33091786D02*
X-8424878Y-33088261D01*
X-8424878Y-33088261D02*
X-8470833Y-33079980D01*
X-8470833Y-33079980D02*
X-8516741Y-33070118D01*
X-8516741Y-33070118D02*
X-8562574Y-33058747D01*
X-8562574Y-33058747D02*
X-8608302Y-33045943D01*
X-8608302Y-33045943D02*
X-8653896Y-33031777D01*
X-8653896Y-33031777D02*
X-8699327Y-33016323D01*
X-8699327Y-33016323D02*
X-8744566Y-32999655D01*
X-8744566Y-32999655D02*
X-8789584Y-32981844D01*
X-8789584Y-32981844D02*
X-8834351Y-32962966D01*
X-8834351Y-32962966D02*
X-8878838Y-32943093D01*
X-8878838Y-32943093D02*
X-8923016Y-32922298D01*
X-8923016Y-32922298D02*
X-8966856Y-32900654D01*
X-8966856Y-32900654D02*
X-9053405Y-32855114D01*
X-9053405Y-32855114D02*
X-9138251Y-32807059D01*
X-9138251Y-32807059D02*
X-9221161Y-32757075D01*
X-9221161Y-32757075D02*
X-9301902Y-32705747D01*
X-9301902Y-32705747D02*
X-9380239Y-32653662D01*
X-9380239Y-32653662D02*
X-9528770Y-32549563D01*
X-9528770Y-32549563D02*
X-9894548Y-32278894D01*
X-9894548Y-32278894D02*
X-9942790Y-32245278D01*
X-9942790Y-32245278D02*
X-9965512Y-32230154D01*
X-9965512Y-32230154D02*
X-9987297Y-32216232D01*
X-9987297Y-32216232D02*
X-10008139Y-32203573D01*
X-10008139Y-32203573D02*
X-10028035Y-32192236D01*
X-10028035Y-32192236D02*
X-10037627Y-32187082D01*
X-10037627Y-32187082D02*
X-10046981Y-32182281D01*
X-10046981Y-32182281D02*
X-10056097Y-32177840D01*
X-10056097Y-32177840D02*
X-10064973Y-32173768D01*
X-10064973Y-32173768D02*
X-10073610Y-32170071D01*
X-10073610Y-32170071D02*
X-10082006Y-32166757D01*
X-10082006Y-32166757D02*
X-10090162Y-32163834D01*
X-10090162Y-32163834D02*
X-10094150Y-32162521D01*
X-10094150Y-32162521D02*
X-10098077Y-32161308D01*
X-10098077Y-32161308D02*
X-10101944Y-32160197D01*
X-10101944Y-32160197D02*
X-10105750Y-32159189D01*
X-10105750Y-32159189D02*
X-10109496Y-32158283D01*
X-10109496Y-32158283D02*
X-10113181Y-32157482D01*
X-10113181Y-32157482D02*
X-10116806Y-32156786D01*
X-10116806Y-32156786D02*
X-10120369Y-32156195D01*
X-10120369Y-32156195D02*
X-10123872Y-32155712D01*
X-10123872Y-32155712D02*
X-10127314Y-32155337D01*
X-10127314Y-32155337D02*
X-10130695Y-32155071D01*
X-10130695Y-32155071D02*
X-10134015Y-32154914D01*
X-10134015Y-32154914D02*
X-10137274Y-32154868D01*
X-10137274Y-32154868D02*
X-10138881Y-32154887D01*
X-10138881Y-32154887D02*
X-10140472Y-32154934D01*
X-10140472Y-32154934D02*
X-10142048Y-32155009D01*
X-10142048Y-32155009D02*
X-10143609Y-32155112D01*
X-10143609Y-32155112D02*
X-10145154Y-32155244D01*
X-10145154Y-32155244D02*
X-10146685Y-32155404D01*
X-10146685Y-32155404D02*
X-10148199Y-32155593D01*
X-10148199Y-32155593D02*
X-10149699Y-32155811D01*
X-10149699Y-32155811D02*
X-10151183Y-32156057D01*
X-10151183Y-32156057D02*
X-10152651Y-32156333D01*
X-10152651Y-32156333D02*
X-10154105Y-32156637D01*
X-10154105Y-32156637D02*
X-10155543Y-32156971D01*
X-10155543Y-32156971D02*
X-10156965Y-32157334D01*
X-10156965Y-32157334D02*
X-10158373Y-32157727D01*
X-10158373Y-32157727D02*
X-10159764Y-32158149D01*
X-10159764Y-32158149D02*
X-10161141Y-32158600D01*
X-10161141Y-32158600D02*
X-10162502Y-32159082D01*
X-10162502Y-32159082D02*
X-10163847Y-32159593D01*
X-10163847Y-32159593D02*
X-10165178Y-32160135D01*
X-10165178Y-32160135D02*
X-10166492Y-32160706D01*
X-10166492Y-32160706D02*
X-10167792Y-32161308D01*
X-10167792Y-32161308D02*
X-10169075Y-32161940D01*
X-10169075Y-32161940D02*
X-10170344Y-32162603D01*
X-10170344Y-32162603D02*
X-10171597Y-32163297D01*
X-10171597Y-32163297D02*
X-10172834Y-32164021D01*
X-10172834Y-32164021D02*
X-10174056Y-32164776D01*
X-10174056Y-32164776D02*
X-10175262Y-32165561D01*
X-10175262Y-32165561D02*
X-10176453Y-32166378D01*
X-10176453Y-32166378D02*
X-10177629Y-32167226D01*
X-10177629Y-32167226D02*
X-10178789Y-32168106D01*
X-10178789Y-32168106D02*
X-10179933Y-32169017D01*
X-10179933Y-32169017D02*
X-10181062Y-32169959D01*
X-10181062Y-32169959D02*
X-10182175Y-32170933D01*
X-10182175Y-32170933D02*
X-10183273Y-32171939D01*
X-10183273Y-32171939D02*
X-10184355Y-32172977D01*
X-10184355Y-32172977D02*
X-10185422Y-32174047D01*
X-10185422Y-32174047D02*
X-10186473Y-32175149D01*
X-10186473Y-32175149D02*
X-10187509Y-32176283D01*
X-10187509Y-32176283D02*
X-10188529Y-32177450D01*
X-10188529Y-32177450D02*
X-10189533Y-32178649D01*
X-10189533Y-32178649D02*
X-10190522Y-32179880D01*
X-10190522Y-32179880D02*
X-10191495Y-32181145D01*
X-10191495Y-32181145D02*
X-10192452Y-32182442D01*
X-10192452Y-32182442D02*
X-10193394Y-32183772D01*
X-10193394Y-32183772D02*
X-10194320Y-32185135D01*
X-10194320Y-32185135D02*
X-10195231Y-32186532D01*
X-10195231Y-32186532D02*
X-10196126Y-32187961D01*
X-10196126Y-32187961D02*
X-10197005Y-32189424D01*
X-10197005Y-32189424D02*
X-10198717Y-32192451D01*
X-10198717Y-32192451D02*
X-10200366Y-32195614D01*
X-10200366Y-32195614D02*
X-10201952Y-32198912D01*
X-10201952Y-32198912D02*
X-10203475Y-32202347D01*
X-10203475Y-32202347D02*
X-10204935Y-32205920D01*
X-10204935Y-32205920D02*
X-10206332Y-32209631D01*
X-10206332Y-32209631D02*
X-10207667Y-32213483D01*
X-10207667Y-32213483D02*
X-10208938Y-32217475D01*
X-10208938Y-32217475D02*
X-10210146Y-32221609D01*
X-10210146Y-32221609D02*
X-10211290Y-32225886D01*
X-10211290Y-32225886D02*
X-10212371Y-32230306D01*
X-10212371Y-32230306D02*
X-10213389Y-32234870D01*
X-10213389Y-32234870D02*
X-10214344Y-32239580D01*
X-10214344Y-32239580D02*
X-10215235Y-32244436D01*
X-10215235Y-32244436D02*
X-10216062Y-32249440D01*
X-10216062Y-32249440D02*
X-10217526Y-32259892D01*
X-10217526Y-32259892D02*
X-10218735Y-32270945D01*
X-10218735Y-32270945D02*
X-10219688Y-32282605D01*
X-10219688Y-32282605D02*
X-10220386Y-32294878D01*
X-10220386Y-32294878D02*
X-10220835Y-32307754D01*
X-10220835Y-32307754D02*
X-10221040Y-32321223D01*
X-10221040Y-32321223D02*
X-10221008Y-32335273D01*
X-10221008Y-32335273D02*
X-10220257Y-32365068D01*
X-10220257Y-32365068D02*
X-10218632Y-32397049D01*
X-10218632Y-32397049D02*
X-10212965Y-32467199D01*
X-10212965Y-32467199D02*
X-10204408Y-32544987D01*
X-10204408Y-32544987D02*
X-10180235Y-32720536D01*
X-10180235Y-32720536D02*
X-10048482Y-33581182D01*
X-10048482Y-33581182D02*
X-10022882Y-33806540D01*
X-10022882Y-33806540D02*
X-10013398Y-33916790D01*
X-10013398Y-33916790D02*
X-10006660Y-34024902D01*
X-10006660Y-34024902D02*
X-10003072Y-34130660D01*
X-10003072Y-34130660D02*
X-10002584Y-34182589D01*
X-10002584Y-34182589D02*
X-10003036Y-34233848D01*
X-10003036Y-34233848D02*
X-10004476Y-34284411D01*
X-10004476Y-34284411D02*
X-10006955Y-34334250D01*
X-10006955Y-34334250D02*
X-10010524Y-34383338D01*
X-10010524Y-34383338D02*
X-10015232Y-34431649D01*
X-10015232Y-34431649D02*
X-10021131Y-34479155D01*
X-10021131Y-34479155D02*
X-10028270Y-34525829D01*
X-10028270Y-34525829D02*
X-10036700Y-34571645D01*
X-10036700Y-34571645D02*
X-10046471Y-34616575D01*
X-10046471Y-34616575D02*
X-10051875Y-34638700D01*
X-10051875Y-34638700D02*
X-10057633Y-34660593D01*
X-10057633Y-34660593D02*
X-10063752Y-34682251D01*
X-10063752Y-34682251D02*
X-10070238Y-34703670D01*
X-10070238Y-34703670D02*
X-10077096Y-34724848D01*
X-10077096Y-34724848D02*
X-10084334Y-34745781D01*
X-10084334Y-34745781D02*
X-10091958Y-34766466D01*
X-10091958Y-34766466D02*
X-10099973Y-34786899D01*
X-10099973Y-34786899D02*
X-10108387Y-34807076D01*
X-10108387Y-34807076D02*
X-10117205Y-34826995D01*
X-10117205Y-34826995D02*
X-10126434Y-34846652D01*
X-10126434Y-34846652D02*
X-10136080Y-34866044D01*
X-10136080Y-34866044D02*
X-10146150Y-34885167D01*
X-10146150Y-34885167D02*
X-10156649Y-34904018D01*
X-10156649Y-34904018D02*
X-10167584Y-34922594D01*
X-10167584Y-34922594D02*
X-10178961Y-34940890D01*
X-10178961Y-34940890D02*
X-10190787Y-34958905D01*
X-10190787Y-34958905D02*
X-10203068Y-34976634D01*
X-10203068Y-34976634D02*
X-10215810Y-34994074D01*
X-10215810Y-34994074D02*
X-10229019Y-35011221D01*
X-10229019Y-35011221D02*
X-10242702Y-35028073D01*
X-10242702Y-35028073D02*
X-10256865Y-35044626D01*
X-10256865Y-35044626D02*
X-10271515Y-35060877D01*
X-10271515Y-35060877D02*
X-10286657Y-35076821D01*
X-10286657Y-35076821D02*
X-10302297Y-35092457D01*
X-10302297Y-35092457D02*
X-10318443Y-35107779D01*
X-10318443Y-35107779D02*
X-10335101Y-35122786D01*
X-10335101Y-35122786D02*
X-10352276Y-35137474D01*
X-10352276Y-35137474D02*
X-10369976Y-35151838D01*
X-10369976Y-35151838D02*
X-10388205Y-35165877D01*
X-10388205Y-35165877D02*
X-10406972Y-35179586D01*
X-10406972Y-35179586D02*
X-10426281Y-35192963D01*
X-10426281Y-35192963D02*
X-10446134Y-35206004D01*
X-10446134Y-35206004D02*
X-10466508Y-35218713D01*
X-10466508Y-35218713D02*
X-10487376Y-35231092D01*
X-10487376Y-35231092D02*
X-10508710Y-35243146D01*
X-10508710Y-35243146D02*
X-10530483Y-35254879D01*
X-10530483Y-35254879D02*
X-10552666Y-35266293D01*
X-10552666Y-35266293D02*
X-10598153Y-35288180D01*
X-10598153Y-35288180D02*
X-10644950Y-35308837D01*
X-10644950Y-35308837D02*
X-10692835Y-35328292D01*
X-10692835Y-35328292D02*
X-10741587Y-35346574D01*
X-10741587Y-35346574D02*
X-10790983Y-35363712D01*
X-10790983Y-35363712D02*
X-10840802Y-35379735D01*
X-10840802Y-35379735D02*
X-10890822Y-35394670D01*
X-10890822Y-35394670D02*
X-10940821Y-35408547D01*
X-10940821Y-35408547D02*
X-10990577Y-35421394D01*
X-10990577Y-35421394D02*
X-11088475Y-35444114D01*
X-11088475Y-35444114D02*
X-11180333Y-35462575D01*
X-11180333Y-35462575D02*
X-11038714Y-35454570D01*
X-11038714Y-35454570D02*
X-10801045Y-35448664D01*
X-10801045Y-35448664D02*
X-10676242Y-35448974D01*
X-10676242Y-35448974D02*
X-10549615Y-35451995D01*
X-10549615Y-35451995D02*
X-10422780Y-35458130D01*
X-10422780Y-35458130D02*
X-10297352Y-35467780D01*
X-10297352Y-35467780D02*
X-10235671Y-35474050D01*
X-10235671Y-35474050D02*
X-10174948Y-35481349D01*
X-10174948Y-35481349D02*
X-10115384Y-35489728D01*
X-10115384Y-35489728D02*
X-10057183Y-35499237D01*
X-10057183Y-35499237D02*
X-10000514Y-35509918D01*
X-10000514Y-35509918D02*
X-9945429Y-35521774D01*
X-9945429Y-35521774D02*
X-9891945Y-35534801D01*
X-9891945Y-35534801D02*
X-9840083Y-35548993D01*
X-9840083Y-35548993D02*
X-9789861Y-35564345D01*
X-9789861Y-35564345D02*
X-9741298Y-35580853D01*
X-9741298Y-35580853D02*
X-9694413Y-35598512D01*
X-9694413Y-35598512D02*
X-9671606Y-35607771D01*
X-9671606Y-35607771D02*
X-9649226Y-35617316D01*
X-9649226Y-35617316D02*
X-9627275Y-35627146D01*
X-9627275Y-35627146D02*
X-9605755Y-35637261D01*
X-9605755Y-35637261D02*
X-9584670Y-35647659D01*
X-9584670Y-35647659D02*
X-9564021Y-35658341D01*
X-9564021Y-35658341D02*
X-9543810Y-35669305D01*
X-9543810Y-35669305D02*
X-9524040Y-35680551D01*
X-9524040Y-35680551D02*
X-9504714Y-35692079D01*
X-9504714Y-35692079D02*
X-9485834Y-35703887D01*
X-9485834Y-35703887D02*
X-9467402Y-35715976D01*
X-9467402Y-35715976D02*
X-9449421Y-35728344D01*
X-9449421Y-35728344D02*
X-9431893Y-35740991D01*
X-9431893Y-35740991D02*
X-9414820Y-35753916D01*
X-9414820Y-35753916D02*
X-9398205Y-35767118D01*
X-9398205Y-35767118D02*
X-9382050Y-35780598D01*
X-9382050Y-35780598D02*
X-9366357Y-35794354D01*
X-9366357Y-35794354D02*
X-9351130Y-35808386D01*
X-9351130Y-35808386D02*
X-9336370Y-35822692D01*
X-9336370Y-35822692D02*
X-9322080Y-35837274D01*
X-9322080Y-35837274D02*
X-9308261Y-35852129D01*
X-9308261Y-35852129D02*
X-9294918Y-35867257D01*
X-9294918Y-35867257D02*
X-9282051Y-35882658D01*
X-9282051Y-35882658D02*
X-9269663Y-35898331D01*
X-9269663Y-35898331D02*
X-9257757Y-35914276D01*
X-9257757Y-35914276D02*
X-9246335Y-35930491D01*
X-9246335Y-35930491D02*
X-9235400Y-35946976D01*
X-9235400Y-35946976D02*
X-9224954Y-35963731D01*
X-9224954Y-35963731D02*
X-9214998Y-35980754D01*
X-9214998Y-35980754D02*
X-9205536Y-35998046D01*
X-9205536Y-35998046D02*
X-9196571Y-36015605D01*
X-9196571Y-36015605D02*
X-9188103Y-36033431D01*
X-9188103Y-36033431D02*
X-9180137Y-36051524D01*
X-9180137Y-36051524D02*
X-9172673Y-36069882D01*
X-9172673Y-36069882D02*
X-9165715Y-36088506D01*
X-9165715Y-36088506D02*
X-9159265Y-36107394D01*
X-9159265Y-36107394D02*
X-9153326Y-36126546D01*
X-9153326Y-36126546D02*
X-9147899Y-36145960D01*
X-9147899Y-36145960D02*
X-9142987Y-36165638D01*
X-9142987Y-36165638D02*
X-9138592Y-36185578D01*
X-9138592Y-36185578D02*
X-9134718Y-36205778D01*
X-9134718Y-36205778D02*
X-9131365Y-36226240D01*
X-9131365Y-36226240D02*
X-9128538Y-36246962D01*
X-9128538Y-36246962D02*
X-9126237Y-36267943D01*
X-9126237Y-36267943D02*
X-9124466Y-36289183D01*
X-9124466Y-36289183D02*
X-9123227Y-36310681D01*
X-9123227Y-36310681D02*
X-9122521Y-36332437D01*
X-9122521Y-36332437D02*
X-9122353Y-36354450D01*
X-9122353Y-36354450D02*
X-9122723Y-36376719D01*
X-9122723Y-36376719D02*
X-9123635Y-36399243D01*
X-9123635Y-36399243D02*
X-9125086Y-36422021D01*
X-9125086Y-36422021D02*
X-9127060Y-36445037D01*
X-9127060Y-36445037D02*
X-9129534Y-36468277D01*
X-9129534Y-36468277D02*
X-9132487Y-36491724D01*
X-9132487Y-36491724D02*
X-9139745Y-36539177D01*
X-9139745Y-36539177D02*
X-9148661Y-36587268D01*
X-9148661Y-36587268D02*
X-9159063Y-36635871D01*
X-9159063Y-36635871D02*
X-9170779Y-36684859D01*
X-9170779Y-36684859D02*
X-9183635Y-36734103D01*
X-9183635Y-36734103D02*
X-9197461Y-36783477D01*
X-9197461Y-36783477D02*
X-9227329Y-36882105D01*
X-9227329Y-36882105D02*
X-9351099Y-37256365D01*
X-9351099Y-37256365D02*
X-9376224Y-37339777D01*
X-9376224Y-37339777D02*
X-9386967Y-37379261D01*
X-9386967Y-37379261D02*
X-9396266Y-37417094D01*
X-9396266Y-37417094D02*
X-9403949Y-37453147D01*
X-9403949Y-37453147D02*
X-9407131Y-37470468D01*
X-9407131Y-37470468D02*
X-9409845Y-37487296D01*
X-9409845Y-37487296D02*
X-9412068Y-37503615D01*
X-9412068Y-37503615D02*
X-9413780Y-37519411D01*
X-9413780Y-37519411D02*
X-9414959Y-37534666D01*
X-9414959Y-37534666D02*
X-9415342Y-37542086D01*
X-9415342Y-37542086D02*
X-9415584Y-37549366D01*
X-9415584Y-37549366D02*
X-9415681Y-37556502D01*
X-9415681Y-37556502D02*
X-9415632Y-37563493D01*
X-9415632Y-37563493D02*
X-9415433Y-37570338D01*
X-9415433Y-37570338D02*
X-9415082Y-37577033D01*
X-9415082Y-37577033D02*
X-9414576Y-37583577D01*
X-9414576Y-37583577D02*
X-9413913Y-37589969D01*
X-9413913Y-37589969D02*
X-9413090Y-37596206D01*
X-9413090Y-37596206D02*
X-9412104Y-37602286D01*
X-9412104Y-37602286D02*
X-9410952Y-37608207D01*
X-9410952Y-37608207D02*
X-9409632Y-37613967D01*
X-9409632Y-37613967D02*
X-9408908Y-37616786D01*
X-9408908Y-37616786D02*
X-9408140Y-37619564D01*
X-9408140Y-37619564D02*
X-9407330Y-37622301D01*
X-9407330Y-37622301D02*
X-9406476Y-37624997D01*
X-9406476Y-37624997D02*
X-9405577Y-37627650D01*
X-9405577Y-37627650D02*
X-9404635Y-37630262D01*
X-9404635Y-37630262D02*
X-9403647Y-37632832D01*
X-9403647Y-37632832D02*
X-9402615Y-37635359D01*
X-9402615Y-37635359D02*
X-9401536Y-37637844D01*
X-9401536Y-37637844D02*
X-9400413Y-37640285D01*
X-9400413Y-37640285D02*
X-9399243Y-37642683D01*
X-9399243Y-37642683D02*
X-9398026Y-37645038D01*
X-9398026Y-37645038D02*
X-9396763Y-37647350D01*
X-9396763Y-37647350D02*
X-9395453Y-37649617D01*
X-9395453Y-37649617D02*
X-9394095Y-37651840D01*
X-9394095Y-37651840D02*
X-9392690Y-37654019D01*
X-9392690Y-37654019D02*
X-9391236Y-37656153D01*
X-9391236Y-37656153D02*
X-9389734Y-37658242D01*
X-9389734Y-37658242D02*
X-9388183Y-37660285D01*
X-9388183Y-37660285D02*
X-9386583Y-37662284D01*
X-9386583Y-37662284D02*
X-9384934Y-37664237D01*
X-9384934Y-37664237D02*
X-9383234Y-37666143D01*
X-9383234Y-37666143D02*
X-9381485Y-37668004D01*
X-9381485Y-37668004D02*
X-9379685Y-37669818D01*
X-9379685Y-37669818D02*
X-9377834Y-37671586D01*
X-9377834Y-37671586D02*
X-9375932Y-37673306D01*
X-9375932Y-37673306D02*
X-9373979Y-37674980D01*
X-9373979Y-37674980D02*
X-9371974Y-37676606D01*
X-9371974Y-37676606D02*
X-9369916Y-37678184D01*
X-9369916Y-37678184D02*
X-9367807Y-37679715D01*
X-9367807Y-37679715D02*
X-9365647Y-37681200D01*
X-9365647Y-37681200D02*
X-9363435Y-37682637D01*
X-9363435Y-37682637D02*
X-9361173Y-37684029D01*
X-9361173Y-37684029D02*
X-9358860Y-37685375D01*
X-9358860Y-37685375D02*
X-9356496Y-37686675D01*
X-9356496Y-37686675D02*
X-9354083Y-37687931D01*
X-9354083Y-37687931D02*
X-9351621Y-37689142D01*
X-9351621Y-37689142D02*
X-9349110Y-37690309D01*
X-9349110Y-37690309D02*
X-9346549Y-37691432D01*
X-9346549Y-37691432D02*
X-9343941Y-37692511D01*
X-9343941Y-37692511D02*
X-9341284Y-37693548D01*
X-9341284Y-37693548D02*
X-9338579Y-37694542D01*
X-9338579Y-37694542D02*
X-9335828Y-37695493D01*
X-9335828Y-37695493D02*
X-9333029Y-37696403D01*
X-9333029Y-37696403D02*
X-9330183Y-37697271D01*
X-9330183Y-37697271D02*
X-9327291Y-37698099D01*
X-9327291Y-37698099D02*
X-9321369Y-37699631D01*
X-9321369Y-37699631D02*
X-9315265Y-37701004D01*
X-9315265Y-37701004D02*
X-9308983Y-37702220D01*
X-9308983Y-37702220D02*
X-9302524Y-37703283D01*
X-9302524Y-37703283D02*
X-9295892Y-37704195D01*
X-9295892Y-37704195D02*
X-9289090Y-37704959D01*
X-9289090Y-37704959D02*
X-9282119Y-37705579D01*
X-9282119Y-37705579D02*
X-9274984Y-37706058D01*
X-9274984Y-37706058D02*
X-9267686Y-37706399D01*
X-9267686Y-37706399D02*
X-9260228Y-37706605D01*
X-9260228Y-37706605D02*
X-9252613Y-37706679D01*
X-9252613Y-37706679D02*
X-9236922Y-37706443D01*
X-9236922Y-37706443D02*
X-9220636Y-37705717D01*
X-9220636Y-37705717D02*
X-9203776Y-37704524D01*
X-9203776Y-37704524D02*
X-9186363Y-37702890D01*
X-9186363Y-37702890D02*
X-9168420Y-37700839D01*
X-9168420Y-37700839D02*
X-9149968Y-37698396D01*
X-9149968Y-37698396D02*
X-9111625Y-37692434D01*
X-9111625Y-37692434D02*
X-9071506Y-37685201D01*
X-9071506Y-37685201D02*
X-8707509Y-37605305D01*
X-8707509Y-37605305D02*
X-8610922Y-37586462D01*
X-8610922Y-37586462D02*
X-8562746Y-37578298D01*
X-8562746Y-37578298D02*
X-8514879Y-37571236D01*
X-8514879Y-37571236D02*
X-8467496Y-37565474D01*
X-8467496Y-37565474D02*
X-8420771Y-37561208D01*
X-8420771Y-37561208D02*
X-8397709Y-37559699D01*
X-8397709Y-37559699D02*
X-8374876Y-37558638D01*
X-8374876Y-37558638D02*
X-8352295Y-37558051D01*
X-8352295Y-37558051D02*
X-8329987Y-37557961D01*
X-8329987Y-37557961D02*
X-8307973Y-37558394D01*
X-8307973Y-37558394D02*
X-8286276Y-37559374D01*
X-8286276Y-37559374D02*
X-8264916Y-37560926D01*
X-8264916Y-37560926D02*
X-8243917Y-37563076D01*
X-8243917Y-37563076D02*
X-8223299Y-37565846D01*
X-8223299Y-37565846D02*
X-8213139Y-37567472D01*
X-8213139Y-37567472D02*
X-8203084Y-37569263D01*
X-8203084Y-37569263D02*
X-8193134Y-37571222D01*
X-8193134Y-37571222D02*
X-8183294Y-37573351D01*
X-8183294Y-37573351D02*
X-8173565Y-37575654D01*
X-8173565Y-37575654D02*
X-8163951Y-37578135D01*
X-8163951Y-37578135D02*
X-8154453Y-37580795D01*
X-8154453Y-37580795D02*
X-8145076Y-37583638D01*
X-8145076Y-37583638D02*
X-8135821Y-37586668D01*
X-8135821Y-37586668D02*
X-8126691Y-37589887D01*
X-8126691Y-37589887D02*
X-8117689Y-37593299D01*
X-8117689Y-37593299D02*
X-8108818Y-37596906D01*
X-8108818Y-37596906D02*
X-8100080Y-37600712D01*
X-8100080Y-37600712D02*
X-8091478Y-37604720D01*
X-8091478Y-37604720D02*
X-8083014Y-37608931D01*
X-8083014Y-37608931D02*
X-8074688Y-37613345D01*
X-8074688Y-37613345D02*
X-8066499Y-37617960D01*
X-8066499Y-37617960D02*
X-8058444Y-37622774D01*
X-8058444Y-37622774D02*
X-8050524Y-37627784D01*
X-8050524Y-37627784D02*
X-8042736Y-37632988D01*
X-8042736Y-37632988D02*
X-8035080Y-37638385D01*
X-8035080Y-37638385D02*
X-8027553Y-37643972D01*
X-8027553Y-37643972D02*
X-8020156Y-37649748D01*
X-8020156Y-37649748D02*
X-8012887Y-37655709D01*
X-8012887Y-37655709D02*
X-8005745Y-37661855D01*
X-8005745Y-37661855D02*
X-7998727Y-37668183D01*
X-7998727Y-37668183D02*
X-7991834Y-37674690D01*
X-7991834Y-37674690D02*
X-7985064Y-37681376D01*
X-7985064Y-37681376D02*
X-7978416Y-37688237D01*
X-7978416Y-37688237D02*
X-7971888Y-37695272D01*
X-7971888Y-37695272D02*
X-7965479Y-37702478D01*
X-7965479Y-37702478D02*
X-7959189Y-37709855D01*
X-7959189Y-37709855D02*
X-7953015Y-37717398D01*
X-7953015Y-37717398D02*
X-7946957Y-37725107D01*
X-7946957Y-37725107D02*
X-7941014Y-37732980D01*
X-7941014Y-37732980D02*
X-7935183Y-37741013D01*
X-7935183Y-37741013D02*
X-7929465Y-37749206D01*
X-7929465Y-37749206D02*
X-7923857Y-37757556D01*
X-7923857Y-37757556D02*
X-7912969Y-37774720D01*
X-7912969Y-37774720D02*
X-7902510Y-37792486D01*
X-7902510Y-37792486D02*
X-7892469Y-37810840D01*
X-7892469Y-37810840D02*
X-7882837Y-37829765D01*
X-7882837Y-37829765D02*
X-7873604Y-37849243D01*
X-7873604Y-37849243D02*
X-7864761Y-37869258D01*
X-7864761Y-37869258D02*
X-7856297Y-37889795D01*
X-7856297Y-37889795D02*
X-7848203Y-37910835D01*
X-7848203Y-37910835D02*
X-7840469Y-37932363D01*
X-7840469Y-37932363D02*
X-7833085Y-37954362D01*
X-7833085Y-37954362D02*
X-7826042Y-37976815D01*
X-7826042Y-37976815D02*
X-7819330Y-37999706D01*
X-7819330Y-37999706D02*
X-7806859Y-38046735D01*
X-7806859Y-38046735D02*
X-7795595Y-38095317D01*
X-7795595Y-38095317D02*
X-7785459Y-38145317D01*
X-7785459Y-38145317D02*
X-7776372Y-38196605D01*
X-7776372Y-38196605D02*
X-7768258Y-38249046D01*
X-7768258Y-38249046D02*
X-7761039Y-38302509D01*
X-7761039Y-38302509D02*
X-7748969Y-38411968D01*
X-7748969Y-38411968D02*
X-7739539Y-38523921D01*
X-7739539Y-38523921D02*
X-7696053Y-39290275D01*
X-7696053Y-39290275D02*
X-7606602Y-40220790D01*
X-7606602Y-40220790D02*
X-7594368Y-40412915D01*
X-7594368Y-40412915D02*
X-7581874Y-41597359D01*
X-7581874Y-41597359D02*
X-7575974Y-41696351D01*
X-7575974Y-41696351D02*
X-7572075Y-41743922D01*
X-7572075Y-41743922D02*
X-7567472Y-41790062D01*
X-7567472Y-41790062D02*
X-7562114Y-41834659D01*
X-7562114Y-41834659D02*
X-7555948Y-41877602D01*
X-7555948Y-41877602D02*
X-7548921Y-41918779D01*
X-7548921Y-41918779D02*
X-7540981Y-41958079D01*
X-7540981Y-41958079D02*
X-7536652Y-41976990D01*
X-7536652Y-41976990D02*
X-7532075Y-41995390D01*
X-7532075Y-41995390D02*
X-7527243Y-42013266D01*
X-7527243Y-42013266D02*
X-7522151Y-42030602D01*
X-7522151Y-42030602D02*
X-7516791Y-42047386D01*
X-7516791Y-42047386D02*
X-7511156Y-42063603D01*
X-7511156Y-42063603D02*
X-7505241Y-42079239D01*
X-7505241Y-42079239D02*
X-7499038Y-42094281D01*
X-7499038Y-42094281D02*
X-7492542Y-42108714D01*
X-7492542Y-42108714D02*
X-7489181Y-42115698D01*
X-7489181Y-42115698D02*
X-7485745Y-42122525D01*
X-7485745Y-42122525D02*
X-7482232Y-42129193D01*
X-7482232Y-42129193D02*
X-7478641Y-42135700D01*
X-7478641Y-42135700D02*
X-7474972Y-42142044D01*
X-7474972Y-42142044D02*
X-7471223Y-42148224D01*
X-7471223Y-42148224D02*
X-7467395Y-42154238D01*
X-7467395Y-42154238D02*
X-7463488Y-42160088D01*
X-7463488Y-42160088D02*
X-7459501Y-42165773D01*
X-7459501Y-42165773D02*
X-7455438Y-42171295D01*
X-7455438Y-42171295D02*
X-7451296Y-42176654D01*
X-7451296Y-42176654D02*
X-7447079Y-42181852D01*
X-7447079Y-42181852D02*
X-7442786Y-42186889D01*
X-7442786Y-42186889D02*
X-7438418Y-42191767D01*
X-7438418Y-42191767D02*
X-7433976Y-42196485D01*
X-7433976Y-42196485D02*
X-7429461Y-42201046D01*
X-7429461Y-42201046D02*
X-7424873Y-42205450D01*
X-7424873Y-42205450D02*
X-7420213Y-42209698D01*
X-7420213Y-42209698D02*
X-7415482Y-42213790D01*
X-7415482Y-42213790D02*
X-7410681Y-42217729D01*
X-7410681Y-42217729D02*
X-7405809Y-42221514D01*
X-7405809Y-42221514D02*
X-7400869Y-42225146D01*
X-7400869Y-42225146D02*
X-7395861Y-42228627D01*
X-7395861Y-42228627D02*
X-7390785Y-42231958D01*
X-7390785Y-42231958D02*
X-7385643Y-42235138D01*
X-7385643Y-42235138D02*
X-7380434Y-42238170D01*
X-7380434Y-42238170D02*
X-7375160Y-42241054D01*
X-7375160Y-42241054D02*
X-7369822Y-42243791D01*
X-7369822Y-42243791D02*
X-7364420Y-42246381D01*
X-7364420Y-42246381D02*
X-7358955Y-42248827D01*
X-7358955Y-42248827D02*
X-7353427Y-42251128D01*
X-7353427Y-42251128D02*
X-7347838Y-42253286D01*
X-7347838Y-42253286D02*
X-7342189Y-42255301D01*
X-7342189Y-42255301D02*
X-7336479Y-42257174D01*
X-7336479Y-42257174D02*
X-7330710Y-42258907D01*
X-7330710Y-42258907D02*
X-7324882Y-42260500D01*
X-7324882Y-42260500D02*
X-7318996Y-42261955D01*
X-7318996Y-42261955D02*
X-7313054Y-42263271D01*
X-7313054Y-42263271D02*
X-7307055Y-42264450D01*
X-7307055Y-42264450D02*
X-7301000Y-42265493D01*
X-7301000Y-42265493D02*
X-7294890Y-42266401D01*
X-7294890Y-42266401D02*
X-7288726Y-42267175D01*
X-7288726Y-42267175D02*
X-7282509Y-42267815D01*
X-7282509Y-42267815D02*
X-7276239Y-42268322D01*
X-7276239Y-42268322D02*
X-7269918Y-42268698D01*
X-7269918Y-42268698D02*
X-7263545Y-42268943D01*
X-7263545Y-42268943D02*
X-7257121Y-42269058D01*
X-7257121Y-42269058D02*
X-7250648Y-42269045D01*
X-7250648Y-42269045D02*
X-7244126Y-42268903D01*
X-7244126Y-42268903D02*
X-7237556Y-42268634D01*
X-7237556Y-42268634D02*
X-7230938Y-42268240D01*
X-7230938Y-42268240D02*
X-7224273Y-42267719D01*
X-7224273Y-42267719D02*
X-7210806Y-42266306D01*
X-7210806Y-42266306D02*
X-7197162Y-42264403D01*
X-7197162Y-42264403D02*
X-7183345Y-42262017D01*
X-7183345Y-42262017D02*
X-7169362Y-42259155D01*
X-7169362Y-42259155D02*
X-7155218Y-42255824D01*
X-7155218Y-42255824D02*
X-7140920Y-42252032D01*
X-7140920Y-42252032D02*
X-7126473Y-42247786D01*
X-7126473Y-42247786D02*
X-7111884Y-42243093D01*
X-7111884Y-42243093D02*
X-7097158Y-42237961D01*
X-7097158Y-42237961D02*
X-7082301Y-42232396D01*
X-7082301Y-42232396D02*
X-7067319Y-42226405D01*
X-7067319Y-42226405D02*
X-7052218Y-42219997D01*
X-7052218Y-42219997D02*
X-7037004Y-42213179D01*
X-7037004Y-42213179D02*
X-7021683Y-42205956D01*
X-7021683Y-42205956D02*
X-7006261Y-42198338D01*
X-7006261Y-42198338D02*
X-6975137Y-42181942D01*
X-6975137Y-42181942D02*
X-6943679Y-42164048D01*
X-6943679Y-42164048D02*
X-6911934Y-42144714D01*
X-6911934Y-42144714D02*
X-6879950Y-42123998D01*
X-6879950Y-42123998D02*
X-6847774Y-42101958D01*
X-6847774Y-42101958D02*
X-6815454Y-42078652D01*
X-6815454Y-42078652D02*
X-6783037Y-42054138D01*
X-6783037Y-42054138D02*
X-6750570Y-42028474D01*
X-6750570Y-42028474D02*
X-6718100Y-42001718D01*
X-6718100Y-42001718D02*
X-6685675Y-41973927D01*
X-6685675Y-41973927D02*
X-6653343Y-41945160D01*
X-6653343Y-41945160D02*
X-6589144Y-41884929D01*
X-6589144Y-41884929D02*
X-6525821Y-41821448D01*
X-6525821Y-41821448D02*
X-6463450Y-41754980D01*
X-6463450Y-41754980D02*
X-6402045Y-41685751D01*
X-6402045Y-41685751D02*
X-6341620Y-41613984D01*
X-6341620Y-41613984D02*
X-6282190Y-41539903D01*
X-6282190Y-41539903D02*
X-6223770Y-41463732D01*
X-6223770Y-41463732D02*
X-6166373Y-41385696D01*
X-6166373Y-41385696D02*
X-6110015Y-41306018D01*
X-6110015Y-41306018D02*
X-6000471Y-41142633D01*
X-6000471Y-41142633D02*
X-5895254Y-40975371D01*
X-5895254Y-40975371D02*
X-5794480Y-40806023D01*
X-5794480Y-40806023D02*
X-5698265Y-40636383D01*
X-5698265Y-40636383D02*
X-5518113Y-40300112D01*
X-5518113Y-40300112D02*
X-4987476Y-39273765D01*
X-4987476Y-39273765D02*
X-4887144Y-39094115D01*
X-4887144Y-39094115D02*
X-4834700Y-39004493D01*
X-4834700Y-39004493D02*
X-4780635Y-38915886D01*
X-4780635Y-38915886D02*
X-4724873Y-38828954D01*
X-4724873Y-38828954D02*
X-4667336Y-38744354D01*
X-4667336Y-38744354D02*
X-4607949Y-38662748D01*
X-4607949Y-38662748D02*
X-4577537Y-38623273D01*
X-4577537Y-38623273D02*
X-4546633Y-38584793D01*
X-4546633Y-38584793D02*
X-4515229Y-38547392D01*
X-4515229Y-38547392D02*
X-4483314Y-38511150D01*
X-4483314Y-38511150D02*
X-4450878Y-38476152D01*
X-4450878Y-38476152D02*
X-4417912Y-38442478D01*
X-4417912Y-38442478D02*
X-4384407Y-38410213D01*
X-4384407Y-38410213D02*
X-4350353Y-38379437D01*
X-4350353Y-38379437D02*
X-4333117Y-38364633D01*
X-4333117Y-38364633D02*
X-4315741Y-38350233D01*
X-4315741Y-38350233D02*
X-4298222Y-38336247D01*
X-4298222Y-38336247D02*
X-4280559Y-38322684D01*
X-4280559Y-38322684D02*
X-4262753Y-38309556D01*
X-4262753Y-38309556D02*
X-4244801Y-38296873D01*
X-4244801Y-38296873D02*
X-4226701Y-38284644D01*
X-4226701Y-38284644D02*
X-4208454Y-38272881D01*
X-4208454Y-38272881D02*
X-4190058Y-38261593D01*
X-4190058Y-38261593D02*
X-4171511Y-38250791D01*
X-4171511Y-38250791D02*
X-4152812Y-38240485D01*
X-4152812Y-38240485D02*
X-4133961Y-38230686D01*
X-4133961Y-38230686D02*
X-4114955Y-38221403D01*
X-4114955Y-38221403D02*
X-4095794Y-38212647D01*
X-4095794Y-38212647D02*
X-4076477Y-38204429D01*
X-4076477Y-38204429D02*
X-4057002Y-38196758D01*
X-4057002Y-38196758D02*
X-4037368Y-38189646D01*
X-4037368Y-38189646D02*
X-4017574Y-38183101D01*
X-4017574Y-38183101D02*
X-3997619Y-38177135D01*
X-3997619Y-38177135D02*
X-3977502Y-38171758D01*
X-3977502Y-38171758D02*
X-3957222Y-38166976D01*
X-3957222Y-38166976D02*
X-3936783Y-38162785D01*
X-3936783Y-38162785D02*
X-3916190Y-38159173D01*
X-3916190Y-38159173D02*
X-3895449Y-38156131D01*
X-3895449Y-38156131D02*
X-3874564Y-38153650D01*
X-3874564Y-38153650D02*
X-3853540Y-38151719D01*
X-3853540Y-38151719D02*
X-3832383Y-38150331D01*
X-3832383Y-38150331D02*
X-3811096Y-38149473D01*
X-3811096Y-38149473D02*
X-3789686Y-38149138D01*
X-3789686Y-38149138D02*
X-3768157Y-38149315D01*
X-3768157Y-38149315D02*
X-3746515Y-38149995D01*
X-3746515Y-38149995D02*
X-3724763Y-38151168D01*
X-3724763Y-38151168D02*
X-3702908Y-38152825D01*
X-3702908Y-38152825D02*
X-3680953Y-38154955D01*
X-3680953Y-38154955D02*
X-3658905Y-38157550D01*
X-3658905Y-38157550D02*
X-3636768Y-38160599D01*
X-3636768Y-38160599D02*
X-3614547Y-38164093D01*
X-3614547Y-38164093D02*
X-3592246Y-38168022D01*
X-3592246Y-38168022D02*
X-3547429Y-38177148D01*
X-3547429Y-38177148D02*
X-3502356Y-38187899D01*
X-3502356Y-38187899D02*
X-3457066Y-38200199D01*
X-3457066Y-38200199D02*
X-3411600Y-38213970D01*
X-3411600Y-38213970D02*
X-3365997Y-38229135D01*
X-3365997Y-38229135D02*
X-3320298Y-38245617D01*
X-3320298Y-38245617D02*
X-3274542Y-38263339D01*
X-3274542Y-38263339D02*
X-3228769Y-38282223D01*
X-3228769Y-38282223D02*
X-3183019Y-38302194D01*
X-3183019Y-38302194D02*
X-3137331Y-38323172D01*
X-3137331Y-38323172D02*
X-3091746Y-38345083D01*
X-3091746Y-38345083D02*
X-3001043Y-38391389D01*
X-3001043Y-38391389D02*
X-2911228Y-38440496D01*
X-2911228Y-38440496D02*
X-2822621Y-38491786D01*
X-2822621Y-38491786D02*
X-2735539Y-38544643D01*
X-2735539Y-38544643D02*
X-2567230Y-38652589D01*
X-2567230Y-38652589D02*
X-2408103Y-38760571D01*
X-2408103Y-38760571D02*
X-2256971Y-38869526D01*
X-2256971Y-38869526D02*
X-2111900Y-38981561D01*
X-2111900Y-38981561D02*
X-2041033Y-39039392D01*
X-2041033Y-39039392D02*
X-1970956Y-39098784D01*
X-1970956Y-39098784D02*
X-1901427Y-39160000D01*
X-1901427Y-39160000D02*
X-1832205Y-39223303D01*
X-1832205Y-39223303D02*
X-1763047Y-39288958D01*
X-1763047Y-39288958D02*
X-1693712Y-39357228D01*
X-1693712Y-39357228D02*
X-1553542Y-39502666D01*
X-1553542Y-39502666D02*
X-746999Y-40442123D01*
X-746999Y-40442123D02*
X-679827Y-40515021D01*
X-679827Y-40515021D02*
X-615500Y-40581279D01*
X-615500Y-40581279D02*
X-584536Y-40611588D01*
X-584536Y-40611588D02*
X-554442Y-40639841D01*
X-554442Y-40639841D02*
X-525270Y-40665906D01*
X-525270Y-40665906D02*
X-497075Y-40689651D01*
X-497075Y-40689651D02*
X-483359Y-40700611D01*
X-483359Y-40700611D02*
X-469908Y-40710942D01*
X-469908Y-40710942D02*
X-456726Y-40720627D01*
X-456726Y-40720627D02*
X-443822Y-40729649D01*
X-443822Y-40729649D02*
X-431202Y-40737992D01*
X-431202Y-40737992D02*
X-418871Y-40745640D01*
X-418871Y-40745640D02*
X-406838Y-40752575D01*
X-406838Y-40752575D02*
X-400934Y-40755770D01*
X-400934Y-40755770D02*
X-395107Y-40758781D01*
X-395107Y-40758781D02*
X-389358Y-40761606D01*
X-389358Y-40761606D02*
X-383687Y-40764242D01*
X-383687Y-40764242D02*
X-378096Y-40766688D01*
X-378096Y-40766688D02*
X-372584Y-40768941D01*
X-372584Y-40768941D02*
X-367153Y-40771000D01*
X-367153Y-40771000D02*
X-361804Y-40772862D01*
X-361804Y-40772862D02*
X-356537Y-40774525D01*
X-356537Y-40774525D02*
X-351354Y-40775988D01*
X-351354Y-40775988D02*
X-346254Y-40777248D01*
X-346254Y-40777248D02*
X-341238Y-40778308D01*
X-341238Y-40778308D02*
X-338762Y-40778762D01*
X-338762Y-40778762D02*
X-336307Y-40779168D01*
X-336307Y-40779168D02*
X-333872Y-40779523D01*
X-333872Y-40779523D02*
X-331459Y-40779830D01*
X-331459Y-40779830D02*
X-329066Y-40780087D01*
X-329066Y-40780087D02*
X-326694Y-40780296D01*
X-326694Y-40780296D02*
X-324343Y-40780457D01*
X-324343Y-40780457D02*
X-322012Y-40780569D01*
X-322012Y-40780569D02*
X-319703Y-40780633D01*
X-319703Y-40780633D02*
X-317414Y-40780649D01*
X-317414Y-40780649D02*
X-315146Y-40780617D01*
X-315146Y-40780617D02*
X-312898Y-40780538D01*
X-312898Y-40780538D02*
X-310672Y-40780412D01*
X-310672Y-40780412D02*
X-308466Y-40780238D01*
X-308466Y-40780238D02*
X-306280Y-40780018D01*
X-306280Y-40780018D02*
X-304116Y-40779752D01*
X-304116Y-40779752D02*
X-301971Y-40779439D01*
X-301971Y-40779439D02*
X-299848Y-40779079D01*
X-299848Y-40779079D02*
X-297745Y-40778674D01*
X-297745Y-40778674D02*
X-295662Y-40778224D01*
X-295662Y-40778224D02*
X-293600Y-40777727D01*
X-293600Y-40777727D02*
X-291559Y-40777186D01*
X-291559Y-40777186D02*
X-289538Y-40776599D01*
X-289538Y-40776599D02*
X-287537Y-40775968D01*
X-287537Y-40775968D02*
X-285557Y-40775292D01*
X-285557Y-40775292D02*
X-283597Y-40774571D01*
X-283597Y-40774571D02*
X-281658Y-40773807D01*
X-281658Y-40773807D02*
X-279739Y-40772998D01*
X-279739Y-40772998D02*
X-277840Y-40772146D01*
X-277840Y-40772146D02*
X-275962Y-40771250D01*
X-275962Y-40771250D02*
X-274104Y-40770311D01*
X-274104Y-40770311D02*
X-272266Y-40769329D01*
X-272266Y-40769329D02*
X-270448Y-40768304D01*
X-270448Y-40768304D02*
X-268651Y-40767236D01*
X-268651Y-40767236D02*
X-266874Y-40766126D01*
X-266874Y-40766126D02*
X-265117Y-40764973D01*
X-265117Y-40764973D02*
X-263380Y-40763779D01*
X-263380Y-40763779D02*
X-261664Y-40762543D01*
X-261664Y-40762543D02*
X-259967Y-40761265D01*
X-259967Y-40761265D02*
X-258291Y-40759946D01*
X-258291Y-40759946D02*
X-256635Y-40758586D01*
X-256635Y-40758586D02*
X-254999Y-40757184D01*
X-254999Y-40757184D02*
X-253382Y-40755743D01*
X-253382Y-40755743D02*
X-251786Y-40754260D01*
X-251786Y-40754260D02*
X-250210Y-40752738D01*
X-250210Y-40752738D02*
X-248654Y-40751175D01*
X-248654Y-40751175D02*
X-247118Y-40749573D01*
X-247118Y-40749573D02*
X-245601Y-40747931D01*
X-245601Y-40747931D02*
X-244105Y-40746249D01*
X-244105Y-40746249D02*
X-242628Y-40744529D01*
X-242628Y-40744529D02*
X-239735Y-40740971D01*
X-239735Y-40740971D02*
X-236921Y-40737259D01*
X-236921Y-40737259D02*
X-234186Y-40733395D01*
X-234186Y-40733395D02*
X-231530Y-40729380D01*
X-231530Y-40729380D02*
X-228952Y-40725216D01*
X-228952Y-40725216D02*
X-226454Y-40720905D01*
X-226454Y-40720905D02*
X-224033Y-40716449D01*
X-224033Y-40716449D02*
X-221691Y-40711850D01*
X-221691Y-40711850D02*
X-219427Y-40707108D01*
X-219427Y-40707108D02*
X-217241Y-40702226D01*
X-217241Y-40702226D02*
X-215133Y-40697206D01*
X-215133Y-40697206D02*
X-213102Y-40692050D01*
X-213102Y-40692050D02*
X-211149Y-40686758D01*
X-211149Y-40686758D02*
X-209272Y-40681333D01*
X-209272Y-40681333D02*
X-207473Y-40675777D01*
X-207473Y-40675777D02*
X-205751Y-40670091D01*
X-205751Y-40670091D02*
X-204105Y-40664277D01*
X-204105Y-40664277D02*
X-201044Y-40652272D01*
X-201044Y-40652272D02*
X-198287Y-40639777D01*
X-198287Y-40639777D02*
X-195833Y-40626805D01*
X-195833Y-40626805D02*
X-193681Y-40613369D01*
X-193681Y-40613369D02*
X-191830Y-40599485D01*
X-191830Y-40599485D02*
X-190278Y-40585165D01*
X-190278Y-40585165D02*
X-189024Y-40570425D01*
X-189024Y-40570425D02*
X-188066Y-40555277D01*
X-188066Y-40555277D02*
X-187403Y-40539735D01*
X-187403Y-40539735D02*
X-187034Y-40523815D01*
X-187034Y-40523815D02*
X-186957Y-40507529D01*
X-186957Y-40507529D02*
X-187171Y-40490891D01*
X-187171Y-40490891D02*
X-188466Y-40456617D01*
X-188466Y-40456617D02*
X-190908Y-40421105D01*
X-190908Y-40421105D02*
X-194486Y-40384465D01*
X-194486Y-40384465D02*
X-199189Y-40346809D01*
X-199189Y-40346809D02*
X-205006Y-40308248D01*
X-205006Y-40308248D02*
X-211925Y-40268895D01*
X-211925Y-40268895D02*
X-219937Y-40228861D01*
X-219937Y-40228861D02*
X-229028Y-40188256D01*
X-229028Y-40188256D02*
X-239190Y-40147193D01*
X-239190Y-40147193D02*
X-250410Y-40105784D01*
X-250410Y-40105784D02*
X-262677Y-40064138D01*
X-262677Y-40064138D02*
X-275980Y-40022369D01*
X-275980Y-40022369D02*
X-290310Y-39980587D01*
X-290310Y-39980587D02*
X-305653Y-39938904D01*
X-305653Y-39938904D02*
X-321999Y-39897432D01*
X-321999Y-39897432D02*
X-339333Y-39856258D01*
X-339333Y-39856258D02*
X-357616Y-39815380D01*
X-357616Y-39815380D02*
X-376806Y-39774772D01*
X-376806Y-39774772D02*
X-396861Y-39734407D01*
X-396861Y-39734407D02*
X-439395Y-39654301D01*
X-439395Y-39654301D02*
X-484877Y-39574855D01*
X-484877Y-39574855D02*
X-532968Y-39495857D01*
X-532968Y-39495857D02*
X-583327Y-39417098D01*
X-583327Y-39417098D02*
X-1027064Y-38770477D01*
X-1027064Y-38770477D02*
X-1082538Y-38684435D01*
X-1082538Y-38684435D02*
X-1136880Y-38596535D01*
X-1136880Y-38596535D02*
X-1189717Y-38506674D01*
X-1189717Y-38506674D02*
X-1240539Y-38415169D01*
X-1240539Y-38415169D02*
X-1288804Y-38322447D01*
X-1288804Y-38322447D02*
X-1333971Y-38228930D01*
X-1333971Y-38228930D02*
X-1355222Y-38182007D01*
X-1355222Y-38182007D02*
X-1375495Y-38135044D01*
X-1375495Y-38135044D02*
X-1394722Y-38088095D01*
X-1394722Y-38088095D02*
X-1412835Y-38041213D01*
X-1412835Y-38041213D02*
X-1429767Y-37994451D01*
X-1429767Y-37994451D02*
X-1445449Y-37947862D01*
X-1445449Y-37947862D02*
X-1459814Y-37901499D01*
X-1459814Y-37901499D02*
X-1472794Y-37855415D01*
X-1472794Y-37855415D02*
X-1484321Y-37809663D01*
X-1484321Y-37809663D02*
X-1494327Y-37764296D01*
X-1494327Y-37764296D02*
X-1502744Y-37719368D01*
X-1502744Y-37719368D02*
X-1506336Y-37697085D01*
X-1506336Y-37697085D02*
X-1509506Y-37674931D01*
X-1509506Y-37674931D02*
X-1512244Y-37652913D01*
X-1512244Y-37652913D02*
X-1514543Y-37631038D01*
X-1514543Y-37631038D02*
X-1516394Y-37609313D01*
X-1516394Y-37609313D02*
X-1517788Y-37587743D01*
X-1517788Y-37587743D02*
X-1518718Y-37566336D01*
X-1518718Y-37566336D02*
X-1519174Y-37545098D01*
X-1519174Y-37545098D02*
X-1519148Y-37524036D01*
X-1519148Y-37524036D02*
X-1518632Y-37503157D01*
X-1518632Y-37503157D02*
X-1517617Y-37482467D01*
X-1517617Y-37482467D02*
X-1516095Y-37461973D01*
X-1516095Y-37461973D02*
X-1514057Y-37441681D01*
X-1514057Y-37441681D02*
X-1511495Y-37421598D01*
X-1511495Y-37421598D02*
X-1508399Y-37401731D01*
X-1508399Y-37401731D02*
X-1504763Y-37382086D01*
X-1504763Y-37382086D02*
X-1500577Y-37362670D01*
X-1500577Y-37362670D02*
X-1495833Y-37343490D01*
X-1495833Y-37343490D02*
X-1490522Y-37324552D01*
X-1490522Y-37324552D02*
X-1484636Y-37305863D01*
X-1484636Y-37305863D02*
X-1478167Y-37287429D01*
X-1478167Y-37287429D02*
X-1471105Y-37269258D01*
X-1471105Y-37269258D02*
X-1463443Y-37251355D01*
X-1463443Y-37251355D02*
X-1455172Y-37233727D01*
X-1455172Y-37233727D02*
X-1450806Y-37225019D01*
X-1450806Y-37225019D02*
X-1446284Y-37216382D01*
X-1446284Y-37216382D02*
X-1441605Y-37207817D01*
X-1441605Y-37207817D02*
X-1436769Y-37199325D01*
X-1436769Y-37199325D02*
X-1431775Y-37190907D01*
X-1431775Y-37190907D02*
X-1426624Y-37182562D01*
X-1426624Y-37182562D02*
X-1415856Y-37166090D01*
X-1415856Y-37166090D02*
X-1404480Y-37149906D01*
X-1404480Y-37149906D02*
X-1392508Y-37134006D01*
X-1392508Y-37134006D02*
X-1379953Y-37118386D01*
X-1379953Y-37118386D02*
X-1366827Y-37103043D01*
X-1366827Y-37103043D02*
X-1353144Y-37087971D01*
X-1353144Y-37087971D02*
X-1338916Y-37073169D01*
X-1338916Y-37073169D02*
X-1324155Y-37058631D01*
X-1324155Y-37058631D02*
X-1308876Y-37044355D01*
X-1308876Y-37044355D02*
X-1293090Y-37030335D01*
X-1293090Y-37030335D02*
X-1276810Y-37016569D01*
X-1276810Y-37016569D02*
X-1260049Y-37003053D01*
X-1260049Y-37003053D02*
X-1242820Y-36989783D01*
X-1242820Y-36989783D02*
X-1225136Y-36976755D01*
X-1225136Y-36976755D02*
X-1207010Y-36963965D01*
X-1207010Y-36963965D02*
X-1188454Y-36951410D01*
X-1188454Y-36951410D02*
X-1169480Y-36939085D01*
X-1169480Y-36939085D02*
X-1130335Y-36915113D01*
X-1130335Y-36915113D02*
X-1089675Y-36892017D01*
X-1089675Y-36892017D02*
X-1047604Y-36869769D01*
X-1047604Y-36869769D02*
X-1004223Y-36848336D01*
X-1004223Y-36848336D02*
X-959636Y-36827690D01*
X-959636Y-36827690D02*
X-913944Y-36807800D01*
X-913944Y-36807800D02*
X-867250Y-36788634D01*
X-867250Y-36788634D02*
X-819656Y-36770163D01*
X-819656Y-36770163D02*
X-771265Y-36752357D01*
X-771265Y-36752357D02*
X-672500Y-36718615D01*
X-672500Y-36718615D02*
X-571774Y-36687167D01*
X-571774Y-36687167D02*
X-469906Y-36657767D01*
X-469906Y-36657767D02*
X-266022Y-36604144D01*
X-266022Y-36604144D02*
X-67398Y-36555800D01*
X-67398Y-36555800D02*
X478894Y-36431995D01*
X478894Y-36431995D02*
X656055Y-36397655D01*
X656055Y-36397655D02*
X837423Y-36366871D01*
X837423Y-36366871D02*
X1027003Y-36339700D01*
X1027003Y-36339700D02*
X1228800Y-36316198D01*
X1228800Y-36316198D02*
X1446818Y-36296419D01*
X1446818Y-36296419D02*
X2608107Y-36222915D01*
X2608107Y-36222915D02*
X2699179Y-36213539D01*
X2699179Y-36213539D02*
X2780203Y-36203046D01*
X2780203Y-36203046D02*
X2816517Y-36197321D01*
X2816517Y-36197321D02*
X2849804Y-36191246D01*
X2849804Y-36191246D02*
X2879893Y-36184797D01*
X2879893Y-36184797D02*
X2893684Y-36181426D01*
X2893684Y-36181426D02*
X2906611Y-36177952D01*
X2906611Y-36177952D02*
X2918652Y-36174373D01*
X2918652Y-36174373D02*
X2929787Y-36170686D01*
X2929787Y-36170686D02*
X2935007Y-36168801D01*
X2935007Y-36168801D02*
X2939993Y-36166888D01*
X2939993Y-36166888D02*
X2944741Y-36164947D01*
X2944741Y-36164947D02*
X2949249Y-36162977D01*
X2949249Y-36162977D02*
X2953514Y-36160977D01*
X2953514Y-36160977D02*
X2957534Y-36158948D01*
X2957534Y-36158948D02*
X2961305Y-36156889D01*
X2961305Y-36156889D02*
X2963097Y-36155848D01*
X2963097Y-36155848D02*
X2964826Y-36154800D01*
X2964826Y-36154800D02*
X2966491Y-36153744D01*
X2966491Y-36153744D02*
X2968093Y-36152680D01*
X2968093Y-36152680D02*
X2969630Y-36151609D01*
X2969630Y-36151609D02*
X2971103Y-36150529D01*
X2971103Y-36150529D02*
X2972512Y-36149442D01*
X2972512Y-36149442D02*
X2973855Y-36148347D01*
X2973855Y-36148347D02*
X2975133Y-36147244D01*
X2975133Y-36147244D02*
X2976345Y-36146133D01*
X2976345Y-36146133D02*
X2977492Y-36145014D01*
X2977492Y-36145014D02*
X2978572Y-36143887D01*
X2978572Y-36143887D02*
X2979587Y-36142751D01*
X2979587Y-36142751D02*
X2980537Y-36141608D01*
X2980537Y-36141608D02*
X2981422Y-36140458D01*
X2981422Y-36140458D02*
X2982242Y-36139299D01*
X2982242Y-36139299D02*
X2982998Y-36138132D01*
X2982998Y-36138132D02*
X2983690Y-36136958D01*
X2983690Y-36136958D02*
X2984319Y-36135775D01*
X2984319Y-36135775D02*
X2984884Y-36134585D01*
X2984884Y-36134585D02*
X2985385Y-36133387D01*
X2985385Y-36133387D02*
X2985824Y-36132182D01*
X2985824Y-36132182D02*
X2986201Y-36130969D01*
X2986201Y-36130969D02*
X2986515Y-36129748D01*
X2986515Y-36129748D02*
X2986767Y-36128519D01*
X2986767Y-36128519D02*
X2986958Y-36127283D01*
X2986958Y-36127283D02*
X2987087Y-36126040D01*
X2987087Y-36126040D02*
X2987155Y-36124789D01*
X2987155Y-36124789D02*
X2987162Y-36123530D01*
X2987162Y-36123530D02*
X2987109Y-36122264D01*
X2987109Y-36122264D02*
X2986996Y-36120990D01*
X2986996Y-36120990D02*
X2986823Y-36119709D01*
X2986823Y-36119709D02*
X2986590Y-36118421D01*
X2986590Y-36118421D02*
X2986298Y-36117125D01*
X2986298Y-36117125D02*
X2985947Y-36115822D01*
X2985947Y-36115822D02*
X2985537Y-36114511D01*
X2985537Y-36114511D02*
X2985069Y-36113194D01*
X2985069Y-36113194D02*
X2984543Y-36111869D01*
X2984543Y-36111869D02*
X2983959Y-36110537D01*
X2983959Y-36110537D02*
X2983317Y-36109197D01*
X2983317Y-36109197D02*
X2982618Y-36107851D01*
X2982618Y-36107851D02*
X2981863Y-36106497D01*
X2981863Y-36106497D02*
X2981050Y-36105136D01*
X2981050Y-36105136D02*
X2980182Y-36103769D01*
X2980182Y-36103769D02*
X2979257Y-36102394D01*
X2979257Y-36102394D02*
X2978276Y-36101012D01*
X2978276Y-36101012D02*
X2977240Y-36099623D01*
X2977240Y-36099623D02*
X2976149Y-36098227D01*
X2976149Y-36098227D02*
X2975003Y-36096825D01*
X2975003Y-36096825D02*
X2973802Y-36095415D01*
X2973802Y-36095415D02*
X2972548Y-36093999D01*
X2972548Y-36093999D02*
X2971239Y-36092575D01*
X2971239Y-36092575D02*
X2968460Y-36089708D01*
X2968460Y-36089708D02*
X2965469Y-36086814D01*
X2965469Y-36086814D02*
X2962268Y-36083894D01*
X2962268Y-36083894D02*
X2958860Y-36080946D01*
X2958860Y-36080946D02*
X2955246Y-36077973D01*
X2955246Y-36077973D02*
X2951429Y-36074973D01*
X2951429Y-36074973D02*
X2947411Y-36071948D01*
X2947411Y-36071948D02*
X2943196Y-36068897D01*
X2943196Y-36068897D02*
X2938784Y-36065820D01*
X2938784Y-36065820D02*
X2929382Y-36059593D01*
X2929382Y-36059593D02*
X2919226Y-36053266D01*
X2919226Y-36053266D02*
X2908333Y-36046843D01*
X2908333Y-36046843D02*
X2896722Y-36040325D01*
X2896722Y-36040325D02*
X2884413Y-36033714D01*
X2884413Y-36033714D02*
X2857774Y-36020220D01*
X2857774Y-36020220D02*
X2828566Y-36006376D01*
X2828566Y-36006376D02*
X2763052Y-35977700D01*
X2763052Y-35977700D02*
X2689076Y-35947805D01*
X2689076Y-35947805D02*
X2520573Y-35884835D01*
X2520573Y-35884835D02*
X1033951Y-35343835D01*
X1033951Y-35343835D02*
X944764Y-35315571D01*
X944764Y-35315571D02*
X854538Y-35288893D01*
X854538Y-35288893D02*
X762959Y-35263957D01*
X762959Y-35263957D02*
X669714Y-35240920D01*
X669714Y-35240920D02*
X574489Y-35219940D01*
X574489Y-35219940D02*
X476971Y-35201173D01*
X476971Y-35201173D02*
X377001Y-35184660D01*
X377001Y-35184660D02*
X-140502Y-35118582D01*
X-140502Y-35118582D02*
X-344300Y-35089674D01*
X-344300Y-35089674D02*
X-443061Y-35072509D01*
X-443061Y-35072509D02*
X-538914Y-35052811D01*
X-538914Y-35052811D02*
X-585558Y-35041841D01*
X-585558Y-35041841D02*
X-631245Y-35030034D01*
X-631245Y-35030034D02*
X-675898Y-35017321D01*
X-675898Y-35017321D02*
X-719441Y-35003634D01*
X-719441Y-35003634D02*
X-761797Y-34988905D01*
X-761797Y-34988905D02*
X-802890Y-34973066D01*
X-802890Y-34973066D02*
X-822939Y-34964709D01*
X-822939Y-34964709D02*
X-842643Y-34956049D01*
X-842643Y-34956049D02*
X-861993Y-34947077D01*
X-861993Y-34947077D02*
X-880979Y-34937785D01*
X-880979Y-34937785D02*
X-899592Y-34928164D01*
X-899592Y-34928164D02*
X-917822Y-34918207D01*
X-917822Y-34918207D02*
X-935659Y-34907903D01*
X-935659Y-34907903D02*
X-953095Y-34897246D01*
X-953095Y-34897246D02*
X-970119Y-34886225D01*
X-970119Y-34886225D02*
X-986721Y-34874834D01*
X-986721Y-34874834D02*
X-1002893Y-34863063D01*
X-1002893Y-34863063D02*
X-1018625Y-34850904D01*
X-1018625Y-34850904D02*
X-1033909Y-34838350D01*
X-1033909Y-34838350D02*
X-1048752Y-34825406D01*
X-1048752Y-34825406D02*
X-1063160Y-34812079D01*
X-1063160Y-34812079D02*
X-1077142Y-34798374D01*
X-1077142Y-34798374D02*
X-1090705Y-34784299D01*
X-1090705Y-34784299D02*
X-1103858Y-34769859D01*
X-1103858Y-34769859D02*
X-1116608Y-34755062D01*
X-1116608Y-34755062D02*
X-1128963Y-34739915D01*
X-1128963Y-34739915D02*
X-1140931Y-34724422D01*
X-1140931Y-34724422D02*
X-1152519Y-34708592D01*
X-1152519Y-34708592D02*
X-1163737Y-34692430D01*
X-1163737Y-34692430D02*
X-1174590Y-34675943D01*
X-1174590Y-34675943D02*
X-1185088Y-34659138D01*
X-1185088Y-34659138D02*
X-1195239Y-34642021D01*
X-1195239Y-34642021D02*
X-1205049Y-34624599D01*
X-1205049Y-34624599D02*
X-1214527Y-34606878D01*
X-1214527Y-34606878D02*
X-1223681Y-34588864D01*
X-1223681Y-34588864D02*
X-1232519Y-34570565D01*
X-1232519Y-34570565D02*
X-1241048Y-34551987D01*
X-1241048Y-34551987D02*
X-1249276Y-34533136D01*
X-1249276Y-34533136D02*
X-1264862Y-34494643D01*
X-1264862Y-34494643D02*
X-1279339Y-34455137D01*
X-1279339Y-34455137D02*
X-1292771Y-34414671D01*
X-1292771Y-34414671D02*
X-1305220Y-34373297D01*
X-1305220Y-34373297D02*
X-1316749Y-34331067D01*
X-1316749Y-34331067D02*
X-1327420Y-34288035D01*
X-1327420Y-34288035D02*
X-1337297Y-34244251D01*
X-1337297Y-34244251D02*
X-1346443Y-34199768D01*
X-1346443Y-34199768D02*
X-1362791Y-34108916D01*
X-1362791Y-34108916D02*
X-1376966Y-34015894D01*
X-1376966Y-34015894D02*
X-1389472Y-33921123D01*
X-1389472Y-33921123D02*
X-1526690Y-32762444D01*
X-1526690Y-32762444D02*
X-1542628Y-32572279D01*
X-1542628Y-32572279D02*
X-1548006Y-32477477D01*
X-1548006Y-32477477D02*
X-1551302Y-32382840D01*
X-1551302Y-32382840D02*
X-1552250Y-32288354D01*
X-1552250Y-32288354D02*
X-1550584Y-32194002D01*
X-1550584Y-32194002D02*
X-1546039Y-32099769D01*
X-1546039Y-32099769D02*
X-1538348Y-32005639D01*
X-1538348Y-32005639D02*
X-1533247Y-31958609D01*
X-1533247Y-31958609D02*
X-1527302Y-31911615D01*
X-1527302Y-31911615D02*
X-1512920Y-31817777D01*
X-1512920Y-31817777D02*
X-1495278Y-31724227D01*
X-1495278Y-31724227D02*
X-1474451Y-31631064D01*
X-1474451Y-31631064D02*
X-1450515Y-31538387D01*
X-1450515Y-31538387D02*
X-1423546Y-31446297D01*
X-1423546Y-31446297D02*
X-1393620Y-31354893D01*
X-1393620Y-31354893D02*
X-1360812Y-31264276D01*
X-1360812Y-31264276D02*
X-1325197Y-31174545D01*
X-1325197Y-31174545D02*
X-1286853Y-31085800D01*
X-1286853Y-31085800D02*
X-1245853Y-30998141D01*
X-1245853Y-30998141D02*
X-1202275Y-30911668D01*
X-1202275Y-30911668D02*
X-1156193Y-30826481D01*
X-1156193Y-30826481D02*
X-1107683Y-30742680D01*
X-1107683Y-30742680D02*
X-1056822Y-30660365D01*
X-1056822Y-30660365D02*
X-1003685Y-30579635D01*
X-1003685Y-30579635D02*
X-959997Y-30516836D01*
X-959997Y-30516836D02*
X-914948Y-30455120D01*
X-914948Y-30455120D02*
X-868556Y-30394512D01*
X-868556Y-30394512D02*
X-820842Y-30335035D01*
X-820842Y-30335035D02*
X-771825Y-30276713D01*
X-771825Y-30276713D02*
X-721526Y-30219571D01*
X-721526Y-30219571D02*
X-669966Y-30163633D01*
X-669966Y-30163633D02*
X-617163Y-30108923D01*
X-617163Y-30108923D02*
X-563137Y-30055466D01*
X-563137Y-30055466D02*
X-507910Y-30003284D01*
X-507910Y-30003284D02*
X-451501Y-29952404D01*
X-451501Y-29952404D02*
X-393930Y-29902848D01*
X-393930Y-29902848D02*
X-335217Y-29854641D01*
X-335217Y-29854641D02*
X-275382Y-29807807D01*
X-275382Y-29807807D02*
X-214445Y-29762371D01*
X-214445Y-29762371D02*
X-152427Y-29718356D01*
X-152427Y-29718356D02*
X-80016Y-29685305D01*
X-80016Y-29685305D02*
X-6821Y-29654037D01*
X-6821Y-29654037D02*
X67124Y-29624538D01*
X67124Y-29624538D02*
X141781Y-29596792D01*
X141781Y-29596792D02*
X217115Y-29570783D01*
X217115Y-29570783D02*
X293091Y-29546497D01*
X293091Y-29546497D02*
X369672Y-29523918D01*
X369672Y-29523918D02*
X446824Y-29503031D01*
X446824Y-29503031D02*
X563334Y-29474937D01*
X563334Y-29474937D02*
X621968Y-29462385D01*
X621968Y-29462385D02*
X680818Y-29450876D01*
X680818Y-29450876D02*
X739855Y-29440443D01*
X739855Y-29440443D02*
X799052Y-29431122D01*
X799052Y-29431122D02*
X858381Y-29422945D01*
X858381Y-29422945D02*
X917813Y-29415948D01*
X917813Y-29415948D02*
X977321Y-29410165D01*
X977321Y-29410165D02*
X1036876Y-29405629D01*
X1036876Y-29405629D02*
X1096451Y-29402374D01*
X1096451Y-29402374D02*
X1156017Y-29400436D01*
X1156017Y-29400436D02*
X1215547Y-29399847D01*
X1215547Y-29399847D02*
X1275012Y-29400643D01*
X1275012Y-29400643D02*
X1334385Y-29402858D01*
X1334385Y-29402858D02*
X1393637Y-29406525D01*
X1393637Y-29406525D02*
X1452748Y-29411649D01*
X1452748Y-29411649D02*
X1511727Y-29418118D01*
X1511727Y-29418118D02*
X1570591Y-29425788D01*
X1570591Y-29425788D02*
X1629354Y-29434518D01*
X1629354Y-29434518D02*
X1746648Y-29454583D01*
X1746648Y-29454583D02*
X2332687Y-29569977D01*
X2332687Y-29569977D02*
X2450680Y-29588406D01*
X2450680Y-29588406D02*
X3161352Y-29676127D01*
X3161352Y-29676127D02*
X3279128Y-29694253D01*
X3279128Y-29694253D02*
X3396419Y-29715287D01*
X3396419Y-29715287D02*
X3513233Y-29739094D01*
X3513233Y-29739094D02*
X3629605Y-29765357D01*
X3629605Y-29765357D02*
X3745571Y-29793758D01*
X3745571Y-29793758D02*
X3976421Y-29855704D01*
X3976421Y-29855704D02*
X4206063Y-29922389D01*
X4206063Y-29922389D02*
X5116551Y-30210727D01*
X5116551Y-30210727D02*
X6019569Y-30521790D01*
X6019569Y-30521790D02*
X9154818Y-31681450D01*
X9154818Y-31681450D02*
X9267274Y-31720853D01*
X9267274Y-31720853D02*
X9380329Y-31758086D01*
X9380329Y-31758086D02*
X9494123Y-31792645D01*
X9494123Y-31792645D02*
X9608794Y-31824028D01*
X9608794Y-31824028D02*
X9724432Y-31851908D01*
X9724432Y-31851908D02*
X9840930Y-31876666D01*
X9840930Y-31876666D02*
X10075878Y-31919045D01*
X10075878Y-31919045D02*
X15733644Y-32836695D01*
X15733644Y-32836695D02*
X15968053Y-32880494D01*
X15968053Y-32880494D02*
X16084695Y-32904901D01*
X16084695Y-32904901D02*
X16200866Y-32931415D01*
X16200866Y-32931415D02*
X16431749Y-32990987D01*
X16431749Y-32990987D02*
X17120391Y-33189165D01*
X17120391Y-33189165D02*
X17351408Y-33249624D01*
X17351408Y-33249624D02*
X17583499Y-33305719D01*
X17583499Y-33305719D02*
X23654512Y-34603247D01*
X23654512Y-34603247D02*
X25512940Y-35044722D01*
X25512940Y-35044722D02*
X27124289Y-35487649D01*
X27124289Y-35487649D02*
X27355184Y-35547553D01*
X27355184Y-35547553D02*
X27587684Y-35601152D01*
X27587684Y-35601152D02*
X28289343Y-35746216D01*
X28289343Y-35746216D02*
X30146704Y-36192311D01*
X30146704Y-36192311D02*
X33850110Y-37130573D01*
X33850110Y-37130573D02*
X33955619Y-37161485D01*
X33955619Y-37161485D02*
X34057580Y-37194029D01*
X34057580Y-37194029D02*
X34107259Y-37211271D01*
X34107259Y-37211271D02*
X34156085Y-37229350D01*
X34156085Y-37229350D02*
X34204070Y-37248411D01*
X34204070Y-37248411D02*
X34251226Y-37268597D01*
X34251226Y-37268597D02*
X34297563Y-37290050D01*
X34297563Y-37290050D02*
X34343094Y-37312914D01*
X34343094Y-37312914D02*
X34365561Y-37324921D01*
X34365561Y-37324921D02*
X34387830Y-37337334D01*
X34387830Y-37337334D02*
X34409904Y-37350171D01*
X34409904Y-37350171D02*
X34431783Y-37363451D01*
X34431783Y-37363451D02*
X34453469Y-37377191D01*
X34453469Y-37377191D02*
X34474963Y-37391410D01*
X34474963Y-37391410D02*
X34496268Y-37406124D01*
X34496268Y-37406124D02*
X34517383Y-37421353D01*
X34517383Y-37421353D02*
X34538312Y-37437114D01*
X34538312Y-37437114D02*
X34559054Y-37453424D01*
X34559054Y-37453424D02*
X34579612Y-37470303D01*
X34579612Y-37470303D02*
X34599988Y-37487767D01*
X34599988Y-37487767D02*
X34620183Y-37505828D01*
X34620183Y-37505828D02*
X34640209Y-37524464D01*
X34640209Y-37524464D02*
X34679798Y-37563349D01*
X34679798Y-37563349D02*
X34718850Y-37604196D01*
X34718850Y-37604196D02*
X34757459Y-37646780D01*
X34757459Y-37646780D02*
X34795720Y-37690875D01*
X34795720Y-37690875D02*
X35139928Y-38118396D01*
X35139928Y-38118396D02*
X35179887Y-38165161D01*
X35179887Y-38165161D02*
X35220535Y-38210949D01*
X35220535Y-38210949D02*
X35261943Y-38255585D01*
X35261943Y-38255585D02*
X35304093Y-38299087D01*
X35304093Y-38299087D02*
X35346943Y-38341525D01*
X35346943Y-38341525D02*
X35390452Y-38382967D01*
X35390452Y-38382967D02*
X35479282Y-38463144D01*
X35479282Y-38463144D02*
X35570254Y-38540170D01*
X35570254Y-38540170D02*
X35663035Y-38614598D01*
X35663035Y-38614598D02*
X35757297Y-38686981D01*
X35757297Y-38686981D02*
X35948941Y-38827827D01*
X35948941Y-38827827D02*
X36339470Y-39101960D01*
X36339470Y-39101960D02*
X36538589Y-39233977D01*
X36538589Y-39233977D02*
X36740766Y-39361168D01*
X36740766Y-39361168D02*
X36946263Y-39482678D01*
X36946263Y-39482678D02*
X37154925Y-39598612D01*
X37154925Y-39598612D02*
X37366488Y-39709315D01*
X37366488Y-39709315D02*
X37580692Y-39815133D01*
X37580692Y-39815133D02*
X37797270Y-39916325D01*
X37797270Y-39916325D02*
X38015935Y-40012819D01*
X38015935Y-40012819D02*
X38236395Y-40104456D01*
X38236395Y-40104456D02*
X38458356Y-40191080D01*
X38458356Y-40191080D02*
X38681680Y-40272623D01*
X38681680Y-40272623D02*
X38906837Y-40349385D01*
X38906837Y-40349385D02*
X39134451Y-40421754D01*
X39134451Y-40421754D02*
X39365144Y-40490121D01*
X39365144Y-40490121D02*
X39598950Y-40554601D01*
X39598950Y-40554601D02*
X39833539Y-40614225D01*
X39833539Y-40614225D02*
X40065994Y-40667751D01*
X40065994Y-40667751D02*
X40293393Y-40713934D01*
X40293393Y-40713934D02*
X40515040Y-40752544D01*
X40515040Y-40752544D02*
X41664951Y-40936490D01*
X41664951Y-40936490D02*
X41801769Y-40955321D01*
X41801769Y-40955321D02*
X41866275Y-40962556D01*
X41866275Y-40962556D02*
X41927360Y-40967967D01*
X41927360Y-40967967D02*
X41984409Y-40971278D01*
X41984409Y-40971278D02*
X42011229Y-40972060D01*
X42011229Y-40972060D02*
X42036811Y-40972213D01*
X42036811Y-40972213D02*
X42061076Y-40971703D01*
X42061076Y-40971703D02*
X42083949Y-40970494D01*
X42083949Y-40970494D02*
X42094839Y-40969618D01*
X42094839Y-40969618D02*
X42105353Y-40968554D01*
X42105353Y-40968554D02*
X42115480Y-40967298D01*
X42115480Y-40967298D02*
X42125211Y-40965846D01*
X42125211Y-40965846D02*
X42134536Y-40964193D01*
X42134536Y-40964193D02*
X42143447Y-40962336D01*
X42143447Y-40962336D02*
X42147743Y-40961329D01*
X42147743Y-40961329D02*
X42151932Y-40960270D01*
X42151932Y-40960270D02*
X42156012Y-40959157D01*
X42156012Y-40959157D02*
X42159983Y-40957990D01*
X42159983Y-40957990D02*
X42163842Y-40956769D01*
X42163842Y-40956769D02*
X42167589Y-40955493D01*
X42167589Y-40955493D02*
X42171223Y-40954161D01*
X42171223Y-40954161D02*
X42174743Y-40952773D01*
X42174743Y-40952773D02*
X42178146Y-40951329D01*
X42178146Y-40951329D02*
X42181433Y-40949827D01*
X42181433Y-40949827D02*
X42184601Y-40948268D01*
X42184601Y-40948268D02*
X42187650Y-40946651D01*
X42187650Y-40946651D02*
X42190578Y-40944975D01*
X42190578Y-40944975D02*
X42193388Y-40943241D01*
X42193388Y-40943241D02*
X42194747Y-40942352D01*
X42194747Y-40942352D02*
X42196078Y-40941448D01*
X42196078Y-40941448D02*
X42197379Y-40940531D01*
X42197379Y-40940531D02*
X42198651Y-40939599D01*
X42198651Y-40939599D02*
X42199893Y-40938652D01*
X42199893Y-40938652D02*
X42201107Y-40937692D01*
X42201107Y-40937692D02*
X42202291Y-40936717D01*
X42202291Y-40936717D02*
X42203447Y-40935728D01*
X42203447Y-40935728D02*
X42204574Y-40934725D01*
X42204574Y-40934725D02*
X42205672Y-40933708D01*
X42205672Y-40933708D02*
X42206743Y-40932677D01*
X42206743Y-40932677D02*
X42207784Y-40931632D01*
X42207784Y-40931632D02*
X42208798Y-40930574D01*
X42208798Y-40930574D02*
X42209783Y-40929501D01*
X42209783Y-40929501D02*
X42210741Y-40928415D01*
X42210741Y-40928415D02*
X42211670Y-40927315D01*
X42211670Y-40927315D02*
X42212572Y-40926201D01*
X42212572Y-40926201D02*
X42213447Y-40925073D01*
X42213447Y-40925073D02*
X42214294Y-40923932D01*
X42214294Y-40923932D02*
X42215113Y-40922778D01*
X42215113Y-40922778D02*
X42215905Y-40921610D01*
X42215905Y-40921610D02*
X42216671Y-40920429D01*
X42216671Y-40920429D02*
X42217409Y-40919234D01*
X42217409Y-40919234D02*
X42218120Y-40918026D01*
X42218120Y-40918026D02*
X42218805Y-40916804D01*
X42218805Y-40916804D02*
X42219463Y-40915570D01*
X42219463Y-40915570D02*
X42220094Y-40914322D01*
X42220094Y-40914322D02*
X42220699Y-40913061D01*
X42220699Y-40913061D02*
X42221278Y-40911787D01*
X42221278Y-40911787D02*
X42221831Y-40910501D01*
X42221831Y-40910501D02*
X42222358Y-40909201D01*
X42222358Y-40909201D02*
X42222859Y-40907888D01*
X42222859Y-40907888D02*
X42223334Y-40906562D01*
X42223334Y-40906562D02*
X42223783Y-40905224D01*
X42223783Y-40905224D02*
X42224207Y-40903873D01*
X42224207Y-40903873D02*
X42224606Y-40902509D01*
X42224606Y-40902509D02*
X42224979Y-40901132D01*
X42224979Y-40901132D02*
X42225327Y-40899743D01*
X42225327Y-40899743D02*
X42225650Y-40898341D01*
X42225650Y-40898341D02*
X42225949Y-40896927D01*
X42225949Y-40896927D02*
X42226222Y-40895500D01*
X42226222Y-40895500D02*
X42226471Y-40894061D01*
X42226471Y-40894061D02*
X42226695Y-40892610D01*
X42226695Y-40892610D02*
X42226895Y-40891146D01*
X42226895Y-40891146D02*
X42227221Y-40888181D01*
X42227221Y-40888181D02*
X42227452Y-40885169D01*
X42227452Y-40885169D02*
X42227587Y-40882108D01*
X42227587Y-40882108D02*
X42227628Y-40878999D01*
X42227628Y-40878999D02*
X42227576Y-40875842D01*
X42227576Y-40875842D02*
X42227431Y-40872639D01*
X42227431Y-40872639D02*
X42227195Y-40869389D01*
X42227195Y-40869389D02*
X42226869Y-40866093D01*
X42226869Y-40866093D02*
X42226453Y-40862752D01*
X42226453Y-40862752D02*
X42225949Y-40859365D01*
X42225949Y-40859365D02*
X42225357Y-40855933D01*
X42225357Y-40855933D02*
X42224679Y-40852456D01*
X42224679Y-40852456D02*
X42223915Y-40848935D01*
X42223915Y-40848935D02*
X42223067Y-40845371D01*
X42223067Y-40845371D02*
X42222135Y-40841763D01*
X42222135Y-40841763D02*
X42221121Y-40838112D01*
X42221121Y-40838112D02*
X42218849Y-40830684D01*
X42218849Y-40830684D02*
X42216257Y-40823088D01*
X42216257Y-40823088D02*
X42213356Y-40815329D01*
X42213356Y-40815329D02*
X42210151Y-40807410D01*
X42210151Y-40807410D02*
X42206650Y-40799333D01*
X42206650Y-40799333D02*
X42202863Y-40791103D01*
X42202863Y-40791103D02*
X42198795Y-40782722D01*
X42198795Y-40782722D02*
X42194456Y-40774194D01*
X42194456Y-40774194D02*
X42184994Y-40756709D01*
X42184994Y-40756709D02*
X42174537Y-40738673D01*
X42174537Y-40738673D02*
X42163150Y-40720113D01*
X42163150Y-40720113D02*
X42150893Y-40701054D01*
X42150893Y-40701054D02*
X42124022Y-40661546D01*
X42124022Y-40661546D02*
X42094423Y-40620355D01*
X42094423Y-40620355D02*
X41782282Y-40206278D01*
X41782282Y-40206278D02*
X41645553Y-40010662D01*
X41645553Y-40010662D02*
X41382841Y-39609133D01*
X41382841Y-39609133D02*
X40389447Y-37977600D01*
X40389447Y-37977600D02*
X40131050Y-37575943D01*
X40131050Y-37575943D02*
X39862458Y-37181169D01*
X39862458Y-37181169D02*
X39581610Y-36794962D01*
X39581610Y-36794962D02*
X39436215Y-36605557D01*
X39436215Y-36605557D02*
X39287351Y-36418871D01*
X39287351Y-36418871D02*
X39134922Y-36235081D01*
X39134922Y-36235081D02*
X38978911Y-36054323D01*
X38978911Y-36054323D02*
X38819322Y-35876721D01*
X38819322Y-35876721D02*
X38656156Y-35702401D01*
X38656156Y-35702401D02*
X38489430Y-35531477D01*
X38489430Y-35531477D02*
X38319206Y-35364034D01*
X38319206Y-35364034D02*
X38145559Y-35200146D01*
X38145559Y-35200146D02*
X37968563Y-35039888D01*
X37968563Y-35039888D02*
X37788305Y-34883318D01*
X37788305Y-34883318D02*
X37604916Y-34730423D01*
X37604916Y-34730423D02*
X37418536Y-34581172D01*
X37418536Y-34581172D02*
X37229308Y-34435536D01*
X37229308Y-34435536D02*
X37037356Y-34293507D01*
X37037356Y-34293507D02*
X36842736Y-34155163D01*
X36842736Y-34155163D02*
X36645485Y-34020607D01*
X36645485Y-34020607D02*
X36445642Y-33889941D01*
X36445642Y-33889941D02*
X36038866Y-33639780D01*
X36038866Y-33639780D02*
X35004955Y-33045421D01*
X35004955Y-33045421D02*
X34803419Y-32918618D01*
X34803419Y-32918618D02*
X34606380Y-32784477D01*
X34606380Y-32784477D02*
X34024919Y-32365375D01*
X34024919Y-32365375D02*
X33827772Y-32230526D01*
X33827772Y-32230526D02*
X33627766Y-32100087D01*
X33627766Y-32100087D02*
X33220799Y-31850253D01*
X33220799Y-31850253D02*
X32806528Y-31612721D01*
X32806528Y-31612721D02*
X32596570Y-31499052D01*
X32596570Y-31499052D02*
X32384541Y-31389283D01*
X32384541Y-31389283D02*
X32170321Y-31283785D01*
X32170321Y-31283785D02*
X31953886Y-31182897D01*
X31953886Y-31182897D02*
X31735235Y-31086951D01*
X31735235Y-31086951D02*
X31514367Y-30996277D01*
X31514367Y-30996277D02*
X31291320Y-30911119D01*
X31291320Y-30911119D02*
X31066276Y-30831362D01*
X31066276Y-30831362D02*
X30839458Y-30756802D01*
X30839458Y-30756802D02*
X21482190Y-27882105D01*
X21482190Y-27882105D02*
X20105060Y-27487340D01*
X20105060Y-27487340D02*
X19642387Y-27369102D01*
X19642387Y-27369102D02*
X19177100Y-27261559D01*
X19177100Y-27261559D02*
X18708832Y-27168040D01*
X18708832Y-27168040D02*
X18473495Y-27127613D01*
X18473495Y-27127613D02*
X18237402Y-27091871D01*
X18237402Y-27091871D02*
X18000625Y-27061116D01*
X18000625Y-27061116D02*
X17763237Y-27035650D01*
X17763237Y-27035650D02*
X17525321Y-27015690D01*
X17525321Y-27015690D02*
X17286997Y-27001122D01*
X17286997Y-27001122D02*
X17048401Y-26991743D01*
X17048401Y-26991743D02*
X16809663Y-26987356D01*
X16809663Y-26987356D02*
X16570903Y-26987716D01*
X16570903Y-26987716D02*
X16332184Y-26992405D01*
X16332184Y-26992405D02*
X15855068Y-27012927D01*
X15855068Y-27012927D02*
X15378633Y-27045374D01*
X15378633Y-27045374D02*
X13953013Y-27186534D01*
X13953013Y-27186534D02*
X5658200Y-28208049D01*
X5658200Y-28208049D02*
X5420791Y-28231123D01*
X5420791Y-28231123D02*
X5301887Y-28239650D01*
X5301887Y-28239650D02*
X5182876Y-28245950D01*
X5182876Y-28245950D02*
X5063802Y-28249945D01*
X5063802Y-28249945D02*
X4944704Y-28251559D01*
X4944704Y-28251559D02*
X4825626Y-28250713D01*
X4825626Y-28250713D02*
X4706610Y-28247331D01*
X4706610Y-28247331D02*
X4587697Y-28241335D01*
X4587697Y-28241335D02*
X4468929Y-28232647D01*
X4468929Y-28232647D02*
X4350335Y-28221283D01*
X4350335Y-28221283D02*
X4231895Y-28207621D01*
X4231895Y-28207621D02*
X2102157Y-27917364D01*
X2102157Y-27917364D02*
X1630963Y-27839478D01*
X1630963Y-27839478D02*
X1396379Y-27794604D01*
X1396379Y-27794604D02*
X1162910Y-27744483D01*
X1162910Y-27744483D02*
X930997Y-27687900D01*
X930997Y-27687900D02*
X815761Y-27656806D01*
X815761Y-27656806D02*
X701078Y-27623641D01*
X701078Y-27623641D02*
X587022Y-27588245D01*
X587022Y-27588245D02*
X473739Y-27550424D01*
X473739Y-27550424D02*
X361393Y-27509976D01*
X361393Y-27509976D02*
X250149Y-27466699D01*
X250149Y-27466699D02*
X140172Y-27420391D01*
X140172Y-27420391D02*
X31627Y-27370851D01*
X31627Y-27370851D02*
X-75323Y-27317875D01*
X-75323Y-27317875D02*
X-135522Y-27288990D01*
M02*
