G04 #@! TF.FileFunction,Legend,Bot*
%FSLAX46Y46*%
G04 Gerber Fmt 4.6, Leading zero omitted, Abs format (unit mm)*
G04 Created by KiCad (PCBNEW 4.0.4-stable) date Wednesday, 02 '02e' November '02e' 2016, 22:28:03*
%MOMM*%
%LPD*%
G01*
G04 APERTURE LIST*
%ADD10C,0.100000*%
%ADD11C,0.200000*%
%ADD12C,0.300000*%
%ADD13C,0.010000*%
%ADD14C,0.150000*%
G04 APERTURE END LIST*
D10*
D11*
X-6350000Y-39370000D02*
X-5334000Y-38354000D01*
X-7366000Y-38354000D02*
X-6350000Y-39370000D01*
D12*
X-4152429Y11540285D02*
X-5652429Y11540285D01*
X-4938143Y11540285D02*
X-4938143Y10683142D01*
X-4152429Y10683142D02*
X-5652429Y10683142D01*
X-4152429Y9325999D02*
X-4938143Y9325999D01*
X-5081000Y9397428D01*
X-5152429Y9540285D01*
X-5152429Y9825999D01*
X-5081000Y9968856D01*
X-4223857Y9325999D02*
X-4152429Y9468856D01*
X-4152429Y9825999D01*
X-4223857Y9968856D01*
X-4366714Y10040285D01*
X-4509571Y10040285D01*
X-4652429Y9968856D01*
X-4723857Y9825999D01*
X-4723857Y9468856D01*
X-4795286Y9325999D01*
X-4223857Y7968856D02*
X-4152429Y8111713D01*
X-4152429Y8397427D01*
X-4223857Y8540285D01*
X-4295286Y8611713D01*
X-4438143Y8683142D01*
X-4866714Y8683142D01*
X-5009571Y8611713D01*
X-5081000Y8540285D01*
X-5152429Y8397427D01*
X-5152429Y8111713D01*
X-5081000Y7968856D01*
X-4152429Y7325999D02*
X-5652429Y7325999D01*
X-4723857Y7183142D02*
X-4152429Y6754571D01*
X-5152429Y6754571D02*
X-4581000Y7325999D01*
X-4223857Y5540285D02*
X-4152429Y5683142D01*
X-4152429Y5968856D01*
X-4223857Y6111713D01*
X-4366714Y6183142D01*
X-4938143Y6183142D01*
X-5081000Y6111713D01*
X-5152429Y5968856D01*
X-5152429Y5683142D01*
X-5081000Y5540285D01*
X-4938143Y5468856D01*
X-4795286Y5468856D01*
X-4652429Y6183142D01*
X-4152429Y4825999D02*
X-5152429Y4825999D01*
X-4866714Y4825999D02*
X-5009571Y4754571D01*
X-5081000Y4683142D01*
X-5152429Y4540285D01*
X-5152429Y4397428D01*
X-4223857Y3968857D02*
X-4152429Y3826000D01*
X-4152429Y3540285D01*
X-4223857Y3397428D01*
X-4366714Y3326000D01*
X-4438143Y3326000D01*
X-4581000Y3397428D01*
X-4652429Y3540285D01*
X-4652429Y3754571D01*
X-4723857Y3897428D01*
X-4866714Y3968857D01*
X-4938143Y3968857D01*
X-5081000Y3897428D01*
X-5152429Y3754571D01*
X-5152429Y3540285D01*
X-5081000Y3397428D01*
X-5152429Y2683142D02*
X-3652429Y2683142D01*
X-5081000Y2683142D02*
X-5152429Y2540285D01*
X-5152429Y2254571D01*
X-5081000Y2111714D01*
X-5009571Y2040285D01*
X-4866714Y1968856D01*
X-4438143Y1968856D01*
X-4295286Y2040285D01*
X-4223857Y2111714D01*
X-4152429Y2254571D01*
X-4152429Y2540285D01*
X-4223857Y2683142D01*
X-4152429Y683142D02*
X-4938143Y683142D01*
X-5081000Y754571D01*
X-5152429Y897428D01*
X-5152429Y1183142D01*
X-5081000Y1325999D01*
X-4223857Y683142D02*
X-4152429Y825999D01*
X-4152429Y1183142D01*
X-4223857Y1325999D01*
X-4366714Y1397428D01*
X-4509571Y1397428D01*
X-4652429Y1325999D01*
X-4723857Y1183142D01*
X-4723857Y825999D01*
X-4795286Y683142D01*
X-4223857Y-674001D02*
X-4152429Y-531144D01*
X-4152429Y-245430D01*
X-4223857Y-102572D01*
X-4295286Y-31144D01*
X-4438143Y40285D01*
X-4866714Y40285D01*
X-5009571Y-31144D01*
X-5081000Y-102572D01*
X-5152429Y-245430D01*
X-5152429Y-531144D01*
X-5081000Y-674001D01*
X-4223857Y-1888286D02*
X-4152429Y-1745429D01*
X-4152429Y-1459715D01*
X-4223857Y-1316858D01*
X-4366714Y-1245429D01*
X-4938143Y-1245429D01*
X-5081000Y-1316858D01*
X-5152429Y-1459715D01*
X-5152429Y-1745429D01*
X-5081000Y-1888286D01*
X-4938143Y-1959715D01*
X-4795286Y-1959715D01*
X-4652429Y-1245429D01*
X-3102429Y9397428D02*
X-1602429Y8897428D01*
X-3102429Y8397428D01*
X-1602429Y7254571D02*
X-2388143Y7254571D01*
X-2531000Y7326000D01*
X-2602429Y7468857D01*
X-2602429Y7754571D01*
X-2531000Y7897428D01*
X-1673857Y7254571D02*
X-1602429Y7397428D01*
X-1602429Y7754571D01*
X-1673857Y7897428D01*
X-1816714Y7968857D01*
X-1959571Y7968857D01*
X-2102429Y7897428D01*
X-2173857Y7754571D01*
X-2173857Y7397428D01*
X-2245286Y7254571D01*
X-1602429Y6325999D02*
X-1673857Y6468857D01*
X-1816714Y6540285D01*
X-3102429Y6540285D01*
X-1673857Y5183143D02*
X-1602429Y5326000D01*
X-1602429Y5611714D01*
X-1673857Y5754571D01*
X-1816714Y5826000D01*
X-2388143Y5826000D01*
X-2531000Y5754571D01*
X-2602429Y5611714D01*
X-2602429Y5326000D01*
X-2531000Y5183143D01*
X-2388143Y5111714D01*
X-2245286Y5111714D01*
X-2102429Y5826000D01*
X-2602429Y4468857D02*
X-1602429Y4468857D01*
X-2459571Y4468857D02*
X-2531000Y4397429D01*
X-2602429Y4254571D01*
X-2602429Y4040286D01*
X-2531000Y3897429D01*
X-2388143Y3826000D01*
X-1602429Y3826000D01*
X-1673857Y2468857D02*
X-1602429Y2611714D01*
X-1602429Y2897428D01*
X-1673857Y3040286D01*
X-1745286Y3111714D01*
X-1888143Y3183143D01*
X-2316714Y3183143D01*
X-2459571Y3111714D01*
X-2531000Y3040286D01*
X-2602429Y2897428D01*
X-2602429Y2611714D01*
X-2531000Y2468857D01*
X-1602429Y1826000D02*
X-2602429Y1826000D01*
X-3102429Y1826000D02*
X-3031000Y1897429D01*
X-2959571Y1826000D01*
X-3031000Y1754572D01*
X-3102429Y1826000D01*
X-2959571Y1826000D01*
X-1602429Y468857D02*
X-2388143Y468857D01*
X-2531000Y540286D01*
X-2602429Y683143D01*
X-2602429Y968857D01*
X-2531000Y1111714D01*
X-1673857Y468857D02*
X-1602429Y611714D01*
X-1602429Y968857D01*
X-1673857Y1111714D01*
X-1816714Y1183143D01*
X-1959571Y1183143D01*
X-2102429Y1111714D01*
X-2173857Y968857D01*
X-2173857Y611714D01*
X-2245286Y468857D01*
D13*
G36*
X-5956256Y18175918D02*
X-5900799Y18203568D01*
X-5851852Y18254480D01*
X-5838371Y18273338D01*
X-5823686Y18298015D01*
X-5814158Y18324816D01*
X-5808707Y18360587D01*
X-5806253Y18412169D01*
X-5805714Y18480267D01*
X-5808148Y18573588D01*
X-5816606Y18643657D01*
X-5832826Y18695931D01*
X-5858546Y18735869D01*
X-5895503Y18768929D01*
X-5898218Y18770886D01*
X-5934640Y18790908D01*
X-5978498Y18800815D01*
X-6034276Y18803257D01*
X-6124952Y18803257D01*
X-6124990Y18891283D01*
X-6125834Y18940308D01*
X-6130976Y18969065D01*
X-6144413Y18986311D01*
X-6170142Y19000808D01*
X-6176321Y19003769D01*
X-6205236Y19017648D01*
X-6227624Y19026414D01*
X-6244271Y19027171D01*
X-6255964Y19017023D01*
X-6263490Y18993073D01*
X-6267634Y18952426D01*
X-6269185Y18892186D01*
X-6268929Y18809455D01*
X-6267651Y18701339D01*
X-6267252Y18669000D01*
X-6265815Y18557524D01*
X-6264528Y18484603D01*
X-6125029Y18484603D01*
X-6124245Y18546499D01*
X-6120760Y18586997D01*
X-6112876Y18613708D01*
X-6098895Y18634244D01*
X-6089403Y18644260D01*
X-6050596Y18673567D01*
X-6016237Y18675952D01*
X-5980784Y18651750D01*
X-5979886Y18650857D01*
X-5965461Y18632153D01*
X-5956687Y18606732D01*
X-5952261Y18567584D01*
X-5950882Y18507697D01*
X-5950857Y18494430D01*
X-5954188Y18411901D01*
X-5965031Y18354691D01*
X-5984660Y18319766D01*
X-6014350Y18304094D01*
X-6031509Y18302514D01*
X-6072234Y18309926D01*
X-6100168Y18334330D01*
X-6116983Y18378980D01*
X-6124350Y18447130D01*
X-6125029Y18484603D01*
X-6264528Y18484603D01*
X-6264292Y18471245D01*
X-6262323Y18406333D01*
X-6259550Y18358958D01*
X-6255612Y18325290D01*
X-6250151Y18301498D01*
X-6242808Y18283753D01*
X-6233223Y18268224D01*
X-6229113Y18262381D01*
X-6174595Y18207185D01*
X-6105664Y18175890D01*
X-6025928Y18167165D01*
X-5956256Y18175918D01*
X-5956256Y18175918D01*
G37*
X-5956256Y18175918D02*
X-5900799Y18203568D01*
X-5851852Y18254480D01*
X-5838371Y18273338D01*
X-5823686Y18298015D01*
X-5814158Y18324816D01*
X-5808707Y18360587D01*
X-5806253Y18412169D01*
X-5805714Y18480267D01*
X-5808148Y18573588D01*
X-5816606Y18643657D01*
X-5832826Y18695931D01*
X-5858546Y18735869D01*
X-5895503Y18768929D01*
X-5898218Y18770886D01*
X-5934640Y18790908D01*
X-5978498Y18800815D01*
X-6034276Y18803257D01*
X-6124952Y18803257D01*
X-6124990Y18891283D01*
X-6125834Y18940308D01*
X-6130976Y18969065D01*
X-6144413Y18986311D01*
X-6170142Y19000808D01*
X-6176321Y19003769D01*
X-6205236Y19017648D01*
X-6227624Y19026414D01*
X-6244271Y19027171D01*
X-6255964Y19017023D01*
X-6263490Y18993073D01*
X-6267634Y18952426D01*
X-6269185Y18892186D01*
X-6268929Y18809455D01*
X-6267651Y18701339D01*
X-6267252Y18669000D01*
X-6265815Y18557524D01*
X-6264528Y18484603D01*
X-6125029Y18484603D01*
X-6124245Y18546499D01*
X-6120760Y18586997D01*
X-6112876Y18613708D01*
X-6098895Y18634244D01*
X-6089403Y18644260D01*
X-6050596Y18673567D01*
X-6016237Y18675952D01*
X-5980784Y18651750D01*
X-5979886Y18650857D01*
X-5965461Y18632153D01*
X-5956687Y18606732D01*
X-5952261Y18567584D01*
X-5950882Y18507697D01*
X-5950857Y18494430D01*
X-5954188Y18411901D01*
X-5965031Y18354691D01*
X-5984660Y18319766D01*
X-6014350Y18304094D01*
X-6031509Y18302514D01*
X-6072234Y18309926D01*
X-6100168Y18334330D01*
X-6116983Y18378980D01*
X-6124350Y18447130D01*
X-6125029Y18484603D01*
X-6264528Y18484603D01*
X-6264292Y18471245D01*
X-6262323Y18406333D01*
X-6259550Y18358958D01*
X-6255612Y18325290D01*
X-6250151Y18301498D01*
X-6242808Y18283753D01*
X-6233223Y18268224D01*
X-6229113Y18262381D01*
X-6174595Y18207185D01*
X-6105664Y18175890D01*
X-6025928Y18167165D01*
X-5956256Y18175918D01*
G36*
X-4839907Y18183780D02*
X-4793328Y18210723D01*
X-4760943Y18237466D01*
X-4737258Y18265484D01*
X-4720941Y18299748D01*
X-4710661Y18345227D01*
X-4705086Y18406892D01*
X-4702884Y18489711D01*
X-4702629Y18549246D01*
X-4702629Y18768391D01*
X-4764314Y18796044D01*
X-4826000Y18823697D01*
X-4833257Y18583670D01*
X-4836256Y18494028D01*
X-4839402Y18428962D01*
X-4843299Y18384026D01*
X-4848553Y18354770D01*
X-4855769Y18336748D01*
X-4865550Y18325511D01*
X-4868688Y18323079D01*
X-4916239Y18304083D01*
X-4964303Y18311600D01*
X-4992914Y18331543D01*
X-5004553Y18345675D01*
X-5012609Y18364220D01*
X-5017729Y18392334D01*
X-5020559Y18435173D01*
X-5021744Y18497895D01*
X-5021943Y18563261D01*
X-5021982Y18645268D01*
X-5023386Y18703316D01*
X-5028086Y18742465D01*
X-5038013Y18767780D01*
X-5055097Y18784323D01*
X-5081268Y18797156D01*
X-5116225Y18810491D01*
X-5154404Y18825007D01*
X-5149859Y18567389D01*
X-5148029Y18474519D01*
X-5145888Y18405889D01*
X-5142819Y18356711D01*
X-5138206Y18322198D01*
X-5131432Y18297562D01*
X-5121881Y18278016D01*
X-5110366Y18260770D01*
X-5054810Y18205680D01*
X-4987020Y18173822D01*
X-4913287Y18166191D01*
X-4839907Y18183780D01*
X-4839907Y18183780D01*
G37*
X-4839907Y18183780D02*
X-4793328Y18210723D01*
X-4760943Y18237466D01*
X-4737258Y18265484D01*
X-4720941Y18299748D01*
X-4710661Y18345227D01*
X-4705086Y18406892D01*
X-4702884Y18489711D01*
X-4702629Y18549246D01*
X-4702629Y18768391D01*
X-4764314Y18796044D01*
X-4826000Y18823697D01*
X-4833257Y18583670D01*
X-4836256Y18494028D01*
X-4839402Y18428962D01*
X-4843299Y18384026D01*
X-4848553Y18354770D01*
X-4855769Y18336748D01*
X-4865550Y18325511D01*
X-4868688Y18323079D01*
X-4916239Y18304083D01*
X-4964303Y18311600D01*
X-4992914Y18331543D01*
X-5004553Y18345675D01*
X-5012609Y18364220D01*
X-5017729Y18392334D01*
X-5020559Y18435173D01*
X-5021744Y18497895D01*
X-5021943Y18563261D01*
X-5021982Y18645268D01*
X-5023386Y18703316D01*
X-5028086Y18742465D01*
X-5038013Y18767780D01*
X-5055097Y18784323D01*
X-5081268Y18797156D01*
X-5116225Y18810491D01*
X-5154404Y18825007D01*
X-5149859Y18567389D01*
X-5148029Y18474519D01*
X-5145888Y18405889D01*
X-5142819Y18356711D01*
X-5138206Y18322198D01*
X-5131432Y18297562D01*
X-5121881Y18278016D01*
X-5110366Y18260770D01*
X-5054810Y18205680D01*
X-4987020Y18173822D01*
X-4913287Y18166191D01*
X-4839907Y18183780D01*
G36*
X-6514885Y18177962D02*
X-6446855Y18213733D01*
X-6396649Y18271301D01*
X-6378815Y18308312D01*
X-6364937Y18363882D01*
X-6357833Y18434096D01*
X-6357160Y18510727D01*
X-6362573Y18585552D01*
X-6373730Y18650342D01*
X-6390286Y18696873D01*
X-6395374Y18704887D01*
X-6455645Y18764707D01*
X-6527231Y18800535D01*
X-6604908Y18811020D01*
X-6683452Y18794810D01*
X-6705311Y18785092D01*
X-6747878Y18755143D01*
X-6785237Y18715433D01*
X-6788768Y18710397D01*
X-6803119Y18686124D01*
X-6812606Y18660178D01*
X-6818210Y18626022D01*
X-6820914Y18577119D01*
X-6821701Y18506935D01*
X-6821714Y18491200D01*
X-6821678Y18486192D01*
X-6676571Y18486192D01*
X-6675727Y18552430D01*
X-6672404Y18596386D01*
X-6665417Y18624779D01*
X-6653584Y18644325D01*
X-6647543Y18650857D01*
X-6612814Y18675680D01*
X-6579097Y18674548D01*
X-6545005Y18653016D01*
X-6524671Y18630029D01*
X-6512629Y18596478D01*
X-6505866Y18543569D01*
X-6505402Y18537399D01*
X-6504248Y18441513D01*
X-6516312Y18370299D01*
X-6541430Y18324194D01*
X-6579440Y18303635D01*
X-6593008Y18302514D01*
X-6628636Y18308152D01*
X-6653006Y18327686D01*
X-6667907Y18365042D01*
X-6675125Y18424150D01*
X-6676571Y18486192D01*
X-6821678Y18486192D01*
X-6821174Y18416413D01*
X-6818904Y18364159D01*
X-6813932Y18327949D01*
X-6805287Y18301299D01*
X-6791995Y18277722D01*
X-6789057Y18273338D01*
X-6739687Y18214249D01*
X-6685891Y18179947D01*
X-6620398Y18166331D01*
X-6598158Y18165665D01*
X-6514885Y18177962D01*
X-6514885Y18177962D01*
G37*
X-6514885Y18177962D02*
X-6446855Y18213733D01*
X-6396649Y18271301D01*
X-6378815Y18308312D01*
X-6364937Y18363882D01*
X-6357833Y18434096D01*
X-6357160Y18510727D01*
X-6362573Y18585552D01*
X-6373730Y18650342D01*
X-6390286Y18696873D01*
X-6395374Y18704887D01*
X-6455645Y18764707D01*
X-6527231Y18800535D01*
X-6604908Y18811020D01*
X-6683452Y18794810D01*
X-6705311Y18785092D01*
X-6747878Y18755143D01*
X-6785237Y18715433D01*
X-6788768Y18710397D01*
X-6803119Y18686124D01*
X-6812606Y18660178D01*
X-6818210Y18626022D01*
X-6820914Y18577119D01*
X-6821701Y18506935D01*
X-6821714Y18491200D01*
X-6821678Y18486192D01*
X-6676571Y18486192D01*
X-6675727Y18552430D01*
X-6672404Y18596386D01*
X-6665417Y18624779D01*
X-6653584Y18644325D01*
X-6647543Y18650857D01*
X-6612814Y18675680D01*
X-6579097Y18674548D01*
X-6545005Y18653016D01*
X-6524671Y18630029D01*
X-6512629Y18596478D01*
X-6505866Y18543569D01*
X-6505402Y18537399D01*
X-6504248Y18441513D01*
X-6516312Y18370299D01*
X-6541430Y18324194D01*
X-6579440Y18303635D01*
X-6593008Y18302514D01*
X-6628636Y18308152D01*
X-6653006Y18327686D01*
X-6667907Y18365042D01*
X-6675125Y18424150D01*
X-6676571Y18486192D01*
X-6821678Y18486192D01*
X-6821174Y18416413D01*
X-6818904Y18364159D01*
X-6813932Y18327949D01*
X-6805287Y18301299D01*
X-6791995Y18277722D01*
X-6789057Y18273338D01*
X-6739687Y18214249D01*
X-6685891Y18179947D01*
X-6620398Y18166331D01*
X-6598158Y18165665D01*
X-6514885Y18177962D01*
G36*
X-5387697Y18187239D02*
X-5330473Y18225735D01*
X-5286251Y18281335D01*
X-5259833Y18352086D01*
X-5254490Y18404162D01*
X-5255097Y18425893D01*
X-5260178Y18442531D01*
X-5274145Y18457437D01*
X-5301411Y18473973D01*
X-5346388Y18495498D01*
X-5413489Y18525374D01*
X-5413829Y18525524D01*
X-5475593Y18553813D01*
X-5526241Y18578933D01*
X-5560596Y18598179D01*
X-5573482Y18608848D01*
X-5573486Y18608934D01*
X-5562128Y18632166D01*
X-5535569Y18657774D01*
X-5505077Y18676221D01*
X-5489630Y18679886D01*
X-5447485Y18667212D01*
X-5411192Y18635471D01*
X-5393483Y18600572D01*
X-5376448Y18574845D01*
X-5343078Y18545546D01*
X-5303851Y18520235D01*
X-5269244Y18506471D01*
X-5262007Y18505714D01*
X-5253861Y18518160D01*
X-5253370Y18549972D01*
X-5259357Y18592866D01*
X-5270643Y18638558D01*
X-5286050Y18678761D01*
X-5286829Y18680322D01*
X-5333196Y18745062D01*
X-5393289Y18789097D01*
X-5461535Y18810711D01*
X-5532362Y18808185D01*
X-5600196Y18779804D01*
X-5603212Y18777808D01*
X-5656573Y18729448D01*
X-5691660Y18666352D01*
X-5711078Y18583387D01*
X-5713684Y18560078D01*
X-5718299Y18450055D01*
X-5712767Y18398748D01*
X-5573486Y18398748D01*
X-5571676Y18430753D01*
X-5561778Y18440093D01*
X-5537102Y18433105D01*
X-5498205Y18416587D01*
X-5454725Y18395881D01*
X-5453644Y18395333D01*
X-5416791Y18375949D01*
X-5402000Y18363013D01*
X-5405647Y18349451D01*
X-5421005Y18331632D01*
X-5460077Y18305845D01*
X-5502154Y18303950D01*
X-5539897Y18322717D01*
X-5565966Y18358915D01*
X-5573486Y18398748D01*
X-5712767Y18398748D01*
X-5708806Y18362027D01*
X-5684450Y18292212D01*
X-5650544Y18243302D01*
X-5589347Y18193878D01*
X-5521937Y18169359D01*
X-5453120Y18167797D01*
X-5387697Y18187239D01*
X-5387697Y18187239D01*
G37*
X-5387697Y18187239D02*
X-5330473Y18225735D01*
X-5286251Y18281335D01*
X-5259833Y18352086D01*
X-5254490Y18404162D01*
X-5255097Y18425893D01*
X-5260178Y18442531D01*
X-5274145Y18457437D01*
X-5301411Y18473973D01*
X-5346388Y18495498D01*
X-5413489Y18525374D01*
X-5413829Y18525524D01*
X-5475593Y18553813D01*
X-5526241Y18578933D01*
X-5560596Y18598179D01*
X-5573482Y18608848D01*
X-5573486Y18608934D01*
X-5562128Y18632166D01*
X-5535569Y18657774D01*
X-5505077Y18676221D01*
X-5489630Y18679886D01*
X-5447485Y18667212D01*
X-5411192Y18635471D01*
X-5393483Y18600572D01*
X-5376448Y18574845D01*
X-5343078Y18545546D01*
X-5303851Y18520235D01*
X-5269244Y18506471D01*
X-5262007Y18505714D01*
X-5253861Y18518160D01*
X-5253370Y18549972D01*
X-5259357Y18592866D01*
X-5270643Y18638558D01*
X-5286050Y18678761D01*
X-5286829Y18680322D01*
X-5333196Y18745062D01*
X-5393289Y18789097D01*
X-5461535Y18810711D01*
X-5532362Y18808185D01*
X-5600196Y18779804D01*
X-5603212Y18777808D01*
X-5656573Y18729448D01*
X-5691660Y18666352D01*
X-5711078Y18583387D01*
X-5713684Y18560078D01*
X-5718299Y18450055D01*
X-5712767Y18398748D01*
X-5573486Y18398748D01*
X-5571676Y18430753D01*
X-5561778Y18440093D01*
X-5537102Y18433105D01*
X-5498205Y18416587D01*
X-5454725Y18395881D01*
X-5453644Y18395333D01*
X-5416791Y18375949D01*
X-5402000Y18363013D01*
X-5405647Y18349451D01*
X-5421005Y18331632D01*
X-5460077Y18305845D01*
X-5502154Y18303950D01*
X-5539897Y18322717D01*
X-5565966Y18358915D01*
X-5573486Y18398748D01*
X-5712767Y18398748D01*
X-5708806Y18362027D01*
X-5684450Y18292212D01*
X-5650544Y18243302D01*
X-5589347Y18193878D01*
X-5521937Y18169359D01*
X-5453120Y18167797D01*
X-5387697Y18187239D01*
G36*
X-4180114Y18107289D02*
X-4175861Y18166613D01*
X-4170975Y18201572D01*
X-4164205Y18216820D01*
X-4154298Y18217015D01*
X-4151086Y18215195D01*
X-4108356Y18202015D01*
X-4052773Y18202785D01*
X-3996263Y18216333D01*
X-3960918Y18233861D01*
X-3924679Y18261861D01*
X-3898187Y18293549D01*
X-3880001Y18333813D01*
X-3868678Y18387543D01*
X-3862778Y18459626D01*
X-3860857Y18554951D01*
X-3860823Y18573237D01*
X-3860800Y18778646D01*
X-3906509Y18794580D01*
X-3938973Y18805420D01*
X-3956785Y18810468D01*
X-3957309Y18810514D01*
X-3959063Y18796828D01*
X-3960556Y18759076D01*
X-3961674Y18702224D01*
X-3962303Y18631234D01*
X-3962400Y18588073D01*
X-3962602Y18502973D01*
X-3963642Y18441981D01*
X-3966169Y18400177D01*
X-3970836Y18372642D01*
X-3978293Y18354456D01*
X-3989189Y18340698D01*
X-3995993Y18334073D01*
X-4042728Y18307375D01*
X-4093728Y18305375D01*
X-4139999Y18327955D01*
X-4148556Y18336107D01*
X-4161107Y18351436D01*
X-4169812Y18369618D01*
X-4175369Y18395909D01*
X-4178474Y18435562D01*
X-4179824Y18493832D01*
X-4180114Y18574173D01*
X-4180114Y18778646D01*
X-4225823Y18794580D01*
X-4258287Y18805420D01*
X-4276099Y18810468D01*
X-4276623Y18810514D01*
X-4277963Y18796623D01*
X-4279172Y18757439D01*
X-4280199Y18696700D01*
X-4280998Y18618141D01*
X-4281519Y18525498D01*
X-4281714Y18422509D01*
X-4281714Y18025342D01*
X-4234543Y18005444D01*
X-4187371Y17985547D01*
X-4180114Y18107289D01*
X-4180114Y18107289D01*
G37*
X-4180114Y18107289D02*
X-4175861Y18166613D01*
X-4170975Y18201572D01*
X-4164205Y18216820D01*
X-4154298Y18217015D01*
X-4151086Y18215195D01*
X-4108356Y18202015D01*
X-4052773Y18202785D01*
X-3996263Y18216333D01*
X-3960918Y18233861D01*
X-3924679Y18261861D01*
X-3898187Y18293549D01*
X-3880001Y18333813D01*
X-3868678Y18387543D01*
X-3862778Y18459626D01*
X-3860857Y18554951D01*
X-3860823Y18573237D01*
X-3860800Y18778646D01*
X-3906509Y18794580D01*
X-3938973Y18805420D01*
X-3956785Y18810468D01*
X-3957309Y18810514D01*
X-3959063Y18796828D01*
X-3960556Y18759076D01*
X-3961674Y18702224D01*
X-3962303Y18631234D01*
X-3962400Y18588073D01*
X-3962602Y18502973D01*
X-3963642Y18441981D01*
X-3966169Y18400177D01*
X-3970836Y18372642D01*
X-3978293Y18354456D01*
X-3989189Y18340698D01*
X-3995993Y18334073D01*
X-4042728Y18307375D01*
X-4093728Y18305375D01*
X-4139999Y18327955D01*
X-4148556Y18336107D01*
X-4161107Y18351436D01*
X-4169812Y18369618D01*
X-4175369Y18395909D01*
X-4178474Y18435562D01*
X-4179824Y18493832D01*
X-4180114Y18574173D01*
X-4180114Y18778646D01*
X-4225823Y18794580D01*
X-4258287Y18805420D01*
X-4276099Y18810468D01*
X-4276623Y18810514D01*
X-4277963Y18796623D01*
X-4279172Y18757439D01*
X-4280199Y18696700D01*
X-4280998Y18618141D01*
X-4281519Y18525498D01*
X-4281714Y18422509D01*
X-4281714Y18025342D01*
X-4234543Y18005444D01*
X-4187371Y17985547D01*
X-4180114Y18107289D01*
G36*
X-3516256Y18206968D02*
X-3459384Y18228087D01*
X-3458733Y18228493D01*
X-3423560Y18254380D01*
X-3397593Y18284633D01*
X-3379330Y18324058D01*
X-3367268Y18377462D01*
X-3359904Y18449651D01*
X-3355736Y18545432D01*
X-3355371Y18559078D01*
X-3350124Y18764842D01*
X-3394284Y18787678D01*
X-3426237Y18803110D01*
X-3445530Y18810423D01*
X-3446422Y18810514D01*
X-3449761Y18797022D01*
X-3452413Y18760626D01*
X-3454044Y18707452D01*
X-3454400Y18664393D01*
X-3454408Y18594641D01*
X-3457597Y18550837D01*
X-3468712Y18529944D01*
X-3492499Y18528925D01*
X-3533704Y18544741D01*
X-3595914Y18573815D01*
X-3641659Y18597963D01*
X-3665187Y18618913D01*
X-3672104Y18641747D01*
X-3672114Y18642877D01*
X-3660701Y18682212D01*
X-3626908Y18703462D01*
X-3575191Y18706539D01*
X-3537939Y18706006D01*
X-3518297Y18716735D01*
X-3506048Y18742505D01*
X-3498998Y18775337D01*
X-3509158Y18793966D01*
X-3512983Y18796632D01*
X-3548999Y18807340D01*
X-3599434Y18808856D01*
X-3651374Y18801759D01*
X-3688178Y18788788D01*
X-3739062Y18745585D01*
X-3767986Y18685446D01*
X-3773714Y18638462D01*
X-3769343Y18596082D01*
X-3753525Y18561488D01*
X-3722203Y18530763D01*
X-3671322Y18499990D01*
X-3596824Y18465252D01*
X-3592286Y18463288D01*
X-3525179Y18432287D01*
X-3483768Y18406862D01*
X-3466019Y18384014D01*
X-3469893Y18360745D01*
X-3493357Y18334056D01*
X-3500373Y18327914D01*
X-3547370Y18304100D01*
X-3596067Y18305103D01*
X-3638478Y18328451D01*
X-3666616Y18371675D01*
X-3669231Y18380160D01*
X-3694692Y18421308D01*
X-3726999Y18441128D01*
X-3773714Y18460770D01*
X-3773714Y18409950D01*
X-3759504Y18336082D01*
X-3717325Y18268327D01*
X-3695376Y18245661D01*
X-3645483Y18216569D01*
X-3582033Y18203400D01*
X-3516256Y18206968D01*
X-3516256Y18206968D01*
G37*
X-3516256Y18206968D02*
X-3459384Y18228087D01*
X-3458733Y18228493D01*
X-3423560Y18254380D01*
X-3397593Y18284633D01*
X-3379330Y18324058D01*
X-3367268Y18377462D01*
X-3359904Y18449651D01*
X-3355736Y18545432D01*
X-3355371Y18559078D01*
X-3350124Y18764842D01*
X-3394284Y18787678D01*
X-3426237Y18803110D01*
X-3445530Y18810423D01*
X-3446422Y18810514D01*
X-3449761Y18797022D01*
X-3452413Y18760626D01*
X-3454044Y18707452D01*
X-3454400Y18664393D01*
X-3454408Y18594641D01*
X-3457597Y18550837D01*
X-3468712Y18529944D01*
X-3492499Y18528925D01*
X-3533704Y18544741D01*
X-3595914Y18573815D01*
X-3641659Y18597963D01*
X-3665187Y18618913D01*
X-3672104Y18641747D01*
X-3672114Y18642877D01*
X-3660701Y18682212D01*
X-3626908Y18703462D01*
X-3575191Y18706539D01*
X-3537939Y18706006D01*
X-3518297Y18716735D01*
X-3506048Y18742505D01*
X-3498998Y18775337D01*
X-3509158Y18793966D01*
X-3512983Y18796632D01*
X-3548999Y18807340D01*
X-3599434Y18808856D01*
X-3651374Y18801759D01*
X-3688178Y18788788D01*
X-3739062Y18745585D01*
X-3767986Y18685446D01*
X-3773714Y18638462D01*
X-3769343Y18596082D01*
X-3753525Y18561488D01*
X-3722203Y18530763D01*
X-3671322Y18499990D01*
X-3596824Y18465252D01*
X-3592286Y18463288D01*
X-3525179Y18432287D01*
X-3483768Y18406862D01*
X-3466019Y18384014D01*
X-3469893Y18360745D01*
X-3493357Y18334056D01*
X-3500373Y18327914D01*
X-3547370Y18304100D01*
X-3596067Y18305103D01*
X-3638478Y18328451D01*
X-3666616Y18371675D01*
X-3669231Y18380160D01*
X-3694692Y18421308D01*
X-3726999Y18441128D01*
X-3773714Y18460770D01*
X-3773714Y18409950D01*
X-3759504Y18336082D01*
X-3717325Y18268327D01*
X-3695376Y18245661D01*
X-3645483Y18216569D01*
X-3582033Y18203400D01*
X-3516256Y18206968D01*
G36*
X-3026074Y18205755D02*
X-2960142Y18230084D01*
X-2906727Y18273117D01*
X-2885836Y18303409D01*
X-2863061Y18358994D01*
X-2863534Y18399186D01*
X-2887438Y18426217D01*
X-2896283Y18430813D01*
X-2934470Y18445144D01*
X-2953972Y18441472D01*
X-2960578Y18417407D01*
X-2960914Y18404114D01*
X-2973008Y18355210D01*
X-3004529Y18320999D01*
X-3048341Y18304476D01*
X-3097305Y18308634D01*
X-3137106Y18330227D01*
X-3150550Y18342544D01*
X-3160079Y18357487D01*
X-3166515Y18380075D01*
X-3170683Y18415328D01*
X-3173403Y18468266D01*
X-3175498Y18543907D01*
X-3176040Y18567857D01*
X-3178019Y18649790D01*
X-3180269Y18707455D01*
X-3183643Y18745608D01*
X-3188994Y18769004D01*
X-3197176Y18782398D01*
X-3209041Y18790545D01*
X-3216638Y18794144D01*
X-3248898Y18806452D01*
X-3267889Y18810514D01*
X-3274164Y18796948D01*
X-3277994Y18755934D01*
X-3279400Y18686999D01*
X-3278402Y18589669D01*
X-3278092Y18574657D01*
X-3275899Y18485859D01*
X-3273307Y18421019D01*
X-3269618Y18375067D01*
X-3264136Y18342935D01*
X-3256165Y18319553D01*
X-3245007Y18299852D01*
X-3239170Y18291410D01*
X-3205704Y18254057D01*
X-3168273Y18225003D01*
X-3163691Y18222467D01*
X-3096574Y18202443D01*
X-3026074Y18205755D01*
X-3026074Y18205755D01*
G37*
X-3026074Y18205755D02*
X-2960142Y18230084D01*
X-2906727Y18273117D01*
X-2885836Y18303409D01*
X-2863061Y18358994D01*
X-2863534Y18399186D01*
X-2887438Y18426217D01*
X-2896283Y18430813D01*
X-2934470Y18445144D01*
X-2953972Y18441472D01*
X-2960578Y18417407D01*
X-2960914Y18404114D01*
X-2973008Y18355210D01*
X-3004529Y18320999D01*
X-3048341Y18304476D01*
X-3097305Y18308634D01*
X-3137106Y18330227D01*
X-3150550Y18342544D01*
X-3160079Y18357487D01*
X-3166515Y18380075D01*
X-3170683Y18415328D01*
X-3173403Y18468266D01*
X-3175498Y18543907D01*
X-3176040Y18567857D01*
X-3178019Y18649790D01*
X-3180269Y18707455D01*
X-3183643Y18745608D01*
X-3188994Y18769004D01*
X-3197176Y18782398D01*
X-3209041Y18790545D01*
X-3216638Y18794144D01*
X-3248898Y18806452D01*
X-3267889Y18810514D01*
X-3274164Y18796948D01*
X-3277994Y18755934D01*
X-3279400Y18686999D01*
X-3278402Y18589669D01*
X-3278092Y18574657D01*
X-3275899Y18485859D01*
X-3273307Y18421019D01*
X-3269618Y18375067D01*
X-3264136Y18342935D01*
X-3256165Y18319553D01*
X-3245007Y18299852D01*
X-3239170Y18291410D01*
X-3205704Y18254057D01*
X-3168273Y18225003D01*
X-3163691Y18222467D01*
X-3096574Y18202443D01*
X-3026074Y18205755D01*
G36*
X-2365883Y18321358D02*
X-2366067Y18429837D01*
X-2366781Y18513287D01*
X-2368325Y18575704D01*
X-2370999Y18621085D01*
X-2375106Y18653429D01*
X-2380945Y18676733D01*
X-2388818Y18694995D01*
X-2394779Y18705418D01*
X-2444145Y18761945D01*
X-2506736Y18797377D01*
X-2575987Y18810090D01*
X-2645332Y18798463D01*
X-2686625Y18777568D01*
X-2729975Y18741422D01*
X-2759519Y18697276D01*
X-2777345Y18639462D01*
X-2785537Y18562313D01*
X-2786698Y18505714D01*
X-2786542Y18501647D01*
X-2685143Y18501647D01*
X-2684524Y18566550D01*
X-2681686Y18609514D01*
X-2675160Y18637622D01*
X-2663477Y18657953D01*
X-2649517Y18673288D01*
X-2602635Y18702890D01*
X-2552299Y18705419D01*
X-2504724Y18680705D01*
X-2501021Y18677356D01*
X-2485217Y18659935D01*
X-2475307Y18639209D01*
X-2469942Y18608362D01*
X-2467772Y18560577D01*
X-2467429Y18507748D01*
X-2468173Y18441381D01*
X-2471252Y18397106D01*
X-2477939Y18368009D01*
X-2489504Y18347173D01*
X-2498987Y18336107D01*
X-2543040Y18308198D01*
X-2593776Y18304843D01*
X-2642204Y18326159D01*
X-2651550Y18334073D01*
X-2667460Y18351647D01*
X-2677390Y18372587D01*
X-2682722Y18403782D01*
X-2684837Y18452122D01*
X-2685143Y18501647D01*
X-2786542Y18501647D01*
X-2783190Y18414568D01*
X-2771274Y18346086D01*
X-2748865Y18294600D01*
X-2713876Y18254443D01*
X-2686625Y18233861D01*
X-2637093Y18211625D01*
X-2579684Y18201304D01*
X-2526318Y18204067D01*
X-2496457Y18215212D01*
X-2484739Y18218383D01*
X-2476963Y18206557D01*
X-2471535Y18174866D01*
X-2467429Y18126593D01*
X-2462933Y18072829D01*
X-2456687Y18040482D01*
X-2445324Y18021985D01*
X-2425472Y18009770D01*
X-2413000Y18004362D01*
X-2365829Y17984601D01*
X-2365883Y18321358D01*
X-2365883Y18321358D01*
G37*
X-2365883Y18321358D02*
X-2366067Y18429837D01*
X-2366781Y18513287D01*
X-2368325Y18575704D01*
X-2370999Y18621085D01*
X-2375106Y18653429D01*
X-2380945Y18676733D01*
X-2388818Y18694995D01*
X-2394779Y18705418D01*
X-2444145Y18761945D01*
X-2506736Y18797377D01*
X-2575987Y18810090D01*
X-2645332Y18798463D01*
X-2686625Y18777568D01*
X-2729975Y18741422D01*
X-2759519Y18697276D01*
X-2777345Y18639462D01*
X-2785537Y18562313D01*
X-2786698Y18505714D01*
X-2786542Y18501647D01*
X-2685143Y18501647D01*
X-2684524Y18566550D01*
X-2681686Y18609514D01*
X-2675160Y18637622D01*
X-2663477Y18657953D01*
X-2649517Y18673288D01*
X-2602635Y18702890D01*
X-2552299Y18705419D01*
X-2504724Y18680705D01*
X-2501021Y18677356D01*
X-2485217Y18659935D01*
X-2475307Y18639209D01*
X-2469942Y18608362D01*
X-2467772Y18560577D01*
X-2467429Y18507748D01*
X-2468173Y18441381D01*
X-2471252Y18397106D01*
X-2477939Y18368009D01*
X-2489504Y18347173D01*
X-2498987Y18336107D01*
X-2543040Y18308198D01*
X-2593776Y18304843D01*
X-2642204Y18326159D01*
X-2651550Y18334073D01*
X-2667460Y18351647D01*
X-2677390Y18372587D01*
X-2682722Y18403782D01*
X-2684837Y18452122D01*
X-2685143Y18501647D01*
X-2786542Y18501647D01*
X-2783190Y18414568D01*
X-2771274Y18346086D01*
X-2748865Y18294600D01*
X-2713876Y18254443D01*
X-2686625Y18233861D01*
X-2637093Y18211625D01*
X-2579684Y18201304D01*
X-2526318Y18204067D01*
X-2496457Y18215212D01*
X-2484739Y18218383D01*
X-2476963Y18206557D01*
X-2471535Y18174866D01*
X-2467429Y18126593D01*
X-2462933Y18072829D01*
X-2456687Y18040482D01*
X-2445324Y18021985D01*
X-2425472Y18009770D01*
X-2413000Y18004362D01*
X-2365829Y17984601D01*
X-2365883Y18321358D01*
G36*
X-1776167Y18214663D02*
X-1773952Y18252850D01*
X-1772216Y18310886D01*
X-1771101Y18384180D01*
X-1770743Y18461055D01*
X-1770743Y18721196D01*
X-1816674Y18767127D01*
X-1848325Y18795429D01*
X-1876110Y18806893D01*
X-1914085Y18806168D01*
X-1929160Y18804321D01*
X-1976274Y18798948D01*
X-2015244Y18795869D01*
X-2024743Y18795585D01*
X-2056767Y18797445D01*
X-2102568Y18802114D01*
X-2120326Y18804321D01*
X-2163943Y18807735D01*
X-2193255Y18800320D01*
X-2222320Y18777427D01*
X-2232812Y18767127D01*
X-2278743Y18721196D01*
X-2278743Y18234602D01*
X-2241774Y18217758D01*
X-2209941Y18205282D01*
X-2191317Y18200914D01*
X-2186542Y18214718D01*
X-2182079Y18253286D01*
X-2178225Y18312356D01*
X-2175278Y18387663D01*
X-2173857Y18451286D01*
X-2169886Y18701657D01*
X-2135241Y18706556D01*
X-2103732Y18703131D01*
X-2088292Y18692041D01*
X-2083977Y18671308D01*
X-2080292Y18627145D01*
X-2077531Y18565146D01*
X-2075988Y18490909D01*
X-2075765Y18452706D01*
X-2075543Y18232783D01*
X-2029834Y18216849D01*
X-1997482Y18206015D01*
X-1979885Y18200962D01*
X-1979377Y18200914D01*
X-1977612Y18214648D01*
X-1975671Y18252730D01*
X-1973718Y18310482D01*
X-1971916Y18383227D01*
X-1970657Y18451286D01*
X-1966686Y18701657D01*
X-1879600Y18701657D01*
X-1875604Y18473240D01*
X-1871608Y18244822D01*
X-1829153Y18222868D01*
X-1797808Y18207793D01*
X-1779256Y18200951D01*
X-1778721Y18200914D01*
X-1776167Y18214663D01*
X-1776167Y18214663D01*
G37*
X-1776167Y18214663D02*
X-1773952Y18252850D01*
X-1772216Y18310886D01*
X-1771101Y18384180D01*
X-1770743Y18461055D01*
X-1770743Y18721196D01*
X-1816674Y18767127D01*
X-1848325Y18795429D01*
X-1876110Y18806893D01*
X-1914085Y18806168D01*
X-1929160Y18804321D01*
X-1976274Y18798948D01*
X-2015244Y18795869D01*
X-2024743Y18795585D01*
X-2056767Y18797445D01*
X-2102568Y18802114D01*
X-2120326Y18804321D01*
X-2163943Y18807735D01*
X-2193255Y18800320D01*
X-2222320Y18777427D01*
X-2232812Y18767127D01*
X-2278743Y18721196D01*
X-2278743Y18234602D01*
X-2241774Y18217758D01*
X-2209941Y18205282D01*
X-2191317Y18200914D01*
X-2186542Y18214718D01*
X-2182079Y18253286D01*
X-2178225Y18312356D01*
X-2175278Y18387663D01*
X-2173857Y18451286D01*
X-2169886Y18701657D01*
X-2135241Y18706556D01*
X-2103732Y18703131D01*
X-2088292Y18692041D01*
X-2083977Y18671308D01*
X-2080292Y18627145D01*
X-2077531Y18565146D01*
X-2075988Y18490909D01*
X-2075765Y18452706D01*
X-2075543Y18232783D01*
X-2029834Y18216849D01*
X-1997482Y18206015D01*
X-1979885Y18200962D01*
X-1979377Y18200914D01*
X-1977612Y18214648D01*
X-1975671Y18252730D01*
X-1973718Y18310482D01*
X-1971916Y18383227D01*
X-1970657Y18451286D01*
X-1966686Y18701657D01*
X-1879600Y18701657D01*
X-1875604Y18473240D01*
X-1871608Y18244822D01*
X-1829153Y18222868D01*
X-1797808Y18207793D01*
X-1779256Y18200951D01*
X-1778721Y18200914D01*
X-1776167Y18214663D01*
G36*
X-1411124Y18212335D02*
X-1369333Y18231344D01*
X-1336531Y18254378D01*
X-1312497Y18280133D01*
X-1295903Y18313358D01*
X-1285423Y18358800D01*
X-1279729Y18421207D01*
X-1277493Y18505327D01*
X-1277257Y18560721D01*
X-1277257Y18776826D01*
X-1314226Y18793670D01*
X-1343344Y18805981D01*
X-1357769Y18810514D01*
X-1360528Y18797025D01*
X-1362718Y18760653D01*
X-1364058Y18707542D01*
X-1364343Y18665372D01*
X-1365566Y18604447D01*
X-1368864Y18556115D01*
X-1373679Y18526518D01*
X-1377504Y18520229D01*
X-1403217Y18526652D01*
X-1443582Y18543125D01*
X-1490321Y18565458D01*
X-1535155Y18589457D01*
X-1569807Y18610930D01*
X-1585998Y18625685D01*
X-1586062Y18625845D01*
X-1584670Y18653152D01*
X-1572182Y18679219D01*
X-1550257Y18700392D01*
X-1518257Y18707474D01*
X-1490908Y18706649D01*
X-1452174Y18706042D01*
X-1431842Y18715116D01*
X-1419631Y18739092D01*
X-1418091Y18743613D01*
X-1412797Y18777806D01*
X-1426953Y18798568D01*
X-1463852Y18808462D01*
X-1503711Y18810292D01*
X-1575438Y18796727D01*
X-1612568Y18777355D01*
X-1658424Y18731845D01*
X-1682744Y18675983D01*
X-1684927Y18616957D01*
X-1664371Y18561953D01*
X-1633451Y18527486D01*
X-1602580Y18508189D01*
X-1554058Y18483759D01*
X-1497515Y18458985D01*
X-1488090Y18455199D01*
X-1425981Y18427791D01*
X-1390178Y18403634D01*
X-1378663Y18379619D01*
X-1389420Y18352635D01*
X-1407886Y18331543D01*
X-1451531Y18305572D01*
X-1499554Y18303624D01*
X-1543594Y18323637D01*
X-1575291Y18363551D01*
X-1579451Y18373848D01*
X-1603673Y18411724D01*
X-1639035Y18439842D01*
X-1683657Y18462917D01*
X-1683657Y18397485D01*
X-1681031Y18357506D01*
X-1669770Y18325997D01*
X-1644801Y18292378D01*
X-1620831Y18266484D01*
X-1583559Y18229817D01*
X-1554599Y18210121D01*
X-1523495Y18202220D01*
X-1488287Y18200914D01*
X-1411124Y18212335D01*
X-1411124Y18212335D01*
G37*
X-1411124Y18212335D02*
X-1369333Y18231344D01*
X-1336531Y18254378D01*
X-1312497Y18280133D01*
X-1295903Y18313358D01*
X-1285423Y18358800D01*
X-1279729Y18421207D01*
X-1277493Y18505327D01*
X-1277257Y18560721D01*
X-1277257Y18776826D01*
X-1314226Y18793670D01*
X-1343344Y18805981D01*
X-1357769Y18810514D01*
X-1360528Y18797025D01*
X-1362718Y18760653D01*
X-1364058Y18707542D01*
X-1364343Y18665372D01*
X-1365566Y18604447D01*
X-1368864Y18556115D01*
X-1373679Y18526518D01*
X-1377504Y18520229D01*
X-1403217Y18526652D01*
X-1443582Y18543125D01*
X-1490321Y18565458D01*
X-1535155Y18589457D01*
X-1569807Y18610930D01*
X-1585998Y18625685D01*
X-1586062Y18625845D01*
X-1584670Y18653152D01*
X-1572182Y18679219D01*
X-1550257Y18700392D01*
X-1518257Y18707474D01*
X-1490908Y18706649D01*
X-1452174Y18706042D01*
X-1431842Y18715116D01*
X-1419631Y18739092D01*
X-1418091Y18743613D01*
X-1412797Y18777806D01*
X-1426953Y18798568D01*
X-1463852Y18808462D01*
X-1503711Y18810292D01*
X-1575438Y18796727D01*
X-1612568Y18777355D01*
X-1658424Y18731845D01*
X-1682744Y18675983D01*
X-1684927Y18616957D01*
X-1664371Y18561953D01*
X-1633451Y18527486D01*
X-1602580Y18508189D01*
X-1554058Y18483759D01*
X-1497515Y18458985D01*
X-1488090Y18455199D01*
X-1425981Y18427791D01*
X-1390178Y18403634D01*
X-1378663Y18379619D01*
X-1389420Y18352635D01*
X-1407886Y18331543D01*
X-1451531Y18305572D01*
X-1499554Y18303624D01*
X-1543594Y18323637D01*
X-1575291Y18363551D01*
X-1579451Y18373848D01*
X-1603673Y18411724D01*
X-1639035Y18439842D01*
X-1683657Y18462917D01*
X-1683657Y18397485D01*
X-1681031Y18357506D01*
X-1669770Y18325997D01*
X-1644801Y18292378D01*
X-1620831Y18266484D01*
X-1583559Y18229817D01*
X-1554599Y18210121D01*
X-1523495Y18202220D01*
X-1488287Y18200914D01*
X-1411124Y18212335D01*
G36*
X-903400Y18214752D02*
X-886052Y18222334D01*
X-844644Y18255128D01*
X-809235Y18302547D01*
X-787336Y18353151D01*
X-783771Y18378098D01*
X-795721Y18412927D01*
X-821933Y18431357D01*
X-850036Y18442516D01*
X-862905Y18444572D01*
X-869171Y18429649D01*
X-881544Y18397175D01*
X-886972Y18382502D01*
X-917410Y18331744D01*
X-961480Y18306427D01*
X-1017990Y18307206D01*
X-1022175Y18308203D01*
X-1052345Y18322507D01*
X-1074524Y18350393D01*
X-1089673Y18395287D01*
X-1098750Y18460615D01*
X-1102714Y18549804D01*
X-1103086Y18597261D01*
X-1103270Y18672071D01*
X-1104478Y18723069D01*
X-1107691Y18755471D01*
X-1113891Y18774495D01*
X-1124060Y18785356D01*
X-1139181Y18793272D01*
X-1140054Y18793670D01*
X-1169172Y18805981D01*
X-1183597Y18810514D01*
X-1185814Y18796809D01*
X-1187711Y18758925D01*
X-1189153Y18701715D01*
X-1190002Y18630027D01*
X-1190171Y18577565D01*
X-1189308Y18476047D01*
X-1185930Y18399032D01*
X-1178858Y18342023D01*
X-1166912Y18300526D01*
X-1148910Y18270043D01*
X-1123673Y18246080D01*
X-1098753Y18229355D01*
X-1038829Y18207097D01*
X-969089Y18202076D01*
X-903400Y18214752D01*
X-903400Y18214752D01*
G37*
X-903400Y18214752D02*
X-886052Y18222334D01*
X-844644Y18255128D01*
X-809235Y18302547D01*
X-787336Y18353151D01*
X-783771Y18378098D01*
X-795721Y18412927D01*
X-821933Y18431357D01*
X-850036Y18442516D01*
X-862905Y18444572D01*
X-869171Y18429649D01*
X-881544Y18397175D01*
X-886972Y18382502D01*
X-917410Y18331744D01*
X-961480Y18306427D01*
X-1017990Y18307206D01*
X-1022175Y18308203D01*
X-1052345Y18322507D01*
X-1074524Y18350393D01*
X-1089673Y18395287D01*
X-1098750Y18460615D01*
X-1102714Y18549804D01*
X-1103086Y18597261D01*
X-1103270Y18672071D01*
X-1104478Y18723069D01*
X-1107691Y18755471D01*
X-1113891Y18774495D01*
X-1124060Y18785356D01*
X-1139181Y18793272D01*
X-1140054Y18793670D01*
X-1169172Y18805981D01*
X-1183597Y18810514D01*
X-1185814Y18796809D01*
X-1187711Y18758925D01*
X-1189153Y18701715D01*
X-1190002Y18630027D01*
X-1190171Y18577565D01*
X-1189308Y18476047D01*
X-1185930Y18399032D01*
X-1178858Y18342023D01*
X-1166912Y18300526D01*
X-1148910Y18270043D01*
X-1123673Y18246080D01*
X-1098753Y18229355D01*
X-1038829Y18207097D01*
X-969089Y18202076D01*
X-903400Y18214752D01*
G36*
X-402405Y18222966D02*
X-344979Y18260497D01*
X-317281Y18294096D01*
X-295338Y18355064D01*
X-293595Y18403308D01*
X-297543Y18467816D01*
X-446314Y18532934D01*
X-518651Y18566202D01*
X-565916Y18592964D01*
X-590493Y18616144D01*
X-594763Y18638667D01*
X-581111Y18663455D01*
X-566057Y18679886D01*
X-522254Y18706235D01*
X-474611Y18708081D01*
X-430855Y18687546D01*
X-398711Y18646752D01*
X-392962Y18632347D01*
X-365424Y18587356D01*
X-333742Y18568182D01*
X-290286Y18551779D01*
X-290286Y18613966D01*
X-294128Y18656283D01*
X-309177Y18691969D01*
X-340720Y18732943D01*
X-345408Y18738267D01*
X-380494Y18774720D01*
X-410653Y18794283D01*
X-448385Y18803283D01*
X-479665Y18806230D01*
X-535615Y18806965D01*
X-575445Y18797660D01*
X-600292Y18783846D01*
X-639344Y18753467D01*
X-666375Y18720613D01*
X-683483Y18679294D01*
X-692762Y18623521D01*
X-696307Y18547305D01*
X-696590Y18508622D01*
X-695628Y18462247D01*
X-607993Y18462247D01*
X-606977Y18487126D01*
X-604444Y18491200D01*
X-587726Y18485665D01*
X-551751Y18471017D01*
X-503669Y18450190D01*
X-493614Y18445714D01*
X-432848Y18414814D01*
X-399368Y18387657D01*
X-392010Y18362220D01*
X-409609Y18336481D01*
X-424144Y18325109D01*
X-476590Y18302364D01*
X-525678Y18306122D01*
X-566773Y18333884D01*
X-595242Y18383152D01*
X-604369Y18422257D01*
X-607993Y18462247D01*
X-695628Y18462247D01*
X-694715Y18418249D01*
X-687804Y18351384D01*
X-674116Y18302695D01*
X-651904Y18266849D01*
X-619426Y18238513D01*
X-605267Y18229355D01*
X-540947Y18205507D01*
X-470527Y18204006D01*
X-402405Y18222966D01*
X-402405Y18222966D01*
G37*
X-402405Y18222966D02*
X-344979Y18260497D01*
X-317281Y18294096D01*
X-295338Y18355064D01*
X-293595Y18403308D01*
X-297543Y18467816D01*
X-446314Y18532934D01*
X-518651Y18566202D01*
X-565916Y18592964D01*
X-590493Y18616144D01*
X-594763Y18638667D01*
X-581111Y18663455D01*
X-566057Y18679886D01*
X-522254Y18706235D01*
X-474611Y18708081D01*
X-430855Y18687546D01*
X-398711Y18646752D01*
X-392962Y18632347D01*
X-365424Y18587356D01*
X-333742Y18568182D01*
X-290286Y18551779D01*
X-290286Y18613966D01*
X-294128Y18656283D01*
X-309177Y18691969D01*
X-340720Y18732943D01*
X-345408Y18738267D01*
X-380494Y18774720D01*
X-410653Y18794283D01*
X-448385Y18803283D01*
X-479665Y18806230D01*
X-535615Y18806965D01*
X-575445Y18797660D01*
X-600292Y18783846D01*
X-639344Y18753467D01*
X-666375Y18720613D01*
X-683483Y18679294D01*
X-692762Y18623521D01*
X-696307Y18547305D01*
X-696590Y18508622D01*
X-695628Y18462247D01*
X-607993Y18462247D01*
X-606977Y18487126D01*
X-604444Y18491200D01*
X-587726Y18485665D01*
X-551751Y18471017D01*
X-503669Y18450190D01*
X-493614Y18445714D01*
X-432848Y18414814D01*
X-399368Y18387657D01*
X-392010Y18362220D01*
X-409609Y18336481D01*
X-424144Y18325109D01*
X-476590Y18302364D01*
X-525678Y18306122D01*
X-566773Y18333884D01*
X-595242Y18383152D01*
X-604369Y18422257D01*
X-607993Y18462247D01*
X-695628Y18462247D01*
X-694715Y18418249D01*
X-687804Y18351384D01*
X-674116Y18302695D01*
X-651904Y18266849D01*
X-619426Y18238513D01*
X-605267Y18229355D01*
X-540947Y18205507D01*
X-470527Y18204006D01*
X-402405Y18222966D01*
G36*
X-3452090Y13498348D02*
X-3373546Y13498778D01*
X-3316702Y13499942D01*
X-3277895Y13502207D01*
X-3253462Y13505940D01*
X-3239738Y13511506D01*
X-3233060Y13519273D01*
X-3229764Y13529605D01*
X-3229444Y13530943D01*
X-3224438Y13555079D01*
X-3215171Y13602701D01*
X-3202608Y13668741D01*
X-3187713Y13748128D01*
X-3171449Y13835796D01*
X-3170881Y13838875D01*
X-3154590Y13924789D01*
X-3139348Y14000696D01*
X-3126139Y14062045D01*
X-3115946Y14104282D01*
X-3109752Y14122855D01*
X-3109457Y14123184D01*
X-3091212Y14132253D01*
X-3053595Y14147367D01*
X-3004729Y14165262D01*
X-3004457Y14165358D01*
X-2942907Y14188493D01*
X-2870343Y14217965D01*
X-2801943Y14247597D01*
X-2798706Y14249062D01*
X-2687298Y14299626D01*
X-2440601Y14131160D01*
X-2364923Y14079803D01*
X-2296369Y14033889D01*
X-2238912Y13996030D01*
X-2196524Y13968837D01*
X-2173175Y13954921D01*
X-2170958Y13953889D01*
X-2153990Y13958484D01*
X-2122299Y13980655D01*
X-2074648Y14021447D01*
X-2009802Y14081905D01*
X-1943603Y14146227D01*
X-1879786Y14209612D01*
X-1822671Y14267451D01*
X-1775695Y14316175D01*
X-1742297Y14352210D01*
X-1725915Y14371984D01*
X-1725306Y14373002D01*
X-1723495Y14386572D01*
X-1730317Y14408733D01*
X-1747460Y14442478D01*
X-1776607Y14490800D01*
X-1819445Y14556692D01*
X-1876552Y14641517D01*
X-1927234Y14716177D01*
X-1972539Y14783140D01*
X-2009850Y14838516D01*
X-2036548Y14878420D01*
X-2050015Y14898962D01*
X-2050863Y14900356D01*
X-2049219Y14920038D01*
X-2036755Y14958293D01*
X-2015952Y15007889D01*
X-2008538Y15023728D01*
X-1976186Y15094290D01*
X-1941672Y15174353D01*
X-1913635Y15243629D01*
X-1893432Y15295045D01*
X-1877385Y15334119D01*
X-1868112Y15354541D01*
X-1866959Y15356114D01*
X-1849904Y15358721D01*
X-1809702Y15365863D01*
X-1751698Y15376523D01*
X-1681237Y15389685D01*
X-1603665Y15404333D01*
X-1524328Y15419449D01*
X-1448569Y15434018D01*
X-1381736Y15447022D01*
X-1329172Y15457445D01*
X-1296224Y15464270D01*
X-1288143Y15466199D01*
X-1279795Y15470962D01*
X-1273494Y15481718D01*
X-1268955Y15502098D01*
X-1265896Y15535734D01*
X-1264033Y15586255D01*
X-1263082Y15657292D01*
X-1262760Y15752476D01*
X-1262743Y15791492D01*
X-1262743Y16108799D01*
X-1338943Y16123839D01*
X-1381337Y16131995D01*
X-1444600Y16143899D01*
X-1521038Y16158116D01*
X-1602957Y16173210D01*
X-1625600Y16177355D01*
X-1701194Y16192053D01*
X-1767047Y16206505D01*
X-1817634Y16219375D01*
X-1847426Y16229322D01*
X-1852388Y16232287D01*
X-1864574Y16253283D01*
X-1882047Y16293967D01*
X-1901423Y16346322D01*
X-1905266Y16357600D01*
X-1930661Y16427523D01*
X-1962183Y16506418D01*
X-1993031Y16577266D01*
X-1993183Y16577595D01*
X-2044553Y16688733D01*
X-1875601Y16937253D01*
X-1706648Y17185772D01*
X-1923571Y17403058D01*
X-1989181Y17467726D01*
X-2049021Y17524733D01*
X-2099733Y17571033D01*
X-2137954Y17603584D01*
X-2160325Y17619343D01*
X-2163534Y17620343D01*
X-2182374Y17612469D01*
X-2220820Y17590578D01*
X-2274670Y17557267D01*
X-2339724Y17515131D01*
X-2410060Y17467943D01*
X-2481445Y17419810D01*
X-2545092Y17377928D01*
X-2596959Y17344871D01*
X-2633005Y17323218D01*
X-2649133Y17315543D01*
X-2668811Y17322037D01*
X-2706125Y17339150D01*
X-2753379Y17363326D01*
X-2758388Y17366013D01*
X-2822023Y17397927D01*
X-2865659Y17413579D01*
X-2892798Y17413745D01*
X-2906943Y17399204D01*
X-2907025Y17399000D01*
X-2914095Y17381779D01*
X-2930958Y17340899D01*
X-2956305Y17279525D01*
X-2988829Y17200819D01*
X-3027222Y17107947D01*
X-3070178Y17004072D01*
X-3111778Y16903502D01*
X-3157496Y16792516D01*
X-3199474Y16689703D01*
X-3236452Y16598215D01*
X-3267173Y16521201D01*
X-3290378Y16461815D01*
X-3304810Y16423209D01*
X-3309257Y16408800D01*
X-3298104Y16392272D01*
X-3268931Y16365930D01*
X-3230029Y16336887D01*
X-3119243Y16245039D01*
X-3032649Y16139759D01*
X-2971284Y16023266D01*
X-2936185Y15897776D01*
X-2928392Y15765507D01*
X-2934057Y15704457D01*
X-2964922Y15577795D01*
X-3018080Y15465941D01*
X-3090233Y15370001D01*
X-3178083Y15291076D01*
X-3278335Y15230270D01*
X-3387690Y15188687D01*
X-3502853Y15167428D01*
X-3620525Y15167599D01*
X-3737410Y15190301D01*
X-3850211Y15236638D01*
X-3955631Y15307713D01*
X-3999632Y15347911D01*
X-4084021Y15451129D01*
X-4142778Y15563925D01*
X-4176296Y15683010D01*
X-4184965Y15805095D01*
X-4169177Y15926893D01*
X-4129322Y16045116D01*
X-4065793Y16156475D01*
X-3978979Y16257684D01*
X-3881971Y16336887D01*
X-3841563Y16367162D01*
X-3813018Y16393219D01*
X-3802743Y16408825D01*
X-3808123Y16425843D01*
X-3823425Y16466500D01*
X-3847388Y16527642D01*
X-3878756Y16606119D01*
X-3916268Y16698780D01*
X-3958667Y16802472D01*
X-4000337Y16903526D01*
X-4046310Y17014607D01*
X-4088893Y17117541D01*
X-4126779Y17209165D01*
X-4158660Y17286316D01*
X-4183229Y17345831D01*
X-4199180Y17384544D01*
X-4205090Y17399000D01*
X-4219052Y17413685D01*
X-4246060Y17413642D01*
X-4289587Y17398099D01*
X-4353110Y17366284D01*
X-4353612Y17366013D01*
X-4401440Y17341323D01*
X-4440103Y17323338D01*
X-4461905Y17315614D01*
X-4462867Y17315543D01*
X-4479279Y17323378D01*
X-4515513Y17345165D01*
X-4567526Y17378328D01*
X-4631275Y17420291D01*
X-4701940Y17467943D01*
X-4773884Y17516191D01*
X-4838726Y17558151D01*
X-4892265Y17591227D01*
X-4930303Y17612821D01*
X-4948467Y17620343D01*
X-4965192Y17610457D01*
X-4998820Y17582826D01*
X-5045990Y17540495D01*
X-5103342Y17486505D01*
X-5167516Y17423899D01*
X-5188503Y17402983D01*
X-5405501Y17185623D01*
X-5240332Y16943220D01*
X-5190136Y16868781D01*
X-5146081Y16801972D01*
X-5110638Y16746665D01*
X-5086281Y16706729D01*
X-5075478Y16686036D01*
X-5075162Y16684563D01*
X-5080857Y16665058D01*
X-5096174Y16625822D01*
X-5118463Y16573430D01*
X-5134107Y16538355D01*
X-5163359Y16471201D01*
X-5190906Y16403358D01*
X-5212263Y16346034D01*
X-5218065Y16328572D01*
X-5234548Y16281938D01*
X-5250660Y16245905D01*
X-5259510Y16232287D01*
X-5279040Y16223952D01*
X-5321666Y16212137D01*
X-5381855Y16198181D01*
X-5454078Y16183422D01*
X-5486400Y16177355D01*
X-5568478Y16162273D01*
X-5647205Y16147669D01*
X-5714891Y16134980D01*
X-5763840Y16125642D01*
X-5773057Y16123839D01*
X-5849257Y16108799D01*
X-5849257Y15791492D01*
X-5849086Y15687154D01*
X-5848384Y15608213D01*
X-5846866Y15551038D01*
X-5844251Y15511999D01*
X-5840254Y15487465D01*
X-5834591Y15473805D01*
X-5826980Y15467389D01*
X-5823857Y15466199D01*
X-5805022Y15461980D01*
X-5763412Y15453562D01*
X-5704370Y15441961D01*
X-5633243Y15428195D01*
X-5555375Y15413280D01*
X-5476113Y15398232D01*
X-5400802Y15384069D01*
X-5334787Y15371806D01*
X-5283413Y15362461D01*
X-5252025Y15357050D01*
X-5245041Y15356114D01*
X-5238715Y15343596D01*
X-5224710Y15310246D01*
X-5205645Y15262377D01*
X-5198366Y15243629D01*
X-5169004Y15171195D01*
X-5134429Y15091170D01*
X-5103463Y15023728D01*
X-5080677Y14972159D01*
X-5065518Y14929785D01*
X-5060458Y14903834D01*
X-5061264Y14900356D01*
X-5071959Y14883936D01*
X-5096380Y14847417D01*
X-5131905Y14794687D01*
X-5175913Y14729635D01*
X-5225783Y14656151D01*
X-5235644Y14641645D01*
X-5293508Y14555704D01*
X-5336044Y14490261D01*
X-5364946Y14442304D01*
X-5381910Y14408820D01*
X-5388633Y14386795D01*
X-5386810Y14373217D01*
X-5386764Y14373131D01*
X-5372414Y14355297D01*
X-5340677Y14320817D01*
X-5294990Y14273268D01*
X-5238796Y14216222D01*
X-5175532Y14153255D01*
X-5168398Y14146227D01*
X-5088670Y14069020D01*
X-5027143Y14012330D01*
X-4982579Y13975110D01*
X-4953743Y13956315D01*
X-4941042Y13953889D01*
X-4922506Y13964471D01*
X-4884039Y13988916D01*
X-4829614Y14024612D01*
X-4763202Y14068947D01*
X-4688775Y14119311D01*
X-4671399Y14131160D01*
X-4424703Y14299626D01*
X-4313294Y14249062D01*
X-4245543Y14219595D01*
X-4172817Y14189959D01*
X-4110297Y14166330D01*
X-4107543Y14165358D01*
X-4058640Y14147457D01*
X-4020943Y14132320D01*
X-4002575Y14123210D01*
X-4002544Y14123184D01*
X-3996715Y14106717D01*
X-3986808Y14066219D01*
X-3973805Y14006242D01*
X-3958691Y13931340D01*
X-3942448Y13846064D01*
X-3941119Y13838875D01*
X-3924825Y13751014D01*
X-3909867Y13671260D01*
X-3897209Y13604681D01*
X-3887814Y13556347D01*
X-3882646Y13531325D01*
X-3882556Y13530943D01*
X-3879411Y13520299D01*
X-3873296Y13512262D01*
X-3860547Y13506467D01*
X-3837500Y13502547D01*
X-3800491Y13500135D01*
X-3745856Y13498865D01*
X-3669933Y13498371D01*
X-3569056Y13498286D01*
X-3556000Y13498286D01*
X-3452090Y13498348D01*
X-3452090Y13498348D01*
G37*
X-3452090Y13498348D02*
X-3373546Y13498778D01*
X-3316702Y13499942D01*
X-3277895Y13502207D01*
X-3253462Y13505940D01*
X-3239738Y13511506D01*
X-3233060Y13519273D01*
X-3229764Y13529605D01*
X-3229444Y13530943D01*
X-3224438Y13555079D01*
X-3215171Y13602701D01*
X-3202608Y13668741D01*
X-3187713Y13748128D01*
X-3171449Y13835796D01*
X-3170881Y13838875D01*
X-3154590Y13924789D01*
X-3139348Y14000696D01*
X-3126139Y14062045D01*
X-3115946Y14104282D01*
X-3109752Y14122855D01*
X-3109457Y14123184D01*
X-3091212Y14132253D01*
X-3053595Y14147367D01*
X-3004729Y14165262D01*
X-3004457Y14165358D01*
X-2942907Y14188493D01*
X-2870343Y14217965D01*
X-2801943Y14247597D01*
X-2798706Y14249062D01*
X-2687298Y14299626D01*
X-2440601Y14131160D01*
X-2364923Y14079803D01*
X-2296369Y14033889D01*
X-2238912Y13996030D01*
X-2196524Y13968837D01*
X-2173175Y13954921D01*
X-2170958Y13953889D01*
X-2153990Y13958484D01*
X-2122299Y13980655D01*
X-2074648Y14021447D01*
X-2009802Y14081905D01*
X-1943603Y14146227D01*
X-1879786Y14209612D01*
X-1822671Y14267451D01*
X-1775695Y14316175D01*
X-1742297Y14352210D01*
X-1725915Y14371984D01*
X-1725306Y14373002D01*
X-1723495Y14386572D01*
X-1730317Y14408733D01*
X-1747460Y14442478D01*
X-1776607Y14490800D01*
X-1819445Y14556692D01*
X-1876552Y14641517D01*
X-1927234Y14716177D01*
X-1972539Y14783140D01*
X-2009850Y14838516D01*
X-2036548Y14878420D01*
X-2050015Y14898962D01*
X-2050863Y14900356D01*
X-2049219Y14920038D01*
X-2036755Y14958293D01*
X-2015952Y15007889D01*
X-2008538Y15023728D01*
X-1976186Y15094290D01*
X-1941672Y15174353D01*
X-1913635Y15243629D01*
X-1893432Y15295045D01*
X-1877385Y15334119D01*
X-1868112Y15354541D01*
X-1866959Y15356114D01*
X-1849904Y15358721D01*
X-1809702Y15365863D01*
X-1751698Y15376523D01*
X-1681237Y15389685D01*
X-1603665Y15404333D01*
X-1524328Y15419449D01*
X-1448569Y15434018D01*
X-1381736Y15447022D01*
X-1329172Y15457445D01*
X-1296224Y15464270D01*
X-1288143Y15466199D01*
X-1279795Y15470962D01*
X-1273494Y15481718D01*
X-1268955Y15502098D01*
X-1265896Y15535734D01*
X-1264033Y15586255D01*
X-1263082Y15657292D01*
X-1262760Y15752476D01*
X-1262743Y15791492D01*
X-1262743Y16108799D01*
X-1338943Y16123839D01*
X-1381337Y16131995D01*
X-1444600Y16143899D01*
X-1521038Y16158116D01*
X-1602957Y16173210D01*
X-1625600Y16177355D01*
X-1701194Y16192053D01*
X-1767047Y16206505D01*
X-1817634Y16219375D01*
X-1847426Y16229322D01*
X-1852388Y16232287D01*
X-1864574Y16253283D01*
X-1882047Y16293967D01*
X-1901423Y16346322D01*
X-1905266Y16357600D01*
X-1930661Y16427523D01*
X-1962183Y16506418D01*
X-1993031Y16577266D01*
X-1993183Y16577595D01*
X-2044553Y16688733D01*
X-1875601Y16937253D01*
X-1706648Y17185772D01*
X-1923571Y17403058D01*
X-1989181Y17467726D01*
X-2049021Y17524733D01*
X-2099733Y17571033D01*
X-2137954Y17603584D01*
X-2160325Y17619343D01*
X-2163534Y17620343D01*
X-2182374Y17612469D01*
X-2220820Y17590578D01*
X-2274670Y17557267D01*
X-2339724Y17515131D01*
X-2410060Y17467943D01*
X-2481445Y17419810D01*
X-2545092Y17377928D01*
X-2596959Y17344871D01*
X-2633005Y17323218D01*
X-2649133Y17315543D01*
X-2668811Y17322037D01*
X-2706125Y17339150D01*
X-2753379Y17363326D01*
X-2758388Y17366013D01*
X-2822023Y17397927D01*
X-2865659Y17413579D01*
X-2892798Y17413745D01*
X-2906943Y17399204D01*
X-2907025Y17399000D01*
X-2914095Y17381779D01*
X-2930958Y17340899D01*
X-2956305Y17279525D01*
X-2988829Y17200819D01*
X-3027222Y17107947D01*
X-3070178Y17004072D01*
X-3111778Y16903502D01*
X-3157496Y16792516D01*
X-3199474Y16689703D01*
X-3236452Y16598215D01*
X-3267173Y16521201D01*
X-3290378Y16461815D01*
X-3304810Y16423209D01*
X-3309257Y16408800D01*
X-3298104Y16392272D01*
X-3268931Y16365930D01*
X-3230029Y16336887D01*
X-3119243Y16245039D01*
X-3032649Y16139759D01*
X-2971284Y16023266D01*
X-2936185Y15897776D01*
X-2928392Y15765507D01*
X-2934057Y15704457D01*
X-2964922Y15577795D01*
X-3018080Y15465941D01*
X-3090233Y15370001D01*
X-3178083Y15291076D01*
X-3278335Y15230270D01*
X-3387690Y15188687D01*
X-3502853Y15167428D01*
X-3620525Y15167599D01*
X-3737410Y15190301D01*
X-3850211Y15236638D01*
X-3955631Y15307713D01*
X-3999632Y15347911D01*
X-4084021Y15451129D01*
X-4142778Y15563925D01*
X-4176296Y15683010D01*
X-4184965Y15805095D01*
X-4169177Y15926893D01*
X-4129322Y16045116D01*
X-4065793Y16156475D01*
X-3978979Y16257684D01*
X-3881971Y16336887D01*
X-3841563Y16367162D01*
X-3813018Y16393219D01*
X-3802743Y16408825D01*
X-3808123Y16425843D01*
X-3823425Y16466500D01*
X-3847388Y16527642D01*
X-3878756Y16606119D01*
X-3916268Y16698780D01*
X-3958667Y16802472D01*
X-4000337Y16903526D01*
X-4046310Y17014607D01*
X-4088893Y17117541D01*
X-4126779Y17209165D01*
X-4158660Y17286316D01*
X-4183229Y17345831D01*
X-4199180Y17384544D01*
X-4205090Y17399000D01*
X-4219052Y17413685D01*
X-4246060Y17413642D01*
X-4289587Y17398099D01*
X-4353110Y17366284D01*
X-4353612Y17366013D01*
X-4401440Y17341323D01*
X-4440103Y17323338D01*
X-4461905Y17315614D01*
X-4462867Y17315543D01*
X-4479279Y17323378D01*
X-4515513Y17345165D01*
X-4567526Y17378328D01*
X-4631275Y17420291D01*
X-4701940Y17467943D01*
X-4773884Y17516191D01*
X-4838726Y17558151D01*
X-4892265Y17591227D01*
X-4930303Y17612821D01*
X-4948467Y17620343D01*
X-4965192Y17610457D01*
X-4998820Y17582826D01*
X-5045990Y17540495D01*
X-5103342Y17486505D01*
X-5167516Y17423899D01*
X-5188503Y17402983D01*
X-5405501Y17185623D01*
X-5240332Y16943220D01*
X-5190136Y16868781D01*
X-5146081Y16801972D01*
X-5110638Y16746665D01*
X-5086281Y16706729D01*
X-5075478Y16686036D01*
X-5075162Y16684563D01*
X-5080857Y16665058D01*
X-5096174Y16625822D01*
X-5118463Y16573430D01*
X-5134107Y16538355D01*
X-5163359Y16471201D01*
X-5190906Y16403358D01*
X-5212263Y16346034D01*
X-5218065Y16328572D01*
X-5234548Y16281938D01*
X-5250660Y16245905D01*
X-5259510Y16232287D01*
X-5279040Y16223952D01*
X-5321666Y16212137D01*
X-5381855Y16198181D01*
X-5454078Y16183422D01*
X-5486400Y16177355D01*
X-5568478Y16162273D01*
X-5647205Y16147669D01*
X-5714891Y16134980D01*
X-5763840Y16125642D01*
X-5773057Y16123839D01*
X-5849257Y16108799D01*
X-5849257Y15791492D01*
X-5849086Y15687154D01*
X-5848384Y15608213D01*
X-5846866Y15551038D01*
X-5844251Y15511999D01*
X-5840254Y15487465D01*
X-5834591Y15473805D01*
X-5826980Y15467389D01*
X-5823857Y15466199D01*
X-5805022Y15461980D01*
X-5763412Y15453562D01*
X-5704370Y15441961D01*
X-5633243Y15428195D01*
X-5555375Y15413280D01*
X-5476113Y15398232D01*
X-5400802Y15384069D01*
X-5334787Y15371806D01*
X-5283413Y15362461D01*
X-5252025Y15357050D01*
X-5245041Y15356114D01*
X-5238715Y15343596D01*
X-5224710Y15310246D01*
X-5205645Y15262377D01*
X-5198366Y15243629D01*
X-5169004Y15171195D01*
X-5134429Y15091170D01*
X-5103463Y15023728D01*
X-5080677Y14972159D01*
X-5065518Y14929785D01*
X-5060458Y14903834D01*
X-5061264Y14900356D01*
X-5071959Y14883936D01*
X-5096380Y14847417D01*
X-5131905Y14794687D01*
X-5175913Y14729635D01*
X-5225783Y14656151D01*
X-5235644Y14641645D01*
X-5293508Y14555704D01*
X-5336044Y14490261D01*
X-5364946Y14442304D01*
X-5381910Y14408820D01*
X-5388633Y14386795D01*
X-5386810Y14373217D01*
X-5386764Y14373131D01*
X-5372414Y14355297D01*
X-5340677Y14320817D01*
X-5294990Y14273268D01*
X-5238796Y14216222D01*
X-5175532Y14153255D01*
X-5168398Y14146227D01*
X-5088670Y14069020D01*
X-5027143Y14012330D01*
X-4982579Y13975110D01*
X-4953743Y13956315D01*
X-4941042Y13953889D01*
X-4922506Y13964471D01*
X-4884039Y13988916D01*
X-4829614Y14024612D01*
X-4763202Y14068947D01*
X-4688775Y14119311D01*
X-4671399Y14131160D01*
X-4424703Y14299626D01*
X-4313294Y14249062D01*
X-4245543Y14219595D01*
X-4172817Y14189959D01*
X-4110297Y14166330D01*
X-4107543Y14165358D01*
X-4058640Y14147457D01*
X-4020943Y14132320D01*
X-4002575Y14123210D01*
X-4002544Y14123184D01*
X-3996715Y14106717D01*
X-3986808Y14066219D01*
X-3973805Y14006242D01*
X-3958691Y13931340D01*
X-3942448Y13846064D01*
X-3941119Y13838875D01*
X-3924825Y13751014D01*
X-3909867Y13671260D01*
X-3897209Y13604681D01*
X-3887814Y13556347D01*
X-3882646Y13531325D01*
X-3882556Y13530943D01*
X-3879411Y13520299D01*
X-3873296Y13512262D01*
X-3860547Y13506467D01*
X-3837500Y13502547D01*
X-3800491Y13500135D01*
X-3745856Y13498865D01*
X-3669933Y13498371D01*
X-3569056Y13498286D01*
X-3556000Y13498286D01*
X-3452090Y13498348D01*
D14*
X-1783848Y-36459611D02*
X-2490955Y-35752504D01*
X-2120565Y-36728985D02*
X-2187908Y-36863672D01*
X-2356268Y-37032031D01*
X-2457283Y-37065703D01*
X-2524626Y-37065703D01*
X-2625641Y-37032031D01*
X-2692985Y-36964688D01*
X-2726657Y-36863672D01*
X-2726657Y-36796329D01*
X-2692986Y-36695313D01*
X-2591970Y-36526954D01*
X-2558298Y-36425939D01*
X-2558298Y-36358595D01*
X-2591970Y-36257580D01*
X-2659313Y-36190237D01*
X-2760328Y-36156565D01*
X-2827672Y-36156565D01*
X-2928687Y-36190237D01*
X-3097046Y-36358596D01*
X-3164390Y-36493283D01*
X-2794000Y-37469763D02*
X-3501107Y-36762657D01*
X-3770481Y-37032031D01*
X-3804153Y-37133046D01*
X-3804153Y-37200390D01*
X-3770481Y-37301405D01*
X-3669466Y-37402420D01*
X-3568451Y-37436092D01*
X-3501107Y-37436092D01*
X-3400092Y-37402420D01*
X-3130718Y-37133045D01*
M02*
