G04 #@! TF.FileFunction,Copper,L2,Bot,Signal*
%FSLAX46Y46*%
G04 Gerber Fmt 4.6, Leading zero omitted, Abs format (unit mm)*
G04 Created by KiCad (PCBNEW 4.0.4-stable) date Wednesday, 02 '02e' November '02e' 2016, 22:28:03*
%MOMM*%
%LPD*%
G01*
G04 APERTURE LIST*
%ADD10C,0.100000*%
%ADD11R,1.727200X1.727200*%
%ADD12O,1.727200X1.727200*%
%ADD13C,0.600000*%
%ADD14C,0.250000*%
G04 APERTURE END LIST*
D10*
G36*
X-1939887Y-33991339D02*
X-3636944Y-35688396D01*
X-4174345Y-35150995D01*
X-2477288Y-33453938D01*
X-1939887Y-33991339D01*
X-1939887Y-33991339D01*
G37*
G36*
X-2837913Y-33093314D02*
X-4534970Y-34790371D01*
X-5072371Y-34252970D01*
X-3375314Y-32555913D01*
X-2837913Y-33093314D01*
X-2837913Y-33093314D01*
G37*
G36*
X-3735938Y-32195288D02*
X-5432995Y-33892345D01*
X-5970396Y-33354944D01*
X-4273339Y-31657887D01*
X-3735938Y-32195288D01*
X-3735938Y-32195288D01*
G37*
G36*
X-4697604Y-36749056D02*
X-6394661Y-38446113D01*
X-6932062Y-37908712D01*
X-5235005Y-36211655D01*
X-4697604Y-36749056D01*
X-4697604Y-36749056D01*
G37*
G36*
X-5595629Y-35851030D02*
X-7292686Y-37548087D01*
X-7830087Y-37010686D01*
X-6133030Y-35313629D01*
X-5595629Y-35851030D01*
X-5595629Y-35851030D01*
G37*
G36*
X-6493655Y-34953005D02*
X-8190712Y-36650062D01*
X-8728113Y-36112661D01*
X-7031056Y-34415604D01*
X-6493655Y-34953005D01*
X-6493655Y-34953005D01*
G37*
D11*
X-1270000Y-11430000D03*
D12*
X-1270000Y-13970000D03*
X-3810000Y-11430000D03*
X-3810000Y-13970000D03*
X-6350000Y-11430000D03*
X-6350000Y-13970000D03*
D13*
X-4826000Y-9144000D03*
X-4318000Y-30226000D03*
X0Y-2286000D03*
X-254000Y5842000D03*
X-1778000Y-30480000D03*
X-3302000Y-3556000D03*
X-7874000Y-254000D03*
X-8128000Y6096000D03*
X-5080000Y-35306000D03*
X-2794000Y-16510000D03*
X-4064000Y-15748000D03*
X-762000Y-8890000D03*
X-2540000Y-15240000D03*
X-4318000Y-36068000D03*
X-5080000Y-29718000D03*
X-6350000Y-34036000D03*
X762000Y-3302000D03*
D14*
X-5080000Y-12700000D02*
X-6350000Y-13970000D01*
X-5080000Y-9398000D02*
X-5080000Y-12700000D01*
X-4826000Y-9144000D02*
X-5080000Y-9398000D01*
X-4318000Y-32258000D02*
X-4318000Y-30226000D01*
X-4853167Y-32775116D02*
X-4835116Y-32775116D01*
X-4835116Y-32775116D02*
X-4318000Y-32258000D01*
X0Y5588000D02*
X0Y-2286000D01*
X-254000Y5842000D02*
X0Y5588000D01*
X-2032000Y-33020000D02*
X-2032000Y-30734000D01*
X-2032000Y-30734000D02*
X-1778000Y-30480000D01*
X-2032000Y-33528000D02*
X-2032000Y-33020000D01*
X-2032000Y-33528000D02*
X-3057116Y-34553116D01*
X-3057116Y-34571167D02*
X-3057116Y-34553116D01*
X-7874000Y-254000D02*
X-7874000Y-2032000D01*
X-6350000Y-3556000D02*
X-3302000Y-3556000D01*
X-7874000Y-2032000D02*
X-6350000Y-3556000D01*
X-7874000Y5842000D02*
X-7874000Y-254000D01*
X-8128000Y6096000D02*
X-7874000Y5842000D01*
X-4064000Y-15748000D02*
X-3556000Y-15748000D01*
X-3556000Y-15748000D02*
X-2794000Y-16510000D01*
X-5588000Y-35306000D02*
X-6712858Y-36430858D01*
X-5588000Y-35306000D02*
X-5080000Y-35306000D01*
X-3810000Y-10414000D02*
X-3810000Y-11430000D01*
X-3048000Y-9652000D02*
X-3810000Y-10414000D01*
X-1524000Y-9652000D02*
X-3048000Y-9652000D01*
X-762000Y-8890000D02*
X-1524000Y-9652000D01*
X-2540000Y-12954000D02*
X-2540000Y-14732000D01*
X-2540000Y-14732000D02*
X-2540000Y-15240000D01*
X-2540000Y-12954000D02*
X-1270000Y-11684000D01*
X-1270000Y-11430000D02*
X-1270000Y-11684000D01*
X-4807949Y-36322000D02*
X-5814833Y-37328884D01*
X-4572000Y-36322000D02*
X-4807949Y-36322000D01*
X-4318000Y-36068000D02*
X-4572000Y-36322000D01*
X-3810000Y-13970000D02*
X-3810000Y-14224000D01*
X-3810000Y-14224000D02*
X-4826000Y-15240000D01*
X-3810000Y-17272000D02*
X-3810000Y-18288000D01*
X-4826000Y-16256000D02*
X-3810000Y-17272000D01*
X-4826000Y-15240000D02*
X-4826000Y-16256000D01*
X-3955142Y-33673142D02*
X-3955142Y-33419142D01*
X-3955142Y-33419142D02*
X-3048000Y-32512000D01*
X-3048000Y-32512000D02*
X-3048000Y-28194000D01*
X-3048000Y-28194000D02*
X-3810000Y-27432000D01*
X-3810000Y-27432000D02*
X-3810000Y-18288000D01*
X-4572000Y-13970000D02*
X-3810000Y-13970000D01*
X-6350000Y-11430000D02*
X-7620000Y-12700000D01*
X-4572000Y-29210000D02*
X-5080000Y-29718000D01*
X-4572000Y-17526000D02*
X-4572000Y-29210000D01*
X-6096000Y-16002000D02*
X-4572000Y-17526000D01*
X-7112000Y-16002000D02*
X-6096000Y-16002000D01*
X-7620000Y-15494000D02*
X-7112000Y-16002000D01*
X-7620000Y-12700000D02*
X-7620000Y-15494000D01*
X-6350000Y-11430000D02*
X-6350000Y-8890000D01*
X-6350000Y-8890000D02*
X-3810000Y-6350000D01*
X-7610884Y-35532833D02*
X-7592833Y-35532833D01*
X-7592833Y-35532833D02*
X-6350000Y-34290000D01*
X-6350000Y-34290000D02*
X-6350000Y-34036000D01*
X-3810000Y-6350000D02*
X-2794000Y-5334000D01*
X-2794000Y-5334000D02*
X-762000Y-5334000D01*
X-762000Y-5334000D02*
X762000Y-3810000D01*
X762000Y-3810000D02*
X762000Y-3302000D01*
M02*
