G04 #@! TF.FileFunction,Legend,Top*
%FSLAX46Y46*%
G04 Gerber Fmt 4.6, Leading zero omitted, Abs format (unit mm)*
G04 Created by KiCad (PCBNEW 4.0.4-stable) date Wednesday, 02 '02e' November '02e' 2016, 22:28:03*
%MOMM*%
%LPD*%
G01*
G04 APERTURE LIST*
%ADD10C,0.100000*%
%ADD11C,0.300000*%
%ADD12C,0.150000*%
G04 APERTURE END LIST*
D10*
D11*
X14240276Y-30534100D02*
X14564936Y-29069656D01*
X15077101Y-30719619D01*
X15401761Y-29255175D01*
X16402075Y-31013359D02*
X16572134Y-30246269D01*
X16533318Y-30091339D01*
X16409308Y-29990683D01*
X16130366Y-29928843D01*
X15975436Y-29967659D01*
X16417535Y-30943624D02*
X16262604Y-30982439D01*
X15913927Y-30905139D01*
X15789916Y-30804484D01*
X15751100Y-30649553D01*
X15782020Y-30510083D01*
X15882676Y-30386071D01*
X16037606Y-30347256D01*
X16386284Y-30424556D01*
X16541214Y-30385740D01*
X17176398Y-30160743D02*
X17308636Y-31214339D01*
X17873752Y-30315342D01*
X18788539Y-31469263D02*
X18633608Y-31508078D01*
X18354667Y-31446238D01*
X18230656Y-31345583D01*
X18191840Y-31190652D01*
X18315520Y-30632769D01*
X18416176Y-30508758D01*
X18571106Y-30469942D01*
X18850048Y-30531782D01*
X18974058Y-30632438D01*
X19012874Y-30787368D01*
X18981954Y-30926839D01*
X18253680Y-30911710D01*
X19679640Y-31739978D02*
X19555628Y-31639323D01*
X19516813Y-31484392D01*
X19795093Y-30229154D01*
X20237523Y-31863657D02*
X20453963Y-30887361D01*
X20562182Y-30399213D02*
X20476986Y-30453489D01*
X20531262Y-30538685D01*
X20616457Y-30484409D01*
X20562182Y-30399213D01*
X20531262Y-30538685D01*
X21151317Y-31041961D02*
X20934877Y-32018257D01*
X21120397Y-31181433D02*
X21205592Y-31127157D01*
X21360524Y-31088341D01*
X21569729Y-31134721D01*
X21693740Y-31235376D01*
X21732556Y-31390307D01*
X21562496Y-32157397D01*
X22469057Y-32358376D02*
X22345045Y-32257721D01*
X22290771Y-32172526D01*
X22251955Y-32017595D01*
X22344714Y-31599183D01*
X22445370Y-31475172D01*
X22530565Y-31420896D01*
X22685497Y-31382080D01*
X22894703Y-31428460D01*
X23018713Y-31529116D01*
X23072989Y-31614312D01*
X23111805Y-31769243D01*
X23019045Y-32187655D01*
X22918389Y-32311665D01*
X22833193Y-32365941D01*
X22678263Y-32404756D01*
X22469057Y-32358376D01*
X24700591Y-32853096D02*
X25025250Y-31388652D01*
X25343669Y-32922500D02*
X25537416Y-33038615D01*
X25886093Y-33115915D01*
X26041024Y-33077100D01*
X26126220Y-33022824D01*
X26226875Y-32898814D01*
X26257795Y-32759343D01*
X26218980Y-32604412D01*
X26164704Y-32519216D01*
X26040693Y-32418562D01*
X25777212Y-32286986D01*
X25653200Y-32186331D01*
X25598925Y-32101135D01*
X25560109Y-31946204D01*
X25591029Y-31806734D01*
X25691685Y-31682723D01*
X25776880Y-31628447D01*
X25931811Y-31589631D01*
X26280488Y-31666931D01*
X26474234Y-31783047D01*
X26792654Y-33316895D02*
X27117313Y-31852451D01*
X27675196Y-31976130D01*
X27799207Y-32076786D01*
X27853482Y-32161982D01*
X27892298Y-32316913D01*
X27845918Y-32526118D01*
X27745262Y-32650130D01*
X27660068Y-32704405D01*
X27505136Y-32743221D01*
X26947253Y-32619541D01*
X29449833Y-32881698D02*
X29582071Y-33935294D01*
X30147187Y-33036297D01*
X31255720Y-34306333D02*
X30418895Y-34120813D01*
X30837308Y-34213573D02*
X31161968Y-32749129D01*
X30976117Y-32927416D01*
X30805725Y-33035966D01*
X30650795Y-33074782D01*
D12*
X-5684000Y-162000D02*
X-4984000Y-162000D01*
X-4984000Y-1362000D02*
X-5684000Y-1362000D01*
X1816000Y2256000D02*
X1816000Y4356000D01*
X216000Y2256000D02*
X216000Y4356000D01*
X-8928000Y4856000D02*
X-8928000Y2756000D01*
X-7328000Y4856000D02*
X-7328000Y2756000D01*
X1524000Y-6350000D02*
X-3556000Y-6350000D01*
X-3556000Y-6350000D02*
X-3556000Y-1778000D01*
X-3556000Y-1778000D02*
X1524000Y-1778000D01*
X1524000Y-1778000D02*
X1524000Y-6350000D01*
X1524000Y-4826000D02*
X1016000Y-4826000D01*
X1016000Y-4826000D02*
X1016000Y-3556000D01*
X1016000Y-3556000D02*
X1524000Y-3556000D01*
X-6517000Y3056000D02*
X-6517000Y4056000D01*
X-5167000Y4056000D02*
X-5167000Y3056000D01*
X-1945000Y3056000D02*
X-1945000Y4056000D01*
X-595000Y4056000D02*
X-595000Y3056000D01*
X-4231000Y3056000D02*
X-4231000Y4056000D01*
X-2881000Y4056000D02*
X-2881000Y3056000D01*
X-8878000Y-2718000D02*
X-8878000Y-5418000D01*
X-7378000Y-2718000D02*
X-7378000Y-5418000D01*
X-8278000Y-4218000D02*
X-8028000Y-4218000D01*
X-8028000Y-4218000D02*
X-8178000Y-4068000D01*
X-7778000Y-3968000D02*
X-8478000Y-3968000D01*
X-8128000Y-4318000D02*
X-8128000Y-4668000D01*
X-8128000Y-3968000D02*
X-7778000Y-4318000D01*
X-7778000Y-4318000D02*
X-8478000Y-4318000D01*
X-8478000Y-4318000D02*
X-8128000Y-3968000D01*
X-6517000Y-4818000D02*
X-6517000Y-3818000D01*
X-5167000Y-3818000D02*
X-5167000Y-4818000D01*
X-2540000Y-10160000D02*
X-7620000Y-10160000D01*
X280000Y-9880000D02*
X280000Y-11430000D01*
X0Y-12700000D02*
X-2540000Y-12700000D01*
X-2540000Y-12700000D02*
X-2540000Y-10160000D01*
X-7620000Y-10160000D02*
X-7620000Y-15240000D01*
X-7620000Y-15240000D02*
X-2540000Y-15240000D01*
X280000Y-9880000D02*
X-1270000Y-9880000D01*
X0Y-15240000D02*
X0Y-12700000D01*
X-2540000Y-15240000D02*
X0Y-15240000D01*
X-7516857Y-1182666D02*
X-7469238Y-1230285D01*
X-7421619Y-1373142D01*
X-7421619Y-1468380D01*
X-7469238Y-1611238D01*
X-7564476Y-1706476D01*
X-7659714Y-1754095D01*
X-7850190Y-1801714D01*
X-7993048Y-1801714D01*
X-8183524Y-1754095D01*
X-8278762Y-1706476D01*
X-8374000Y-1611238D01*
X-8421619Y-1468380D01*
X-8421619Y-1373142D01*
X-8374000Y-1230285D01*
X-8326381Y-1182666D01*
X-7421619Y-230285D02*
X-7421619Y-801714D01*
X-7421619Y-516000D02*
X-8421619Y-516000D01*
X-8278762Y-611238D01*
X-8183524Y-706476D01*
X-8135905Y-801714D01*
X277905Y309619D02*
X277905Y1309619D01*
X516000Y1309619D01*
X658858Y1262000D01*
X754096Y1166762D01*
X801715Y1071524D01*
X849334Y881048D01*
X849334Y738190D01*
X801715Y547714D01*
X754096Y452476D01*
X658858Y357238D01*
X516000Y309619D01*
X277905Y309619D01*
X1801715Y309619D02*
X1230286Y309619D01*
X1516000Y309619D02*
X1516000Y1309619D01*
X1420762Y1166762D01*
X1325524Y1071524D01*
X1230286Y1023905D01*
X-8866095Y309619D02*
X-8866095Y1309619D01*
X-8628000Y1309619D01*
X-8485142Y1262000D01*
X-8389904Y1166762D01*
X-8342285Y1071524D01*
X-8294666Y881048D01*
X-8294666Y738190D01*
X-8342285Y547714D01*
X-8389904Y452476D01*
X-8485142Y357238D01*
X-8628000Y309619D01*
X-8866095Y309619D01*
X-7913714Y1214381D02*
X-7866095Y1262000D01*
X-7770857Y1309619D01*
X-7532761Y1309619D01*
X-7437523Y1262000D01*
X-7389904Y1214381D01*
X-7342285Y1119143D01*
X-7342285Y1023905D01*
X-7389904Y881048D01*
X-7961333Y309619D01*
X-7342285Y309619D01*
X-1992190Y-4516381D02*
X-1992190Y-3516381D01*
X-944571Y-4421143D02*
X-992190Y-4468762D01*
X-1135047Y-4516381D01*
X-1230285Y-4516381D01*
X-1373143Y-4468762D01*
X-1468381Y-4373524D01*
X-1516000Y-4278286D01*
X-1563619Y-4087810D01*
X-1563619Y-3944952D01*
X-1516000Y-3754476D01*
X-1468381Y-3659238D01*
X-1373143Y-3564000D01*
X-1230285Y-3516381D01*
X-1135047Y-3516381D01*
X-992190Y-3564000D01*
X-944571Y-3611619D01*
X7810Y-4516381D02*
X-563619Y-4516381D01*
X-277905Y-4516381D02*
X-277905Y-3516381D01*
X-373143Y-3659238D01*
X-468381Y-3754476D01*
X-563619Y-3802095D01*
X-6008666Y309619D02*
X-6342000Y785810D01*
X-6580095Y309619D02*
X-6580095Y1309619D01*
X-6199142Y1309619D01*
X-6103904Y1262000D01*
X-6056285Y1214381D01*
X-6008666Y1119143D01*
X-6008666Y976286D01*
X-6056285Y881048D01*
X-6103904Y833429D01*
X-6199142Y785810D01*
X-6580095Y785810D01*
X-5056285Y309619D02*
X-5627714Y309619D01*
X-5342000Y309619D02*
X-5342000Y1309619D01*
X-5437238Y1166762D01*
X-5532476Y1071524D01*
X-5627714Y1023905D01*
X-1436666Y309619D02*
X-1770000Y785810D01*
X-2008095Y309619D02*
X-2008095Y1309619D01*
X-1627142Y1309619D01*
X-1531904Y1262000D01*
X-1484285Y1214381D01*
X-1436666Y1119143D01*
X-1436666Y976286D01*
X-1484285Y881048D01*
X-1531904Y833429D01*
X-1627142Y785810D01*
X-2008095Y785810D01*
X-1055714Y1214381D02*
X-1008095Y1262000D01*
X-912857Y1309619D01*
X-674761Y1309619D01*
X-579523Y1262000D01*
X-531904Y1214381D01*
X-484285Y1119143D01*
X-484285Y1023905D01*
X-531904Y881048D01*
X-1103333Y309619D01*
X-484285Y309619D01*
X-3722666Y309619D02*
X-4056000Y785810D01*
X-4294095Y309619D02*
X-4294095Y1309619D01*
X-3913142Y1309619D01*
X-3817904Y1262000D01*
X-3770285Y1214381D01*
X-3722666Y1119143D01*
X-3722666Y976286D01*
X-3770285Y881048D01*
X-3817904Y833429D01*
X-3913142Y785810D01*
X-4294095Y785810D01*
X-3389333Y1309619D02*
X-2770285Y1309619D01*
X-3103619Y928667D01*
X-2960761Y928667D01*
X-2865523Y881048D01*
X-2817904Y833429D01*
X-2770285Y738190D01*
X-2770285Y500095D01*
X-2817904Y404857D01*
X-2865523Y357238D01*
X-2960761Y309619D01*
X-3246476Y309619D01*
X-3341714Y357238D01*
X-3389333Y404857D01*
X-8866095Y-7564381D02*
X-8866095Y-6564381D01*
X-8628000Y-6564381D01*
X-8485142Y-6612000D01*
X-8389904Y-6707238D01*
X-8342285Y-6802476D01*
X-8294666Y-6992952D01*
X-8294666Y-7135810D01*
X-8342285Y-7326286D01*
X-8389904Y-7421524D01*
X-8485142Y-7516762D01*
X-8628000Y-7564381D01*
X-8866095Y-7564381D01*
X-7961333Y-6564381D02*
X-7342285Y-6564381D01*
X-7675619Y-6945333D01*
X-7532761Y-6945333D01*
X-7437523Y-6992952D01*
X-7389904Y-7040571D01*
X-7342285Y-7135810D01*
X-7342285Y-7373905D01*
X-7389904Y-7469143D01*
X-7437523Y-7516762D01*
X-7532761Y-7564381D01*
X-7818476Y-7564381D01*
X-7913714Y-7516762D01*
X-7961333Y-7469143D01*
X-6008666Y-7564381D02*
X-6342000Y-7088190D01*
X-6580095Y-7564381D02*
X-6580095Y-6564381D01*
X-6199142Y-6564381D01*
X-6103904Y-6612000D01*
X-6056285Y-6659619D01*
X-6008666Y-6754857D01*
X-6008666Y-6897714D01*
X-6056285Y-6992952D01*
X-6103904Y-7040571D01*
X-6199142Y-7088190D01*
X-6580095Y-7088190D01*
X-5151523Y-6897714D02*
X-5151523Y-7564381D01*
X-5389619Y-6516762D02*
X-5627714Y-7231048D01*
X-5008666Y-7231048D01*
M02*
