M48
;DRILL file {KiCad 4.0.4-stable} date Wednesday, 02 '02e' November '02e' 2016, 22:28:08
;FORMAT={-:-/ absolute / metric / decimal}
FMAT,2
METRIC,TZ
T1C0.400
T2C1.016
%
G90
G05
M71
T1
X-8.128Y6.096
X-7.874Y-0.254
X-6.35Y-34.036
X-5.08Y-29.718
X-5.08Y-35.306
X-4.826Y-9.144
X-4.318Y-30.226
X-4.318Y-36.068
X-4.064Y-15.748
X-3.302Y-3.556
X-2.794Y-16.51
X-2.54Y-15.24
X-1.778Y-30.48
X-0.762Y-8.89
X-0.254Y5.842
X0.Y-2.286
X0.762Y-3.302
T2
X-6.35Y-11.43
X-6.35Y-13.97
X-3.81Y-11.43
X-3.81Y-13.97
X-1.27Y-11.43
X-1.27Y-13.97
T0
M30
